<svg width="40" height="40" viewBox="0 0 40 40" fill="none" xmlns="http://www.w3.org/2000/svg">
<path d="M2.5 30V27.5H37.5V30.0781C37.5 32.2656 36.4844 34.2188 35 35.625V38.75C35 39.4531 34.375 40 33.75 40H31.25C30.5469 40 30 39.4531 30 38.75V37.5781H10V38.75C10 39.4531 9.375 40 8.75 40H6.25C5.54688 40 5 39.4531 5 38.75V35.625C3.4375 34.2188 2.5 32.2656 2.5 30ZM38.75 20C39.375 20 40 20.625 40 21.25V23.75C40 24.4531 39.375 25 38.75 25H1.25C0.546875 25 0 24.4531 0 23.75V21.25C0 20.625 0.546875 20 1.25 20L2.5 20.0781V6.09375C2.5 2.73438 5.15625 0 8.51562 0C10.0781 0 11.6406 0.703125 12.7344 1.79688L13.8281 2.89062C15.9375 2.1875 17.9688 2.65625 19.4531 3.75C19.9219 3.28125 20.7031 3.28125 21.25 3.75L22.1094 4.6875C22.5781 5.15625 22.5781 5.9375 22.1094 6.40625L13.8281 14.6875C13.3594 15.1562 12.5781 15.1562 12.1094 14.6875L11.25 13.75C10.7031 13.2812 10.7031 12.5 11.25 12.0312C10.0781 10.5469 9.60938 8.51562 10.3125 6.40625L9.21875 5.3125C8.67188 4.76562 7.42188 5.23438 7.5 6.09375V20H38.75Z" fill="url(#paint0_linear_4024_1367)"/>
<defs>
<linearGradient id="paint0_linear_4024_1367" x1="0.0165942" y1="20.0007" x2="40.0163" y2="20.0007" gradientUnits="userSpaceOnUse">
<stop stop-color="#F69220"/>
<stop offset="0.2863" stop-color="#F68E20"/>
<stop offset="0.5401" stop-color="#F48421"/>
<stop offset="0.7807" stop-color="#F37221"/>
<stop offset="1" stop-color="#F05A22"/>
</linearGradient>
</defs>
</svg>
