<svg width="45" height="40" viewBox="0 0 45 40" fill="none" xmlns="http://www.w3.org/2000/svg">
<path d="M36.25 22.3975V37.515H38.75V22.3975C37.9225 22.5365 37.0775 22.5365 36.25 22.3975ZM38.75 7.6025C37.9225 7.46357 37.0775 7.46357 36.25 7.6025V2.5H38.75V7.6025Z" fill="url(#paint0_linear_4024_1392)"/>
<path fill-rule="evenodd" clip-rule="evenodd" d="M37.5 17.5C38.163 17.5 38.7989 17.2366 39.2678 16.7678C39.7366 16.2989 40 15.663 40 15C40 14.337 39.7366 13.7011 39.2678 13.2322C38.7989 12.7634 38.163 12.5 37.5 12.5C36.837 12.5 36.2011 12.7634 35.7322 13.2322C35.2634 13.7011 35 14.337 35 15C35 15.663 35.2634 16.2989 35.7322 16.7678C36.2011 17.2366 36.837 17.5 37.5 17.5ZM42.5 15C42.5 16.3261 41.9732 17.5979 41.0355 18.5355C40.0979 19.4732 38.8261 20 37.5 20C36.1739 20 34.9021 19.4732 33.9645 18.5355C33.0268 17.5979 32.5 16.3261 32.5 15C32.5 13.6739 33.0268 12.4021 33.9645 11.4645C34.9021 10.5268 36.1739 10 37.5 10C38.8261 10 40.0979 10.5268 41.0355 11.4645C41.9732 12.4021 42.5 13.6739 42.5 15Z" fill="url(#paint1_linear_4024_1392)"/>
<path d="M21.25 32.3975V37.515H23.75V32.3975C22.9225 32.5365 22.0775 32.5365 21.25 32.3975ZM23.75 17.6025C22.9225 17.4635 22.0775 17.4635 21.25 17.6025V2.5H23.75V17.6025Z" fill="url(#paint2_linear_4024_1392)"/>
<path fill-rule="evenodd" clip-rule="evenodd" d="M22.5 27.5C23.163 27.5 23.7989 27.2366 24.2678 26.7678C24.7366 26.2989 25 25.663 25 25C25 24.337 24.7366 23.7011 24.2678 23.2322C23.7989 22.7634 23.163 22.5 22.5 22.5C21.837 22.5 21.2011 22.7634 20.7322 23.2322C20.2634 23.7011 20 24.337 20 25C20 25.663 20.2634 26.2989 20.7322 26.7678C21.2011 27.2366 21.837 27.5 22.5 27.5ZM27.5 25C27.5 26.3261 26.9732 27.5979 26.0355 28.5355C25.0979 29.4732 23.8261 30 22.5 30C21.1739 30 19.9021 29.4732 18.9645 28.5355C18.0268 27.5979 17.5 26.3261 17.5 25C17.5 23.6739 18.0268 22.4021 18.9645 21.4645C19.9021 20.5268 21.1739 20 22.5 20C23.8261 20 25.0979 20.5268 26.0355 21.4645C26.9732 22.4021 27.5 23.6739 27.5 25Z" fill="url(#paint3_linear_4024_1392)"/>
<path d="M6.25 22.3975V37.515H8.75V22.3975C7.92246 22.5365 7.07754 22.5365 6.25 22.3975ZM8.75 7.6025C7.92246 7.46357 7.07754 7.46357 6.25 7.6025V2.5H8.75V7.6025Z" fill="url(#paint4_linear_4024_1392)"/>
<path fill-rule="evenodd" clip-rule="evenodd" d="M7.5 17.5C8.16304 17.5 8.79893 17.2366 9.26777 16.7678C9.73661 16.2989 10 15.663 10 15C10 14.337 9.73661 13.7011 9.26777 13.2322C8.79893 12.7634 8.16304 12.5 7.5 12.5C6.83696 12.5 6.20107 12.7634 5.73223 13.2322C5.26339 13.7011 5 14.337 5 15C5 15.663 5.26339 16.2989 5.73223 16.7678C6.20107 17.2366 6.83696 17.5 7.5 17.5ZM12.5 15C12.5 16.3261 11.9732 17.5979 11.0355 18.5355C10.0979 19.4732 8.82608 20 7.5 20C6.17392 20 4.90215 19.4732 3.96447 18.5355C3.02678 17.5979 2.5 16.3261 2.5 15C2.5 13.6739 3.02678 12.4021 3.96447 11.4645C4.90215 10.5268 6.17392 10 7.5 10C8.82608 10 10.0979 10.5268 11.0355 11.4645C11.9732 12.4021 12.5 13.6739 12.5 15Z" fill="url(#paint5_linear_4024_1392)"/>
<defs>
<linearGradient id="paint0_linear_4024_1392" x1="36.251" y1="20.0082" x2="38.751" y2="20.0082" gradientUnits="userSpaceOnUse">
<stop stop-color="#F69220"/>
<stop offset="0.2863" stop-color="#F68E20"/>
<stop offset="0.5401" stop-color="#F48421"/>
<stop offset="0.7807" stop-color="#F37221"/>
<stop offset="1" stop-color="#F05A22"/>
</linearGradient>
<linearGradient id="paint1_linear_4024_1392" x1="32.5041" y1="15.0002" x2="42.5041" y2="15.0002" gradientUnits="userSpaceOnUse">
<stop stop-color="#F69220"/>
<stop offset="0.2863" stop-color="#F68E20"/>
<stop offset="0.5401" stop-color="#F48421"/>
<stop offset="0.7807" stop-color="#F37221"/>
<stop offset="1" stop-color="#F05A22"/>
</linearGradient>
<linearGradient id="paint2_linear_4024_1392" x1="21.251" y1="20.0082" x2="23.751" y2="20.0082" gradientUnits="userSpaceOnUse">
<stop stop-color="#F69220"/>
<stop offset="0.2863" stop-color="#F68E20"/>
<stop offset="0.5401" stop-color="#F48421"/>
<stop offset="0.7807" stop-color="#F37221"/>
<stop offset="1" stop-color="#F05A22"/>
</linearGradient>
<linearGradient id="paint3_linear_4024_1392" x1="17.5041" y1="25.0002" x2="27.5041" y2="25.0002" gradientUnits="userSpaceOnUse">
<stop stop-color="#F69220"/>
<stop offset="0.2863" stop-color="#F68E20"/>
<stop offset="0.5401" stop-color="#F48421"/>
<stop offset="0.7807" stop-color="#F37221"/>
<stop offset="1" stop-color="#F05A22"/>
</linearGradient>
<linearGradient id="paint4_linear_4024_1392" x1="6.25104" y1="20.0082" x2="8.75102" y2="20.0082" gradientUnits="userSpaceOnUse">
<stop stop-color="#F69220"/>
<stop offset="0.2863" stop-color="#F68E20"/>
<stop offset="0.5401" stop-color="#F48421"/>
<stop offset="0.7807" stop-color="#F37221"/>
<stop offset="1" stop-color="#F05A22"/>
</linearGradient>
<linearGradient id="paint5_linear_4024_1392" x1="2.50415" y1="15.0002" x2="12.5041" y2="15.0002" gradientUnits="userSpaceOnUse">
<stop stop-color="#F69220"/>
<stop offset="0.2863" stop-color="#F68E20"/>
<stop offset="0.5401" stop-color="#F48421"/>
<stop offset="0.7807" stop-color="#F37221"/>
<stop offset="1" stop-color="#F05A22"/>
</linearGradient>
</defs>
</svg>
