<svg width="36" height="36" viewBox="0 0 36 36" fill="none" xmlns="http://www.w3.org/2000/svg">
<path d="M33.9875 10.6576L18.2836 1.14767C18.1965 1.09452 18.0964 1.06641 17.9943 1.06641C17.8923 1.06641 17.7922 1.09452 17.7051 1.14767L2.0113 10.6576C1.93077 10.7088 1.86503 10.7801 1.82062 10.8645C1.77621 10.9489 1.75468 11.0435 1.75818 11.1388V34.3677C1.75818 34.6784 1.97777 34.9436 2.28841 34.9436H5.63718C5.78651 34.9401 5.92834 34.8775 6.03158 34.7695C6.13481 34.6616 6.19102 34.5171 6.18787 34.3677V18.4201H29.8129V34.3677C29.8097 34.5171 29.8659 34.6616 29.9692 34.7695C30.0724 34.8775 30.2142 34.9401 30.3636 34.9436H33.7123C34.023 34.9436 34.2426 34.6784 34.2426 34.3677V11.1389C34.2457 11.0434 34.2238 10.9488 34.1791 10.8643C34.1343 10.7799 34.0683 10.7087 33.9875 10.6576ZM6.18787 17.2951V15.0451H29.8129V17.2951H6.18787ZM33.1176 33.8186H30.9379V14.4878C30.9354 14.3368 30.8739 14.1929 30.7665 14.0868C30.6592 13.9807 30.5145 13.9208 30.3636 13.9201H5.63718C5.48623 13.9208 5.34156 13.9807 5.2342 14.0868C5.12684 14.1929 5.06533 14.3368 5.06287 14.4878V33.8186H2.88318V11.456L18.0004 2.28638L33.1176 11.456V33.8186Z" fill="url(#paint0_linear_4024_1378)"/>
<path d="M26.7378 24.7404L25.2512 20.7173C25.1169 20.3552 24.8758 20.0425 24.5597 19.8205C24.2437 19.5986 23.8676 19.478 23.4815 19.4746H12.7838C12.3976 19.478 12.0216 19.5987 11.7055 19.8206C11.3895 20.0425 11.1483 20.3552 11.014 20.7173L9.54812 24.679L8.97057 25.2238C8.6919 25.4638 8.46853 25.7613 8.31584 26.0959C8.16314 26.4305 8.08475 26.7942 8.08604 27.1619V34.3675C8.08319 34.517 8.13968 34.6615 8.24314 34.7694C8.3466 34.8773 8.4886 34.9399 8.63806 34.9434H12.3917C12.4654 34.9415 12.538 34.9251 12.6053 34.8952C12.6727 34.8652 12.7335 34.8222 12.7842 34.7687C12.8349 34.7153 12.8746 34.6523 12.9009 34.5834C12.9272 34.5146 12.9397 34.4412 12.9376 34.3675V32.3418H23.0626V34.3675C23.0605 34.4412 23.073 34.5146 23.0993 34.5834C23.1256 34.6523 23.1653 34.7153 23.216 34.7687C23.2667 34.8222 23.3275 34.8652 23.3949 34.8952C23.4622 34.9251 23.5348 34.9415 23.6085 34.9434H27.3621C27.5116 34.9399 27.6536 34.8773 27.7571 34.7694C27.8605 34.6615 27.917 34.517 27.9142 34.3675V27.0102C27.9145 26.6666 27.8456 26.3265 27.7115 26.0102C27.5774 25.6939 27.3809 25.4078 27.1337 25.1692L26.7378 24.7404ZM12.0689 21.1199C12.1223 20.9716 12.219 20.8427 12.3464 20.75C12.4739 20.6572 12.6262 20.6048 12.7838 20.5996H23.4815C23.639 20.6048 23.7914 20.6572 23.9188 20.75C24.0462 20.8427 24.1429 20.9716 24.1963 21.1199L25.4278 24.4668H10.8374L12.0689 21.1199ZM11.8126 33.8184H9.21104V32.3418H11.8126V33.8184ZM24.1876 33.8184V32.3418H26.7892V33.8184H24.1876ZM26.7892 31.2168H9.21104V27.1619C9.20991 26.9555 9.25386 26.7514 9.33983 26.5637C9.42581 26.3761 9.55172 26.2095 9.70878 26.0755C9.71525 26.0701 9.71898 26.0763 9.72524 26.0705L10.2503 25.5918H25.9714L26.3287 25.9616C26.3366 25.9701 26.3395 25.9724 26.348 25.9803C26.4879 26.1128 26.5992 26.2725 26.6751 26.4497C26.7509 26.6268 26.7898 26.8175 26.7892 27.0102V31.2168Z" fill="url(#paint1_linear_4024_1378)"/>
<path d="M11.9885 26.9277H11.6641C11.2258 26.9277 10.8056 27.1018 10.4957 27.4117C10.1858 27.7216 10.0117 28.1418 10.0117 28.5801C10.0117 29.0183 10.1858 29.4386 10.4957 29.7485C10.8056 30.0583 11.2258 30.2324 11.6641 30.2324H11.9885C12.4267 30.2324 12.847 30.0583 13.1569 29.7485C13.4667 29.4386 13.6408 29.0183 13.6408 28.5801C13.6408 28.1418 13.4667 27.7216 13.1569 27.4117C12.847 27.1018 12.4267 26.9277 11.9885 26.9277ZM11.9885 29.1074H11.6641C11.5242 29.1074 11.3901 29.0519 11.2912 28.953C11.1923 28.8541 11.1367 28.7199 11.1367 28.5801C11.1367 28.4402 11.1923 28.3061 11.2912 28.2072C11.3901 28.1083 11.5242 28.0527 11.6641 28.0527H11.9885C12.1283 28.0527 12.2625 28.1083 12.3614 28.2072C12.4603 28.3061 12.5158 28.4402 12.5158 28.5801C12.5158 28.7199 12.4603 28.8541 12.3614 28.953C12.2625 29.0519 12.1283 29.1074 11.9885 29.1074ZM24.3382 26.9277H24.0138C23.5755 26.9277 23.1552 27.1018 22.8454 27.4117C22.5355 27.7216 22.3614 28.1418 22.3614 28.5801C22.3614 29.0183 22.5355 29.4386 22.8454 29.7485C23.1552 30.0583 23.5755 30.2324 24.0138 30.2324H24.3382C24.7764 30.2324 25.1967 30.0583 25.5066 29.7485C25.8164 29.4386 25.9905 29.0183 25.9905 28.5801C25.9905 28.1418 25.8164 27.7216 25.5066 27.4117C25.1967 27.1018 24.7764 26.9277 24.3382 26.9277ZM24.3382 29.1074H24.0138C23.8739 29.1074 23.7398 29.0519 23.6409 28.953C23.542 28.8541 23.4864 28.7199 23.4864 28.5801C23.4864 28.4402 23.542 28.3061 23.6409 28.2072C23.7398 28.1083 23.8739 28.0527 24.0138 28.0527H24.3382C24.478 28.0527 24.6122 28.1083 24.7111 28.2072C24.81 28.3061 24.8655 28.4402 24.8655 28.5801C24.8655 28.7199 24.81 28.8541 24.7111 28.953C24.6122 29.0519 24.478 29.1074 24.3382 29.1074ZM21.3761 27.5605C21.3761 27.4114 21.3169 27.2683 21.2114 27.1628C21.1059 27.0573 20.9628 26.998 20.8136 26.998H15.1183C14.9691 26.998 14.826 27.0573 14.7206 27.1628C14.6151 27.2683 14.5558 27.4114 14.5558 27.5605V29.6699C14.5558 29.8191 14.6151 29.9622 14.7206 30.0677C14.826 30.1732 14.9691 30.2324 15.1183 30.2324H20.8136C20.9628 30.2324 21.1059 30.1732 21.2114 30.0677C21.3169 29.9622 21.3761 29.8191 21.3761 29.6699V27.5605ZM20.3214 29.1074H15.6808V28.123H20.3214V29.1074Z" fill="url(#paint2_linear_4024_1378)"/>
<defs>
<linearGradient id="paint0_linear_4024_1378" x1="1.77129" y1="18.0056" x2="34.2561" y2="18.0056" gradientUnits="userSpaceOnUse">
<stop stop-color="#F69220"/>
<stop offset="0.2863" stop-color="#F68E20"/>
<stop offset="0.5401" stop-color="#F48421"/>
<stop offset="0.7807" stop-color="#F37221"/>
<stop offset="1" stop-color="#F05A22"/>
</linearGradient>
<linearGradient id="paint1_linear_4024_1378" x1="8.09416" y1="27.2093" x2="27.9224" y2="27.2093" gradientUnits="userSpaceOnUse">
<stop stop-color="#F69220"/>
<stop offset="0.2863" stop-color="#F68E20"/>
<stop offset="0.5401" stop-color="#F48421"/>
<stop offset="0.7807" stop-color="#F37221"/>
<stop offset="1" stop-color="#F05A22"/>
</linearGradient>
<linearGradient id="paint2_linear_4024_1378" x1="10.0183" y1="28.5801" x2="25.997" y2="28.5801" gradientUnits="userSpaceOnUse">
<stop stop-color="#F69220"/>
<stop offset="0.2863" stop-color="#F68E20"/>
<stop offset="0.5401" stop-color="#F48421"/>
<stop offset="0.7807" stop-color="#F37221"/>
<stop offset="1" stop-color="#F05A22"/>
</linearGradient>
</defs>
</svg>
