<svg width="73" height="47" viewBox="0 0 73 47" fill="none" xmlns="http://www.w3.org/2000/svg">
<path d="M51.1393 36.1685C49.3348 35.525 46.3899 35.4815 45.0846 34.9937C44.0795 34.7323 43.1305 34.29 42.284 33.6884C41.9281 32.189 41.7741 30.6487 41.826 29.1085C42.4969 28.4646 43.0407 27.7002 43.429 26.8552C43.8184 25.405 44.0767 23.9228 44.2007 22.4264C44.2007 22.4264 45.2632 22.8844 45.6823 20.7524C46.0372 18.9205 46.7128 17.9518 46.5364 16.5984C46.3601 15.2451 45.6021 15.568 45.6021 15.568C46.4242 13.6736 46.7459 11.5998 46.5364 9.54536C46.5239 8.22315 46.2395 6.91765 45.7007 5.71011C45.162 4.50257 44.3805 3.41883 43.4049 2.52633C42.4292 1.63383 41.2804 0.951674 40.0297 0.522308C38.7791 0.0929411 37.4535 -0.0744454 36.1354 0.0305657C34.8171 -0.0745103 33.4912 0.0919952 32.2399 0.519784C30.9885 0.947573 29.8381 1.62755 28.86 2.51766C27.8819 3.40777 27.0968 4.48908 26.5533 5.69472C26.0098 6.90036 25.7194 8.20469 25.7001 9.52704C25.4927 11.5797 25.8078 13.6514 26.616 15.5496C26.616 15.5496 25.8604 15.2268 25.6817 16.5801C25.5031 17.9335 26.1672 18.9159 26.5313 20.7479C26.9504 22.889 28.0129 22.4218 28.0129 22.4218C28.1382 23.9181 28.3965 25.4002 28.7846 26.8506C29.1729 27.6956 29.7167 28.46 30.3876 29.1039C30.4395 30.6442 30.2854 32.1844 29.9296 33.6839C29.0855 34.2859 28.1353 34.7233 27.129 34.9731C25.842 35.4723 22.8948 35.5364 21.0743 36.1799C18.8793 37.0026 16.9924 38.484 15.6723 40.4211C14.3522 42.3582 13.6635 44.6562 13.7006 47H58.4969C58.541 44.6554 57.8571 42.3548 56.5394 40.415C55.2217 38.4752 53.3351 36.9916 51.1393 36.1685Z" fill="url(#paint0_linear_3917_2284)"/>
<path d="M17.4724 28.327C19.3641 28.3015 21.2168 27.7855 22.8493 26.8294C20.3532 23.0464 21.7043 18.6336 21.1913 14.5117C21.1661 13.5738 20.9468 12.6514 20.5474 11.8025C20.1479 10.9536 19.5769 10.1966 18.8704 9.57938C18.1638 8.96213 17.3371 8.49794 16.4422 8.21609C15.5474 7.93424 14.6038 7.84083 13.6711 7.94176H13.607C12.6797 7.85368 11.7443 7.9566 10.8584 8.24418C9.97244 8.53175 9.15489 8.99787 8.45616 9.61376C7.75744 10.2297 7.19238 10.9822 6.79588 11.825C6.39937 12.6679 6.17984 13.583 6.15084 14.514C5.6356 18.6199 7.06683 23.5318 4.50894 26.8317C6.14648 27.7721 8.01459 28.2354 9.9018 28.169C9.99954 29.0731 9.94536 29.9872 9.7415 30.8735C9.1873 31.3351 8.52024 31.641 7.80878 31.7597C6.39754 32.065 5.0052 32.4519 3.63875 32.9184C2.54393 33.4906 1.62629 34.351 0.984974 35.4068C0.343662 36.4626 0.00306892 37.6736 0 38.9089H12.9314C14.1068 36.809 15.9079 35.128 18.0838 34.1C19.3448 33.5717 20.6946 33.2873 22.0615 33.2619C22.0615 33.2619 22.6729 32.2955 20.6601 31.9245C19.5902 31.6897 18.5524 31.3276 17.5686 30.846C17.2617 30.5025 17.4724 28.327 17.4724 28.327Z" fill="url(#paint1_linear_3917_2284)"/>
<path d="M54.8261 28.327C52.9344 28.3015 51.0817 27.7855 49.4492 26.8294C51.9453 23.0464 50.5942 18.6336 51.1072 14.5117C51.1324 13.5738 51.3516 12.6514 51.7511 11.8025C52.1506 10.9536 52.7216 10.1966 53.4281 9.57938C54.1347 8.96213 54.9614 8.49794 55.8563 8.21609C56.7511 7.93424 57.6946 7.84083 58.6274 7.94176H58.6915C59.6188 7.85368 60.5542 7.9566 61.4401 8.24418C62.326 8.53175 63.1436 8.99787 63.8423 9.61376C64.541 10.2297 65.1061 10.9822 65.5026 11.825C65.8991 12.6679 66.1186 13.583 66.1476 14.514C66.6629 18.6199 65.2316 23.5318 67.7895 26.8317C66.152 27.7721 64.2839 28.2354 62.3967 28.169C62.2989 29.0731 62.3531 29.9872 62.557 30.8735C63.1112 31.3351 63.7782 31.641 64.4897 31.7597C65.9009 32.065 67.2933 32.4519 68.6597 32.9184C69.7545 33.4906 70.6722 34.351 71.3135 35.4068C71.9548 36.4626 72.2954 37.6736 72.2985 38.9089H59.367C58.1917 36.809 56.3905 35.128 54.2146 34.1C52.9537 33.5717 51.6039 33.2873 50.237 33.2619C50.237 33.2619 49.6255 32.2955 51.6384 31.9245C52.7082 31.6897 53.7461 31.3276 54.7299 30.846C55.0367 30.5025 54.8261 28.327 54.8261 28.327Z" fill="url(#paint2_linear_3917_2284)"/>
<defs>
<linearGradient id="paint0_linear_3917_2284" x1="13.7178" y1="23.5009" x2="58.5172" y2="23.5009" gradientUnits="userSpaceOnUse">
<stop stop-color="#F69220"/>
<stop offset="0.2863" stop-color="#F68E20"/>
<stop offset="0.5401" stop-color="#F48421"/>
<stop offset="0.7807" stop-color="#F37221"/>
<stop offset="1" stop-color="#F05A22"/>
</linearGradient>
<linearGradient id="paint1_linear_3917_2284" x1="0.00947913" y1="23.4062" x2="22.8586" y2="23.4062" gradientUnits="userSpaceOnUse">
<stop stop-color="#F69220"/>
<stop offset="0.2863" stop-color="#F68E20"/>
<stop offset="0.5401" stop-color="#F48421"/>
<stop offset="0.7807" stop-color="#F37221"/>
<stop offset="1" stop-color="#F05A22"/>
</linearGradient>
<linearGradient id="paint2_linear_3917_2284" x1="49.4587" y1="23.4062" x2="72.3078" y2="23.4062" gradientUnits="userSpaceOnUse">
<stop stop-color="#F69220"/>
<stop offset="0.2863" stop-color="#F68E20"/>
<stop offset="0.5401" stop-color="#F48421"/>
<stop offset="0.7807" stop-color="#F37221"/>
<stop offset="1" stop-color="#F05A22"/>
</linearGradient>
</defs>
</svg>
