<svg width="52" height="52" viewBox="0 0 52 52" fill="none" xmlns="http://www.w3.org/2000/svg">
<path d="M38 22.0556C37.903 22.0556 37.8063 22.0274 37.7227 21.9716L33.7227 19.3049C33.5836 19.2122 33.5 19.0561 33.5 18.8889V14C33.5 13.7239 33.7238 13.5 34 13.5H38C38.2762 13.5 38.5 13.7239 38.5 14V21.5556C38.5 21.74 38.3985 21.9094 38.2359 21.9964C38.162 22.036 38.081 22.0556 38 22.0556ZM34.5 18.6213L37.5 20.6213V14.5H34.5V18.6213Z" fill="#181616"/>
<path d="M42 24.5001H10C9.77702 24.5001 9.58092 24.3523 9.51942 24.1379C9.45792 23.9235 9.54592 23.6943 9.73502 23.576L25.735 13.576C25.8973 13.4747 26.1028 13.4747 26.2651 13.576L42.2651 23.576C42.4542 23.6943 42.5422 23.9235 42.4807 24.1379C42.4191 24.3523 42.223 24.5001 42 24.5001ZM11.7434 23.5001H40.2566L26 14.5897L11.7434 23.5001Z" fill="#181616"/>
<path d="M39 46.501H13C12.7239 46.501 12.5 46.2772 12.5 46.001V24.001C12.5 23.7249 12.7239 23.501 13 23.501H39C39.2762 23.501 39.5 23.7249 39.5 24.001V46.001C39.5 46.2772 39.2762 46.501 39 46.501ZM13.5 45.501H38.5V24.501H13.5V45.501Z" fill="#181616"/>
<path d="M30 46.5H22C21.7239 46.5 21.5 46.2762 21.5 46V34C21.5 33.7238 21.7239 33.5 22 33.5H30C30.2762 33.5 30.5 33.7238 30.5 34V46C30.5 46.2762 30.2762 46.5 30 46.5ZM22.5 45.5H29.5V34.5H22.5V45.5Z" fill="#181616"/>
<path d="M42 46.5H10C9.7239 46.5 9.5 46.2762 9.5 46C9.5 45.7238 9.7239 45.5 10 45.5H42C42.2762 45.5 42.5 45.7238 42.5 46C42.5 46.2762 42.2762 46.5 42 46.5Z" fill="#181616"/>
<path d="M46 50.5H6C5.7239 50.5 5.5 50.2762 5.5 50V2C5.5 1.7239 5.7239 1.5 6 1.5H38C38.2762 1.5 38.5 1.7239 38.5 2V9.5H46C46.2762 9.5 46.5 9.7239 46.5 10V50C46.5 50.2762 46.2762 50.5 46 50.5ZM6.5 49.5H45.5V10.5H38C37.7238 10.5 37.5 10.2761 37.5 10V2.5H6.5V49.5Z" fill="#181616"/>
<path d="M45.998 10.5H37.998C37.7218 10.5 37.498 10.2761 37.498 10V2.00001C37.498 1.79781 37.6198 1.61541 37.8067 1.53801C37.9932 1.46081 38.2086 1.50331 38.3515 1.64641L46.3515 9.64641C46.4946 9.78941 46.5373 10.0045 46.4599 10.1913C46.3826 10.3782 46.2002 10.5 45.998 10.5ZM38.498 9.50001H44.7909L38.498 3.20711V9.50001Z" fill="#181616"/>
<path d="M34 6.5H10C9.7239 6.5 9.5 6.2761 9.5 6C9.5 5.7239 9.7239 5.5 10 5.5H34C34.2762 5.5 34.5 5.7239 34.5 6C34.5 6.2761 34.2762 6.5 34 6.5Z" fill="#181616"/>
<path d="M34 10.5H10C9.7239 10.5 9.5 10.2761 9.5 10C9.5 9.7239 9.7239 9.5 10 9.5H34C34.2762 9.5 34.5 9.7239 34.5 10C34.5 10.2761 34.2762 10.5 34 10.5Z" fill="#181616"/>
<path d="M20 14.5H10C9.7239 14.5 9.5 14.2761 9.5 14C9.5 13.7239 9.7239 13.5 10 13.5H20C20.2761 13.5 20.5 13.7239 20.5 14C20.5 14.2761 20.2761 14.5 20 14.5Z" fill="#181616"/>
<path d="M14 18.499H10C9.7239 18.499 9.5 18.2751 9.5 17.999C9.5 17.7229 9.7239 17.499 10 17.499H14C14.2761 17.499 14.5 17.7229 14.5 17.999C14.5 18.2751 14.2761 18.499 14 18.499Z" fill="#181616"/>
</svg>
