<svg width="40" height="40" viewBox="0 0 40 40" fill="none" xmlns="http://www.w3.org/2000/svg">
<path d="M33.0742 10.6414C32.9996 10.6414 32.9252 10.6198 32.8609 10.5768L28.2455 7.49991C28.1385 7.4286 28.0742 7.30853 28.0742 7.17991V1.53891C28.0742 1.32653 28.2464 1.1543 28.4588 1.1543H33.0742C33.2867 1.1543 33.4588 1.32653 33.4588 1.53891V10.2568C33.4588 10.3987 33.3808 10.529 33.2557 10.5959C33.1988 10.6264 33.1365 10.6414 33.0742 10.6414ZM28.8434 6.97414L32.6896 9.53822V1.92353H28.8434V6.97414Z" fill="white"/>
<path d="M38.4601 14.2312H1.53701C1.36755 14.2312 1.21801 14.1203 1.16886 13.9581C1.11978 13.7959 1.18263 13.6206 1.32363 13.5266L19.7852 1.21891C19.9144 1.13276 20.0826 1.13276 20.2119 1.21891L38.6734 13.5266C38.8144 13.6206 38.8772 13.7958 38.8282 13.9581C38.7791 14.1203 38.6296 14.2312 38.4601 14.2312ZM2.80732 13.462H37.1898L19.9986 2.00114L2.80732 13.462Z" fill="white"/>
<path d="M35.3843 38.8456H4.61508C4.4027 38.8456 4.23047 38.6734 4.23047 38.4609V13.8456C4.23047 13.6332 4.4027 13.4609 4.61508 13.4609H35.3843C35.5968 13.4609 35.7689 13.6332 35.7689 13.8456V38.4609C35.7689 38.6734 35.5968 38.8456 35.3843 38.8456ZM4.9997 38.0763H34.9997V14.2302H4.9997V38.0763Z" fill="white"/>
<path d="M19.997 11.1541C18.5125 11.1541 17.3047 9.94638 17.3047 8.46184C17.3047 6.9773 18.5125 5.76953 19.997 5.76953C21.4815 5.76953 22.6893 6.9773 22.6893 8.46184C22.6893 9.94638 21.4815 11.1541 19.997 11.1541ZM19.997 6.53876C18.9366 6.53876 18.0739 7.40145 18.0739 8.46184C18.0739 9.52222 18.9366 10.3849 19.997 10.3849C21.0574 10.3849 21.9201 9.52222 21.9201 8.46184C21.9201 7.40145 21.0574 6.53876 19.997 6.53876Z" fill="white"/>
<path d="M19.9997 35.7698C19.8749 35.7698 19.7577 35.7092 19.6856 35.6073C19.4629 35.2922 14.2305 27.8286 14.2305 22.3083C14.2305 19.1271 16.8185 16.5391 19.9997 16.5391C23.1809 16.5391 25.7689 19.1271 25.7689 22.3083C25.7689 27.8286 20.5365 35.2922 20.3138 35.6073C20.2417 35.7092 20.1245 35.7698 19.9997 35.7698ZM19.9997 17.3083C17.2427 17.3083 14.9997 19.5513 14.9997 22.3083C14.9997 26.8285 18.858 32.9793 19.9996 34.6999C21.1412 32.9786 24.9997 26.8259 24.9997 22.3083C24.9997 19.5513 22.7567 17.3083 19.9997 17.3083Z" fill="white"/>
<path d="M19.997 24.9999C18.5125 24.9999 17.3047 23.7921 17.3047 22.3075C17.3047 20.823 18.5125 19.6152 19.997 19.6152C21.4815 19.6152 22.6893 20.823 22.6893 22.3075C22.6893 23.7921 21.4815 24.9999 19.997 24.9999ZM19.997 20.3845C18.9366 20.3845 18.0739 21.2472 18.0739 22.3075C18.0739 23.3679 18.9366 24.2306 19.997 24.2306C21.0574 24.2306 21.9201 23.3679 21.9201 22.3075C21.9201 21.2472 21.0574 20.3845 19.997 20.3845Z" fill="white"/>
</svg>
