<svg width="52" height="52" viewBox="0 0 52 52" fill="none" xmlns="http://www.w3.org/2000/svg">
<path d="M43 13.8333C42.903 13.8333 42.8063 13.8051 42.7227 13.7493L36.7227 9.7493C36.5836 9.6566 36.5 9.5005 36.5 9.3333V2C36.5 1.7239 36.7238 1.5 37 1.5H43C43.2762 1.5 43.5 1.7239 43.5 2V13.3333C43.5 13.5177 43.3985 13.6871 43.2359 13.7741C43.162 13.8138 43.081 13.8333 43 13.8333ZM37.5 9.0658L42.5 12.3991V2.5H37.5V9.0658Z" fill="#181616"/>
<path d="M26 14.5C24.0701 14.5 22.5 12.9299 22.5 11C22.5 9.0701 24.0701 7.5 26 7.5C27.9299 7.5 29.5 9.0701 29.5 11C29.5 12.9299 27.9299 14.5 26 14.5ZM26 8.5C24.6215 8.5 23.5 9.6215 23.5 11C23.5 12.3785 24.6215 13.5 26 13.5C27.3785 13.5 28.5 12.3785 28.5 11C28.5 9.6215 27.3785 8.5 26 8.5Z" fill="#181616"/>
<path d="M20 50.5H10C9.7239 50.5 9.5 50.2762 9.5 50V36C9.5 35.7238 9.7239 35.5 10 35.5H20C20.2761 35.5 20.5 35.7238 20.5 36V50C20.5 50.2762 20.2761 50.5 20 50.5ZM10.5 49.5H19.5V36.5H10.5V49.5Z" fill="#181616"/>
<path d="M26 32.5C19.5514 32.5 14.5 30.0841 14.5 27C14.5 23.9159 19.5514 21.5 26 21.5C32.4486 21.5 37.5 23.9159 37.5 27C37.5 30.0841 32.4486 32.5 26 32.5ZM26 22.5C20.3084 22.5 15.5 24.5607 15.5 27C15.5 29.4393 20.3084 31.5 26 31.5C31.6916 31.5 36.5 29.4393 36.5 27C36.5 24.5607 31.6916 22.5 26 22.5Z" fill="#181616"/>
<path d="M5.34377 18.5001H2.00007C1.77977 18.5001 1.58537 18.3559 1.52147 18.145C1.45767 17.9342 1.53937 17.7063 1.72267 17.5841L3.72807 16.2471C3.94277 16.1039 4.23117 16.1476 4.39387 16.3483C4.76927 16.8114 5.19467 17.2364 5.65817 17.6114C5.82287 17.7447 5.88567 17.9672 5.81497 18.1669C5.74437 18.3666 5.55557 18.5001 5.34377 18.5001ZM3.65147 17.5001H4.07277C4.01877 17.4426 3.96557 17.3845 3.91307 17.3257L3.65147 17.5001Z" fill="#181616"/>
<path d="M50 18.5H16.6562C16.4443 18.5 16.2555 18.3665 16.1849 18.1668C16.1142 17.9671 16.177 17.7445 16.3417 17.6113C18.3488 15.9875 19.4999 13.5777 19.4999 11C19.4999 9.5889 19.147 8.1914 18.4795 6.9586C18.3565 6.7314 18.4268 6.4478 18.6418 6.3045L25.7226 1.584C25.8906 1.472 26.1093 1.472 26.2773 1.584L50.2774 17.584C50.4607 17.7062 50.5424 17.934 50.4786 18.1449C50.4146 18.3558 50.2203 18.5 50 18.5ZM17.9287 17.5H48.3487L25.9999 2.6009L19.5666 6.8897C20.1783 8.165 20.4999 9.5765 20.4999 11C20.4999 13.4418 19.5758 15.7486 17.9287 17.5Z" fill="#181616"/>
<path d="M46 50.499H6C5.7239 50.499 5.5 50.2752 5.5 49.999V18.483C5.5 18.2984 5.6017 18.1289 5.7645 18.0419C5.9274 17.955 6.1249 17.9648 6.2781 18.0675C7.6771 19.004 9.3099 19.499 11 19.499C12.9393 19.499 14.8364 18.8282 16.3418 17.6103C16.4308 17.5383 16.5418 17.499 16.6563 17.499H46C46.2762 17.499 46.5 17.7229 46.5 17.999V49.999C46.5 50.2752 46.2762 50.499 46 50.499ZM6.5 49.499H45.5V18.499H16.8306C15.171 19.79 13.1077 20.499 11 20.499C9.4164 20.499 7.8777 20.1101 6.5 19.3673V49.499Z" fill="#181616"/>
<path d="M11 20.5C5.7617 20.5 1.5 16.2383 1.5 11C1.5 5.7617 5.7617 1.5 11 1.5C16.2383 1.5 20.5 5.7617 20.5 11C20.5 16.2383 16.2383 20.5 11 20.5ZM11 2.5C6.3131 2.5 2.5 6.3131 2.5 11C2.5 15.6869 6.3131 19.5 11 19.5C15.6869 19.5 19.5 15.6869 19.5 11C19.5 6.3131 15.6869 2.5 11 2.5Z" fill="#181616"/>
<path d="M8.00008 14.4999C7.87208 14.4999 7.74417 14.4511 7.64647 14.3535L6.64647 13.3535C6.45118 13.1582 6.45118 12.8416 6.64647 12.6464C6.84177 12.4512 7.15828 12.4512 7.35358 12.6464L8.00008 13.2928L13.6465 7.6464C13.8418 7.4512 14.1583 7.4512 14.3536 7.6464C14.5489 7.8417 14.5489 8.1583 14.3536 8.3535L8.35358 14.3535C8.25598 14.4511 8.12808 14.4999 8.00008 14.4999Z" fill="#181616"/>
</svg>
