<svg width="65" height="65" viewBox="0 0 65 65" fill="none" xmlns="http://www.w3.org/2000/svg">
<path d="M53.75 17.2916C53.6287 17.2916 53.5079 17.2564 53.4034 17.1866L45.9034 12.1866C45.7295 12.0707 45.625 11.8756 45.625 11.6666V2.5C45.625 2.15487 45.9047 1.875 46.25 1.875H53.75C54.0952 1.875 54.375 2.15487 54.375 2.5V16.6666C54.375 16.8971 54.2481 17.1089 54.0449 17.2176C53.9525 17.2672 53.8512 17.2916 53.75 17.2916ZM46.875 11.3322L53.125 15.4989V3.125H46.875V11.3322Z" fill="white"/>
<path d="M32.5 18.125C30.0876 18.125 28.125 16.1624 28.125 13.75C28.125 11.3376 30.0876 9.375 32.5 9.375C34.9124 9.375 36.875 11.3376 36.875 13.75C36.875 16.1624 34.9124 18.125 32.5 18.125ZM32.5 10.625C30.7769 10.625 29.375 12.0269 29.375 13.75C29.375 15.4731 30.7769 16.875 32.5 16.875C34.2231 16.875 35.625 15.4731 35.625 13.75C35.625 12.0269 34.2231 10.625 32.5 10.625Z" fill="white"/>
<path d="M25 63.125H12.5C12.1549 63.125 11.875 62.8452 11.875 62.5V45C11.875 44.6547 12.1549 44.375 12.5 44.375H25C25.3451 44.375 25.625 44.6547 25.625 45V62.5C25.625 62.8452 25.3451 63.125 25 63.125ZM13.125 61.875H24.375V45.625H13.125V61.875Z" fill="white"/>
<path d="M32.5 40.625C24.4393 40.625 18.125 37.6051 18.125 33.75C18.125 29.8949 24.4393 26.875 32.5 26.875C40.5608 26.875 46.875 29.8949 46.875 33.75C46.875 37.6051 40.5608 40.625 32.5 40.625ZM32.5 28.125C25.3855 28.125 19.375 30.7009 19.375 33.75C19.375 36.7991 25.3855 39.375 32.5 39.375C39.6145 39.375 45.625 36.7991 45.625 33.75C45.625 30.7009 39.6145 28.125 32.5 28.125Z" fill="white"/>
<path d="M6.67971 23.1254H2.50009C2.22471 23.1254 1.98171 22.9452 1.90184 22.6815C1.82209 22.418 1.92421 22.1332 2.15334 21.9804L4.66009 20.3092C4.92846 20.1302 5.28896 20.1848 5.49234 20.4357C5.96159 21.0145 6.49334 21.5458 7.07271 22.0145C7.27859 22.1812 7.35709 22.4593 7.26871 22.7089C7.18046 22.9585 6.94446 23.1254 6.67971 23.1254ZM4.56434 21.8754H5.09096C5.02346 21.8035 4.95696 21.7309 4.89134 21.6574L4.56434 21.8754Z" fill="white"/>
<path d="M62.4999 23.125H20.8203C20.5554 23.125 20.3194 22.9581 20.2312 22.7085C20.1428 22.4589 20.2213 22.1806 20.4272 22.0141C22.9361 19.9844 24.3749 16.9721 24.3749 13.75C24.3749 11.9861 23.9338 10.2393 23.0994 8.69825C22.9457 8.41425 23.0336 8.05975 23.3023 7.88062L32.1533 1.98C32.3633 1.84 32.6367 1.84 32.8467 1.98L62.8467 21.98C63.0758 22.1327 63.1779 22.4175 63.0982 22.6811C63.0182 22.9447 62.7753 23.125 62.4999 23.125ZM22.4109 21.875H60.4358L32.4999 3.25113L24.4583 8.61213C25.2229 10.2063 25.6249 11.9706 25.6249 13.75C25.6249 16.8022 24.4698 19.6857 22.4109 21.875Z" fill="white"/>
<path d="M57.5 63.125H7.5C7.15487 63.125 6.875 62.8453 6.875 62.5V23.105C6.875 22.8742 7.00213 22.6624 7.20563 22.5536C7.40925 22.445 7.65612 22.4572 7.84762 22.5856C9.59637 23.7563 11.6374 24.375 13.75 24.375C16.1741 24.375 18.5455 23.5365 20.4272 22.0141C20.5385 21.9241 20.6772 21.875 20.8204 21.875H57.5C57.8452 21.875 58.125 22.1549 58.125 22.5V62.5C58.125 62.8453 57.8452 63.125 57.5 63.125ZM8.125 61.875H56.875V23.125H21.0382C18.9637 24.7388 16.3846 25.625 13.75 25.625C11.7705 25.625 9.84712 25.1389 8.125 24.2104V61.875Z" fill="white"/>
<path d="M13.75 25.625C7.20213 25.625 1.875 20.2979 1.875 13.75C1.875 7.20213 7.20213 1.875 13.75 1.875C20.2979 1.875 25.625 7.20213 25.625 13.75C25.625 20.2979 20.2979 25.625 13.75 25.625ZM13.75 3.125C7.89138 3.125 3.125 7.89138 3.125 13.75C3.125 19.6086 7.89138 24.375 13.75 24.375C19.6086 24.375 24.375 19.6086 24.375 13.75C24.375 7.89138 19.6086 3.125 13.75 3.125Z" fill="white"/>
<path d="M10.0001 18.1249C9.84009 18.1249 9.68022 18.0639 9.55809 17.9419L8.30809 16.6919C8.06397 16.4477 8.06397 16.052 8.30809 15.808C8.55222 15.564 8.94784 15.564 9.19197 15.808L10.0001 16.616L17.0581 9.558C17.3022 9.314 17.6978 9.314 17.942 9.558C18.1861 9.80212 18.1861 10.1979 17.942 10.4419L10.442 17.9419C10.32 18.0639 10.1601 18.1249 10.0001 18.1249Z" fill="white"/>
</svg>
