<svg width="40" height="40" viewBox="0 0 40 40" fill="none" xmlns="http://www.w3.org/2000/svg">
<path d="M9.22927 11.1543H1.53696C1.32457 11.1543 1.15234 10.9821 1.15234 10.7697V5.38507C1.15234 3.05222 3.05027 1.1543 5.38311 1.1543C7.71596 1.1543 9.61388 3.05222 9.61388 5.38507V10.7697C9.61388 10.9821 9.44165 11.1543 9.22927 11.1543ZM1.92157 10.3851H8.84465V5.38507C8.84465 3.47637 7.2918 1.92353 5.38311 1.92353C3.47442 1.92353 1.92157 3.47637 1.92157 5.38507V10.3851Z" fill="white"/>
<path d="M35.3834 4.9997H12.3065C12.0941 4.9997 11.9219 4.82747 11.9219 4.61508C11.9219 4.4027 12.0941 4.23047 12.3065 4.23047H35.3834C35.5959 4.23047 35.768 4.4027 35.768 4.61508C35.768 4.82747 35.5959 4.9997 35.3834 4.9997Z" fill="white"/>
<path d="M35.3834 8.07782H12.3065C12.0941 8.07782 11.9219 7.90559 11.9219 7.69321C11.9219 7.48082 12.0941 7.30859 12.3065 7.30859H35.3834C35.5959 7.30859 35.768 7.48082 35.768 7.69321C35.768 7.90559 35.5959 8.07782 35.3834 8.07782Z" fill="white"/>
<path d="M35.3834 11.154H12.3065C12.0941 11.154 11.9219 10.9818 11.9219 10.7694C11.9219 10.557 12.0941 10.3848 12.3065 10.3848H35.3834C35.5959 10.3848 35.768 10.557 35.768 10.7694C35.768 10.9818 35.5959 11.154 35.3834 11.154Z" fill="white"/>
<path d="M35.3825 14.2302H19.9979C19.7854 14.2302 19.6133 14.0579 19.6133 13.8456C19.6133 13.6332 19.7854 13.4609 19.9979 13.4609H35.3825C35.595 13.4609 35.7671 13.6332 35.7671 13.8456C35.7671 14.0579 35.595 14.2302 35.3825 14.2302Z" fill="white"/>
<path d="M35.3837 17.3083H23.076C22.8636 17.3083 22.6914 17.1361 22.6914 16.9237C22.6914 16.7113 22.8636 16.5391 23.076 16.5391H35.3837C35.5962 16.5391 35.7683 16.7113 35.7683 16.9237C35.7683 17.1361 35.5962 17.3083 35.3837 17.3083Z" fill="white"/>
<path d="M35.3846 20.3845H25.3846C25.1722 20.3845 25 20.2123 25 19.9998C25 19.7874 25.1722 19.6152 25.3846 19.6152H35.3846C35.5971 19.6152 35.7692 19.7874 35.7692 19.9998C35.7692 20.2123 35.5971 20.3845 35.3846 20.3845Z" fill="white"/>
<path d="M35.3849 23.4626H26.1541C25.9417 23.4626 25.7695 23.2904 25.7695 23.078C25.7695 22.8655 25.9417 22.6934 26.1541 22.6934H35.3849C35.5974 22.6934 35.7695 22.8655 35.7695 23.078C35.7695 23.2904 35.5974 23.4626 35.3849 23.4626Z" fill="white"/>
<path d="M35.3849 26.5388H26.1541C25.9417 26.5388 25.7695 26.3666 25.7695 26.1541C25.7695 25.9417 25.9417 25.7695 26.1541 25.7695H35.3849C35.5974 25.7695 35.7695 25.9417 35.7695 26.1541C35.7695 26.3666 35.5974 26.5388 35.3849 26.5388Z" fill="white"/>
<path d="M35.3846 29.6169H25.3846C25.1722 29.6169 25 29.4447 25 29.2323C25 29.0198 25.1722 28.8477 25.3846 28.8477H35.3846C35.5971 28.8477 35.7692 29.0198 35.7692 29.2323C35.7692 29.4447 35.5971 29.6169 35.3846 29.6169Z" fill="white"/>
<path d="M35.3837 32.6931H23.076C22.8636 32.6931 22.6914 32.5209 22.6914 32.3084C22.6914 32.096 22.8636 31.9238 23.076 31.9238H35.3837C35.5962 31.9238 35.7683 32.096 35.7683 32.3084C35.7683 32.5209 35.5962 32.6931 35.3837 32.6931Z" fill="white"/>
<path d="M35.3825 35.7692H19.9979C19.7854 35.7692 19.6133 35.5971 19.6133 35.3846C19.6133 35.1722 19.7854 35 19.9979 35H35.3825C35.595 35 35.7671 35.1722 35.7671 35.3846C35.7671 35.5971 35.595 35.7692 35.3825 35.7692Z" fill="white"/>
<path d="M38.4615 38.8466H9.23077C9.01838 38.8466 8.84615 38.6744 8.84615 38.462V34.9382C8.84615 34.8168 8.90354 34.7025 9.00085 34.6299C9.09815 34.5573 9.224 34.5348 9.34046 34.5696C10.3011 34.8554 11.2994 35.0005 12.3077 35.0005C18.0338 35.0005 22.6923 30.3419 22.6923 24.6158C22.6923 18.8898 18.0338 14.2312 12.3077 14.2312C11.2994 14.2312 10.3011 14.3761 9.34046 14.6621C9.224 14.6967 9.09815 14.6743 9.00085 14.6018C8.90346 14.5291 8.84615 14.4148 8.84615 14.2935V5.38507C8.84615 3.47637 7.29331 1.92353 5.38462 1.92353C5.17223 1.92353 5 1.7513 5 1.53891C5 1.32653 5.17223 1.1543 5.38462 1.1543H34.6154C36.9482 1.1543 38.8462 3.05222 38.8462 5.38507V38.462C38.8462 38.6744 38.674 38.8466 38.4615 38.8466ZM9.61538 38.0774H38.0769V5.38507C38.0769 3.47637 36.5241 1.92353 34.6154 1.92353H7.81462C8.903 2.68984 9.61538 3.95576 9.61538 5.38507V13.79C10.4935 13.5721 11.3969 13.462 12.3077 13.462C18.4579 13.462 23.4615 18.4656 23.4615 24.6158C23.4615 30.7661 18.4579 35.7697 12.3077 35.7697C11.3969 35.7697 10.4935 35.6594 9.61538 35.4417V38.0774Z" fill="white"/>
<path d="M12.3062 35.7706C11.2235 35.7706 10.1513 35.6149 9.11957 35.3077C6.86442 34.6364 4.83611 33.2284 3.40842 31.343C1.9325 29.394 1.15234 27.068 1.15234 24.6167C1.15234 22.1654 1.9325 19.8395 3.40842 17.8905C4.83619 16.005 6.86442 14.597 9.11957 13.9257C10.1513 13.6186 11.2235 13.4629 12.3062 13.4629C18.4564 13.4629 23.46 18.4665 23.46 24.6167C23.46 30.767 18.4564 35.7706 12.3062 35.7706ZM12.3062 14.2321C11.2979 14.2321 10.2996 14.377 9.33896 14.663C4.97173 15.9629 1.92157 20.056 1.92157 24.6167C1.92157 29.1774 4.97173 33.2706 9.33896 34.5705C10.2996 34.8563 11.2979 35.0014 12.3062 35.0014C18.0323 35.0014 22.6908 30.3428 22.6908 24.6167C22.6908 18.8907 18.0323 14.2321 12.3062 14.2321Z" fill="white"/>
<path d="M12.3053 25.0012C10.3966 25.0012 8.84375 23.4484 8.84375 21.5397C8.84375 19.631 10.3966 18.0781 12.3053 18.0781C14.214 18.0781 15.7668 19.631 15.7668 21.5397C15.7668 21.7521 15.5946 21.9243 15.3822 21.9243C15.1698 21.9243 14.9976 21.7521 14.9976 21.5397C14.9976 20.0551 13.7898 18.8474 12.3053 18.8474C10.8208 18.8474 9.61298 20.0551 9.61298 21.5397C9.61298 23.0242 10.8208 24.232 12.3053 24.232C12.5177 24.232 12.6899 24.4041 12.6899 24.6166C12.6899 24.829 12.5177 25.0012 12.3053 25.0012Z" fill="white"/>
<path d="M12.3053 31.1535C10.3966 31.1535 8.84375 29.6007 8.84375 27.692C8.84375 27.4795 9.01598 27.3074 9.22837 27.3074C9.44075 27.3074 9.61298 27.4795 9.61298 27.692C9.61298 29.1765 10.8208 30.3843 12.3053 30.3843C13.7898 30.3843 14.9976 29.1765 14.9976 27.692C14.9976 26.2075 13.7898 24.9997 12.3053 24.9997C12.0929 24.9997 11.9207 24.8275 11.9207 24.6151C11.9207 24.4026 12.0929 24.2305 12.3053 24.2305C14.214 24.2305 15.7668 25.7833 15.7668 27.692C15.7668 29.6007 14.214 31.1535 12.3053 31.1535Z" fill="white"/>
<path d="M12.3065 32.6929C12.0941 32.6929 11.9219 32.5208 11.9219 32.3083V16.9237C11.9219 16.7113 12.0941 16.5391 12.3065 16.5391C12.5189 16.5391 12.6911 16.7113 12.6911 16.9237V32.3083C12.6911 32.5208 12.5189 32.6929 12.3065 32.6929Z" fill="white"/>
</svg>
