<svg width="45" height="45" viewBox="0 0 45 45" fill="none" xmlns="http://www.w3.org/2000/svg">
<rect width="45" height="45" fill="white"/>
<path d="M43.268 43.7013H1.72957C1.49063 43.7013 1.29688 43.5076 1.29688 43.2686C1.29688 43.0296 1.49063 42.8359 1.72957 42.8359H43.268C43.507 42.8359 43.7007 43.0296 43.7007 43.2686C43.7007 43.5076 43.507 43.7013 43.268 43.7013Z" fill="#181616"/>
<path d="M40.6734 43.7019H4.32722C4.08829 43.7019 3.89453 43.5083 3.89453 43.2692V39.8077C3.89453 39.5687 4.08829 39.375 4.32722 39.375H40.6734C40.9124 39.375 41.1061 39.5687 41.1061 39.8077V43.2692C41.1061 43.5083 40.9124 43.7019 40.6734 43.7019ZM4.75992 42.8365H40.2407V40.2404H4.75992V42.8365Z" fill="#181616"/>
<path d="M38.0748 40.241H6.92097C6.68204 40.241 6.48828 40.0473 6.48828 39.8083V36.3468C6.48828 36.1077 6.68204 35.9141 6.92097 35.9141H38.0748C38.3138 35.9141 38.5075 36.1077 38.5075 36.3468V39.8083C38.5075 40.0473 38.3138 40.241 38.0748 40.241ZM7.35367 39.3756H37.6421V36.7794H7.35367V39.3756Z" fill="#181616"/>
<path d="M13.8434 33.317H10.3819C10.143 33.317 9.94922 33.1233 9.94922 32.8843V19.0382C9.94922 18.7992 10.143 18.6055 10.3819 18.6055H13.8434C14.0824 18.6055 14.2761 18.7992 14.2761 19.0382V32.8843C14.2761 33.1233 14.0824 33.317 13.8434 33.317ZM10.8146 32.4516H13.4108V19.4709H10.8146V32.4516Z" fill="#181616"/>
<path d="M24.2302 33.317H20.7686C20.5297 33.317 20.3359 33.1233 20.3359 32.8843V19.0382C20.3359 18.7992 20.5297 18.6055 20.7686 18.6055H24.2302C24.4692 18.6055 24.6629 18.7992 24.6629 19.0382V32.8843C24.6629 33.1233 24.4692 33.317 24.2302 33.317ZM21.2013 32.4516H23.7975V19.4709H21.2013V32.4516Z" fill="#181616"/>
<path d="M34.613 33.317H31.1514C30.9124 33.317 30.7188 33.1233 30.7188 32.8843V19.0382C30.7188 18.7992 30.9124 18.6055 31.1514 18.6055H34.613C34.852 18.6055 35.0457 18.7992 35.0457 19.0382V32.8843C35.0457 33.1233 34.852 33.317 34.613 33.317ZM31.5841 32.4516H34.1803V19.4709H31.5841V32.4516Z" fill="#181616"/>
<path d="M38.9405 16.0066H5.1905C4.95157 16.0066 4.75781 15.8129 4.75781 15.5739V12.1124C4.75781 11.8734 4.95157 11.6797 5.1905 11.6797H38.9405C39.1795 11.6797 39.3732 11.8734 39.3732 12.1124V15.5739C39.3732 15.8129 39.1795 16.0066 38.9405 16.0066ZM5.6232 15.1412H38.5078V12.5451H5.6232V15.1412Z" fill="#181616"/>
<path d="M36.3455 12.5469C36.345 12.5468 36.3443 12.5469 36.3437 12.5469H8.65144C8.41251 12.5469 8.21875 12.3531 8.21875 12.1142C8.21875 6.14952 13.0714 1.29688 19.0361 1.29688H25.9591C31.9106 1.29688 36.7552 6.12771 36.7764 12.0745C36.7776 12.0875 36.7782 12.1009 36.7782 12.1142C36.7782 12.3531 36.5844 12.5469 36.3455 12.5469ZM9.09339 11.6815H35.9017C35.6744 6.39399 31.3016 2.16226 25.9591 2.16226H19.0361C13.6936 2.16226 9.32082 6.39399 9.09339 11.6815Z" fill="#181616"/>
<path d="M15.5745 19.4715H8.65144C8.41251 19.4715 8.21875 19.2777 8.21875 19.0388V15.5772C8.21875 15.3383 8.41251 15.1445 8.65144 15.1445H15.5745C15.8135 15.1445 16.0072 15.3383 16.0072 15.5772V19.0388C16.0072 19.2777 15.8135 19.4715 15.5745 19.4715ZM9.08413 18.6061H15.1418V16.0099H9.08413V18.6061Z" fill="#181616"/>
<path d="M25.9612 19.4715H19.0382C18.7992 19.4715 18.6055 19.2777 18.6055 19.0388V15.5772C18.6055 15.3383 18.7992 15.1445 19.0382 15.1445H25.9612C26.2003 15.1445 26.3939 15.3383 26.3939 15.5772V19.0388C26.3939 19.2777 26.2003 19.4715 25.9612 19.4715ZM19.4709 18.6061H25.5285V16.0099H19.4709V18.6061Z" fill="#181616"/>
<path d="M36.3441 19.4715H29.421C29.182 19.4715 28.9883 19.2777 28.9883 19.0388V15.5772C28.9883 15.3383 29.182 15.1445 29.421 15.1445H36.3441C36.5831 15.1445 36.7767 15.3383 36.7767 15.5772V19.0388C36.7767 19.2777 36.5831 19.4715 36.3441 19.4715ZM29.8537 18.6061H35.9114V16.0099H29.8537V18.6061Z" fill="#181616"/>
<path d="M15.5745 36.7761H8.65144C8.41251 36.7761 8.21875 36.5825 8.21875 36.3434V32.8819C8.21875 32.6429 8.41251 32.4492 8.65144 32.4492H15.5745C15.8135 32.4492 16.0072 32.6429 16.0072 32.8819V36.3434C16.0072 36.5825 15.8135 36.7761 15.5745 36.7761ZM9.08413 35.9108H15.1418V33.3146H9.08413V35.9108Z" fill="#181616"/>
<path d="M25.9612 36.7761H19.0382C18.7992 36.7761 18.6055 36.5825 18.6055 36.3434V32.8819C18.6055 32.6429 18.7992 32.4492 19.0382 32.4492H25.9612C26.2003 32.4492 26.3939 32.6429 26.3939 32.8819V36.3434C26.3939 36.5825 26.2003 36.7761 25.9612 36.7761ZM19.4709 35.9108H25.5285V33.3146H19.4709V35.9108Z" fill="#181616"/>
<path d="M36.3441 36.7761H29.421C29.182 36.7761 28.9883 36.5825 28.9883 36.3434V32.8819C28.9883 32.6429 29.182 32.4492 29.421 32.4492H36.3441C36.5831 32.4492 36.7767 32.6429 36.7767 32.8819V36.3434C36.7767 36.5825 36.5831 36.7761 36.3441 36.7761ZM29.8537 35.9108H35.9114V33.3146H29.8537V35.9108Z" fill="#181616"/>
</svg>
