<svg width="45" height="45" viewBox="0 0 45 45" fill="none" xmlns="http://www.w3.org/2000/svg">
<rect width="45" height="45" fill="white"/>
<path d="M37.2109 11.9699C37.127 11.9699 37.0433 11.9455 36.971 11.8972L31.7787 8.43569C31.6583 8.35547 31.5859 8.22038 31.5859 8.07569V1.72957C31.5859 1.49063 31.7796 1.29688 32.0186 1.29688H37.2109C37.45 1.29688 37.6436 1.49063 37.6436 1.72957V11.5372C37.6436 11.6968 37.5558 11.8434 37.4151 11.9187C37.3511 11.953 37.281 11.9699 37.2109 11.9699ZM32.4513 7.8442L36.7782 10.7288V2.16226H32.4513V7.8442Z" fill="#181616"/>
<path d="M43.2681 16.0084H1.72963C1.53898 16.0084 1.37075 15.8836 1.31545 15.7011C1.26024 15.5187 1.33094 15.3215 1.48957 15.2157L22.2588 1.36957C22.4042 1.27264 22.5934 1.27264 22.7388 1.36957L43.5081 15.2157C43.6667 15.3215 43.7374 15.5186 43.6822 15.7011C43.627 15.8836 43.4587 16.0084 43.2681 16.0084ZM3.15872 15.143H41.839L22.4989 2.24958L3.15872 15.143Z" fill="#181616"/>
<path d="M39.8059 43.7022H5.1905C4.95157 43.7022 4.75781 43.5086 4.75781 43.2695V15.5772C4.75781 15.3383 4.95157 15.1445 5.1905 15.1445H39.8059C40.0449 15.1445 40.2386 15.3383 40.2386 15.5772V43.2695C40.2386 43.5086 40.0449 43.7022 39.8059 43.7022ZM5.6232 42.8368H39.3732V16.0099H5.6232V42.8368Z" fill="#181616"/>
<path d="M22.4976 12.546C20.8275 12.546 19.4688 11.1872 19.4688 9.51713C19.4688 7.84702 20.8275 6.48828 22.4976 6.48828C24.1677 6.48828 25.5264 7.84702 25.5264 9.51713C25.5264 11.1872 24.1677 12.546 22.4976 12.546ZM22.4976 7.35367C21.3047 7.35367 20.3341 8.32419 20.3341 9.51713C20.3341 10.7101 21.3047 11.6806 22.4976 11.6806C23.6905 11.6806 24.6611 10.7101 24.6611 9.51713C24.6611 8.32419 23.6905 7.35367 22.4976 7.35367Z" fill="#181616"/>
<path d="M13.8434 31.5853C11.6962 31.5853 9.94922 29.8384 9.94922 27.6911C9.94922 25.5438 11.6962 23.7969 13.8434 23.7969C15.9907 23.7969 17.7377 25.5438 17.7377 27.6911C17.7377 29.8384 15.9907 31.5853 13.8434 31.5853ZM13.8434 24.6623C12.1733 24.6623 10.8146 26.021 10.8146 27.6911C10.8146 29.3612 12.1733 30.72 13.8434 30.72C15.5136 30.72 16.8723 29.3612 16.8723 27.6911C16.8723 26.021 15.5136 24.6623 13.8434 24.6623Z" fill="#181616"/>
<path d="M30.2888 31.5853C28.1415 31.5853 26.3945 29.8384 26.3945 27.6911C26.3945 25.5438 28.1415 23.7969 30.2888 23.7969C32.436 23.7969 34.183 25.5438 34.183 27.6911C34.183 29.8384 32.436 31.5853 30.2888 31.5853ZM30.2888 24.6623C28.6187 24.6623 27.2599 26.021 27.2599 27.6911C27.2599 29.3612 28.6187 30.72 30.2888 30.72C31.9589 30.72 33.3176 29.3612 33.3176 27.6911C33.3176 26.021 31.9589 24.6623 30.2888 24.6623Z" fill="#181616"/>
<path d="M35.4814 40.238H25.0968C24.8577 40.238 24.6641 40.0443 24.6641 39.8053V36.3438C24.6641 33.2421 27.1874 30.7188 30.2891 30.7188C33.3907 30.7188 35.9141 33.2421 35.9141 36.3438V39.8053C35.9141 40.0443 35.7204 40.238 35.4814 40.238ZM25.5294 39.3726H35.0487V36.3438C35.0487 33.7193 32.9135 31.5841 30.2891 31.5841C27.6646 31.5841 25.5294 33.7193 25.5294 36.3438V39.3726Z" fill="#181616"/>
<path d="M19.0361 40.238H8.65144C8.41251 40.238 8.21875 40.0443 8.21875 39.8053V36.3438C8.21875 33.2421 10.7421 30.7188 13.8438 30.7188C16.9454 30.7188 19.4688 33.2421 19.4688 36.3438V39.8053C19.4688 40.0443 19.275 40.238 19.0361 40.238ZM9.08413 39.3726H18.6034V36.3438C18.6034 33.7193 16.4682 31.5841 13.8438 31.5841C11.2193 31.5841 9.08413 33.7193 9.08413 36.3438V39.3726Z" fill="#181616"/>
</svg>
