<svg width="45" height="45" viewBox="0 0 45 45" fill="none" xmlns="http://www.w3.org/2000/svg">
<rect width="45" height="45" fill="white"/>
<path d="M30.2888 11.6143C30.1951 11.6143 30.1021 11.5839 30.0249 11.5246L26.5634 8.86181C26.4569 8.77995 26.3945 8.65317 26.3945 8.51886V5.1905C26.3945 4.95157 26.5882 4.75781 26.8272 4.75781H30.2888C30.5278 4.75781 30.7215 4.95157 30.7215 5.1905V11.1816C30.7215 11.3465 30.6278 11.497 30.4799 11.5699C30.4194 11.5997 30.3539 11.6143 30.2888 11.6143ZM27.2599 8.30589L29.8561 10.3029V5.6232H27.2599V8.30589Z" fill="#181616"/>
<path d="M33.7491 14.277H11.2491C11.0639 14.277 10.8992 14.159 10.8395 13.9836C10.7798 13.8082 10.8384 13.6143 10.9854 13.5014L22.2354 4.84751C22.3908 4.72791 22.6075 4.72791 22.763 4.84751L34.013 13.5014C34.1598 13.6144 34.2184 13.8082 34.1588 13.9836C34.0992 14.159 33.9344 14.277 33.7491 14.277ZM12.5213 13.4116H32.477L22.4991 5.73635L12.5213 13.4116Z" fill="#181616"/>
<path d="M31.1544 26.3909H13.8468C13.6078 26.3909 13.4141 26.1973 13.4141 25.9582V13.8428C13.4141 13.6039 13.6078 13.4102 13.8468 13.4102H31.1544C31.3935 13.4102 31.5871 13.6039 31.5871 13.8428V25.9582C31.5871 26.1973 31.3935 26.3909 31.1544 26.3909ZM14.2794 25.5255H30.7218V14.2755H14.2794V25.5255Z" fill="#181616"/>
<path d="M25.0938 26.3942H19.9014C19.6625 26.3942 19.4688 26.2006 19.4688 25.9615V17.3077C19.4688 17.0688 19.6625 16.875 19.9014 16.875H25.0938C25.3328 16.875 25.5264 17.0688 25.5264 17.3077V25.9615C25.5264 26.2006 25.3328 26.3942 25.0938 26.3942ZM20.3341 25.5288H24.6611V17.7404H20.3341V25.5288Z" fill="#181616"/>
<path d="M33.7491 26.3927H11.2491C11.0102 26.3927 10.8164 26.1991 10.8164 25.96C10.8164 25.721 11.0102 25.5273 11.2491 25.5273H33.7491C33.9881 25.5273 34.1818 25.721 34.1818 25.96C34.1818 26.1991 33.9881 26.3927 33.7491 26.3927Z" fill="#181616"/>
<path d="M43.268 36.7776H1.72957C1.49063 36.7776 1.29688 36.584 1.29688 36.345V1.72957C1.29688 1.49063 1.49063 1.29688 1.72957 1.29688H43.268C43.507 1.29688 43.7007 1.49063 43.7007 1.72957V36.345C43.7007 36.584 43.507 36.7776 43.268 36.7776ZM2.16226 35.9123H42.8353V2.16226H2.16226V35.9123Z" fill="#181616"/>
<path d="M28.5559 40.241H16.4405C16.2016 40.241 16.0078 40.0473 16.0078 39.8083V36.3468C16.0078 36.1077 16.2016 35.9141 16.4405 35.9141H28.5559C28.7949 35.9141 28.9886 36.1077 28.9886 36.3468V39.8083C28.9886 40.0473 28.7949 40.241 28.5559 40.241ZM16.8732 39.3756H28.1232V36.7794H16.8732V39.3756Z" fill="#181616"/>
<path d="M33.7491 43.7019H11.2491C11.0102 43.7019 10.8164 43.5083 10.8164 43.2692V39.8077C10.8164 39.5687 11.0102 39.375 11.2491 39.375H33.7491C33.9881 39.375 34.1818 39.5687 34.1818 39.8077V43.2692C34.1818 43.5083 33.9881 43.7019 33.7491 43.7019ZM11.6818 42.8365H33.3164V40.2404H11.6818V42.8365Z" fill="#181616"/>
<path d="M22.4982 33.7503C22.9761 33.7503 23.3636 33.3629 23.3636 32.8849C23.3636 32.407 22.9761 32.0195 22.4982 32.0195C22.0203 32.0195 21.6328 32.407 21.6328 32.8849C21.6328 33.3629 22.0203 33.7503 22.4982 33.7503Z" fill="#181616"/>
<path d="M43.268 36.7767H1.72957C1.49063 36.7767 1.29688 36.5831 1.29688 36.3441V29.421C1.29688 29.182 1.49063 28.9883 1.72957 28.9883H43.268C43.507 28.9883 43.7007 29.182 43.7007 29.421V36.3441C43.7007 36.5831 43.507 36.7767 43.268 36.7767ZM2.16226 35.9114H42.8353V29.8537H2.16226V35.9114Z" fill="#181616"/>
</svg>
