<svg width="65" height="65" viewBox="0 0 65 65" fill="none" xmlns="http://www.w3.org/2000/svg">
<path d="M47.5 27.5695C47.3787 27.5695 47.2579 27.5343 47.1534 27.4645L42.1534 24.1311C41.9795 24.0152 41.875 23.8201 41.875 23.6111V17.5C41.875 17.1549 42.1547 16.875 42.5 16.875H47.5C47.8452 16.875 48.125 17.1549 48.125 17.5V26.9445C48.125 27.175 47.9981 27.3868 47.7949 27.4955C47.7025 27.545 47.6012 27.5695 47.5 27.5695ZM43.125 23.2766L46.875 25.7766V18.125H43.125V23.2766Z" fill="white"/>
<path d="M52.5 30.6251H12.5C12.2213 30.6251 11.9761 30.4403 11.8993 30.1723C11.8224 29.9043 11.9324 29.6178 12.1688 29.47L32.1688 16.97C32.3716 16.8433 32.6285 16.8433 32.8314 16.97L52.8314 29.47C53.0678 29.6178 53.1778 29.9043 53.1009 30.1723C53.0239 30.4403 52.7788 30.6251 52.5 30.6251ZM14.6793 29.3751H50.3208L32.5 18.2371L14.6793 29.3751Z" fill="white"/>
<path d="M48.75 58.125H16.25C15.9049 58.125 15.625 57.8453 15.625 57.5V30C15.625 29.6549 15.9049 29.375 16.25 29.375H48.75C49.0952 29.375 49.375 29.6549 49.375 30V57.5C49.375 57.8453 49.0952 58.125 48.75 58.125ZM16.875 56.875H48.125V30.625H16.875V56.875Z" fill="white"/>
<path d="M37.5 58.125H27.5C27.1549 58.125 26.875 57.8453 26.875 57.5V42.5C26.875 42.1547 27.1549 41.875 27.5 41.875H37.5C37.8452 41.875 38.125 42.1547 38.125 42.5V57.5C38.125 57.8453 37.8452 58.125 37.5 58.125ZM28.125 56.875H36.875V43.125H28.125V56.875Z" fill="white"/>
<path d="M52.5 58.125H12.5C12.1549 58.125 11.875 57.8452 11.875 57.5C11.875 57.1547 12.1549 56.875 12.5 56.875H52.5C52.8453 56.875 53.125 57.1547 53.125 57.5C53.125 57.8452 52.8453 58.125 52.5 58.125Z" fill="white"/>
<path d="M57.5 63.125H7.5C7.15487 63.125 6.875 62.8452 6.875 62.5V2.5C6.875 2.15487 7.15487 1.875 7.5 1.875H47.5C47.8452 1.875 48.125 2.15487 48.125 2.5V11.875H57.5C57.8452 11.875 58.125 12.1549 58.125 12.5V62.5C58.125 62.8452 57.8452 63.125 57.5 63.125ZM8.125 61.875H56.875V13.125H47.5C47.1547 13.125 46.875 12.8451 46.875 12.5V3.125H8.125V61.875Z" fill="white"/>
<path d="M57.5 13.125H47.5C47.1547 13.125 46.875 12.8451 46.875 12.5V2.50001C46.875 2.24726 47.0273 2.01926 47.2609 1.92251C47.494 1.82601 47.7633 1.87914 47.9419 2.05801L57.9419 12.058C58.1207 12.2368 58.1741 12.5056 58.0774 12.7391C57.9807 12.9728 57.7527 13.125 57.5 13.125ZM48.125 11.875H55.9911L48.125 4.00889V11.875Z" fill="white"/>
<path d="M42.5 8.125H12.5C12.1549 8.125 11.875 7.84512 11.875 7.5C11.875 7.15487 12.1549 6.875 12.5 6.875H42.5C42.8453 6.875 43.125 7.15487 43.125 7.5C43.125 7.84512 42.8453 8.125 42.5 8.125Z" fill="white"/>
<path d="M42.5 13.125H12.5C12.1549 13.125 11.875 12.8451 11.875 12.5C11.875 12.1549 12.1549 11.875 12.5 11.875H42.5C42.8453 11.875 43.125 12.1549 43.125 12.5C43.125 12.8451 42.8453 13.125 42.5 13.125Z" fill="white"/>
<path d="M25 18.125H12.5C12.1549 18.125 11.875 17.8451 11.875 17.5C11.875 17.1549 12.1549 16.875 12.5 16.875H25C25.3451 16.875 25.625 17.1549 25.625 17.5C25.625 17.8451 25.3451 18.125 25 18.125Z" fill="white"/>
<path d="M17.5 23.125H12.5C12.1549 23.125 11.875 22.8451 11.875 22.5C11.875 22.1549 12.1549 21.875 12.5 21.875H17.5C17.8451 21.875 18.125 22.1549 18.125 22.5C18.125 22.8451 17.8451 23.125 17.5 23.125Z" fill="white"/>
</svg>
