<svg width="45" height="45" viewBox="0 0 45 45" fill="none" xmlns="http://www.w3.org/2000/svg">
<rect width="45" height="45" fill="white"/>
<path d="M12.1136 5.6238H5.1905C4.95149 5.6238 4.75781 5.43004 4.75781 5.19111V1.72957C4.75781 1.49063 4.95149 1.29688 5.1905 1.29688H12.1136C12.3525 1.29688 12.5463 1.49063 12.5463 1.72957V5.19111C12.5463 5.43004 12.3525 5.6238 12.1136 5.6238ZM5.6232 4.75841H11.6809V2.16226H5.6232V4.75841Z" fill="#181616"/>
<path d="M12.1136 43.7022H5.1905C4.95149 43.7022 4.75781 43.5086 4.75781 43.2695V15.5772C4.75781 15.3383 4.95149 15.1445 5.1905 15.1445H12.1136C12.3525 15.1445 12.5463 15.3383 12.5463 15.5772V43.2695C12.5463 43.5086 12.3525 43.7022 12.1136 43.7022ZM5.6232 42.8368H11.6809V16.0099H5.6232V42.8368Z" fill="#181616"/>
<path d="M43.2695 10.8155H15.5772C15.3382 10.8155 15.1445 10.6217 15.1445 10.3828V5.1905C15.1445 4.95157 15.3382 4.75781 15.5772 4.75781H43.2695C43.5086 4.75781 43.7022 4.95157 43.7022 5.1905V10.3828C43.7022 10.6217 43.5086 10.8155 43.2695 10.8155ZM16.0099 9.95012H42.8368V5.6232H16.0099V9.95012Z" fill="#181616"/>
<path d="M42.4023 10.8154C42.2916 10.8154 42.1808 10.7732 42.0964 10.6887L36.9041 5.49642C36.7351 5.32741 36.7351 5.05343 36.9041 4.8845C37.0729 4.71558 37.3471 4.71558 37.5159 4.8845L42.7082 10.0768C42.8772 10.2458 42.8772 10.5198 42.7082 10.6887C42.6239 10.7732 42.513 10.8154 42.4023 10.8154Z" fill="#181616"/>
<path d="M37.2109 10.8154C37.1002 10.8154 36.9894 10.7732 36.905 10.6887L31.7127 5.49642C31.5437 5.32741 31.5437 5.05343 31.7127 4.8845C31.8815 4.71558 32.1557 4.71558 32.3245 4.8845L37.5168 10.0768C37.6858 10.2458 37.6858 10.5198 37.5168 10.6887C37.4325 10.7732 37.3216 10.8154 37.2109 10.8154Z" fill="#181616"/>
<path d="M32.0195 10.8154C31.9088 10.8154 31.798 10.7732 31.7136 10.6887L26.5213 5.49642C26.3523 5.32741 26.3523 5.05343 26.5213 4.8845C26.6901 4.71558 26.9643 4.71558 27.1331 4.8845L32.3254 10.0768C32.4944 10.2458 32.4944 10.5198 32.3254 10.6887C32.241 10.7732 32.1302 10.8154 32.0195 10.8154Z" fill="#181616"/>
<path d="M26.8242 10.8154C26.7135 10.8154 26.6027 10.7732 26.5183 10.6887L21.3259 5.49642C21.157 5.32741 21.157 5.05343 21.3259 4.8845C21.4949 4.71558 21.7688 4.71558 21.9378 4.8845L27.1301 10.0768C27.2991 10.2458 27.2991 10.5198 27.1301 10.6887C27.0458 10.7732 26.9349 10.8154 26.8242 10.8154Z" fill="#181616"/>
<path d="M21.6328 10.8154C21.522 10.8154 21.4113 10.7732 21.3268 10.6887L16.1345 5.49642C15.9656 5.32741 15.9656 5.05343 16.1345 4.8845C16.3035 4.71558 16.5774 4.71558 16.7464 4.8845L21.9387 10.0768C22.1077 10.2458 22.1077 10.5198 21.9387 10.6887C21.8543 10.7732 21.7435 10.8154 21.6328 10.8154Z" fill="#181616"/>
<path d="M5.19111 10.8155H1.72957C1.49055 10.8155 1.29688 10.6217 1.29688 10.3828V5.1905C1.29688 4.95157 1.49055 4.75781 1.72957 4.75781H5.19111C5.43004 4.75781 5.6238 4.95157 5.6238 5.1905V10.3828C5.6238 10.6217 5.43004 10.8155 5.19111 10.8155ZM2.16226 9.95012H4.75841V5.6232H2.16226V9.95012Z" fill="#181616"/>
<path d="M15.5751 16.0078H5.1905C4.95149 16.0078 4.75781 15.8141 4.75781 15.5751V5.1905C4.75781 4.95157 4.95149 4.75781 5.1905 4.75781H15.5751C15.8141 4.75781 16.0078 4.95157 16.0078 5.1905V15.5751C16.0078 15.8141 15.8141 16.0078 15.5751 16.0078ZM5.6232 15.1424H15.1424V5.6232H5.6232V15.1424Z" fill="#181616"/>
<path d="M12.1136 43.7025C12.0028 43.7025 11.892 43.6603 11.8076 43.5757L4.8845 36.6526C4.71558 36.4837 4.71558 36.2097 4.8845 36.0408C5.05351 35.8718 5.32741 35.8718 5.49642 36.0408L12.4195 42.9639C12.5885 43.1328 12.5885 43.4068 12.4195 43.5757C12.335 43.6603 12.2243 43.7025 12.1136 43.7025Z" fill="#181616"/>
<path d="M12.1136 36.7767C12.0028 36.7767 11.892 36.7345 11.8076 36.6499L4.8845 29.7269C4.71558 29.5579 4.71558 29.284 4.8845 29.115C5.05351 28.946 5.32741 28.946 5.49642 29.115L12.4195 36.0381C12.5885 36.207 12.5885 36.481 12.4195 36.6499C12.335 36.7345 12.2243 36.7767 12.1136 36.7767Z" fill="#181616"/>
<path d="M12.1136 29.8549C12.0028 29.8549 11.892 29.8126 11.8076 29.7281L4.8845 22.805C4.71558 22.6361 4.71558 22.3621 4.8845 22.1931C5.05351 22.0242 5.32741 22.0242 5.49642 22.1931L12.4195 29.1162C12.5885 29.2851 12.5885 29.5591 12.4195 29.728C12.335 29.8126 12.2243 29.8549 12.1136 29.8549Z" fill="#181616"/>
<path d="M12.1136 22.933C12.0028 22.933 11.892 22.8908 11.8076 22.8062L4.8845 15.8831C4.71558 15.7141 4.71558 15.4401 4.8845 15.2712C5.05351 15.1023 5.32741 15.1023 5.49642 15.2712L12.4195 22.1943C12.5885 22.3633 12.5885 22.6373 12.4195 22.8062C12.335 22.8908 12.2243 22.933 12.1136 22.933Z" fill="#181616"/>
<path d="M12.113 12.5457H8.65144C8.41242 12.5457 8.21875 12.3519 8.21875 12.113V8.65144C8.21875 8.41251 8.41242 8.21875 8.65144 8.21875H12.113C12.3519 8.21875 12.5457 8.41251 12.5457 8.65144V12.113C12.5457 12.3519 12.3519 12.5457 12.113 12.5457ZM9.08413 11.6803H11.6803V9.08413H9.08413V11.6803Z" fill="#181616"/>
<path d="M39.8083 22.5484C39.7244 22.5484 39.6407 22.524 39.5683 22.4757L36.1068 20.168C35.9864 20.0878 35.9141 19.9527 35.9141 19.808V15.5772C35.9141 15.3383 36.1077 15.1445 36.3468 15.1445H39.8083C40.0473 15.1445 40.241 15.3383 40.241 15.5772V22.1157C40.241 22.2753 40.1532 22.4219 40.0124 22.4972C39.9485 22.5314 39.8784 22.5484 39.8083 22.5484ZM36.7794 19.5764L39.3756 21.3072V16.0099H36.7794V19.5764Z" fill="#181616"/>
<path d="M43.2696 24.6637H15.5773C15.3843 24.6637 15.2146 24.5358 15.1613 24.3504C15.1081 24.1648 15.1843 23.9664 15.3479 23.8641L29.1941 15.2103C29.3345 15.1226 29.5124 15.1226 29.6528 15.2103L43.499 23.8641C43.6626 23.9665 43.7388 24.1648 43.6855 24.3504C43.6323 24.5358 43.4626 24.6637 43.2696 24.6637ZM17.086 23.7984H41.761L29.4235 16.0874L17.086 23.7984Z" fill="#181616"/>
<path d="M40.6749 43.7007H18.1749C17.9359 43.7007 17.7422 43.507 17.7422 43.268V24.2296C17.7422 23.9905 17.9359 23.7969 18.1749 23.7969H40.6749C40.9139 23.7969 41.1076 23.9905 41.1076 24.2296V43.268C41.1076 43.507 40.9139 43.7007 40.6749 43.7007ZM18.6076 42.8353H40.2422V24.6623H18.6076V42.8353Z" fill="#181616"/>
<path d="M32.887 43.7031H25.9639C25.7249 43.7031 25.5312 43.5095 25.5312 43.2704V32.8858C25.5312 32.6468 25.7249 32.4531 25.9639 32.4531H32.887C33.126 32.4531 33.3197 32.6468 33.3197 32.8858V43.2704C33.3197 43.5095 33.126 43.7031 32.887 43.7031ZM26.3966 42.8377H32.4543V33.3185H26.3966V42.8377Z" fill="#181616"/>
<path d="M43.2695 43.7013H15.5772C15.3382 43.7013 15.1445 43.5076 15.1445 43.2686C15.1445 43.0296 15.3382 42.8359 15.5772 42.8359H43.2695C43.5086 42.8359 43.7022 43.0296 43.7022 43.2686C43.7022 43.5076 43.5086 43.7013 43.2695 43.7013Z" fill="#181616"/>
</svg>
