<svg width="65" height="65" viewBox="0 0 65 65" fill="none" xmlns="http://www.w3.org/2000/svg">
<path d="M55 63.125H10C5.51987 63.125 1.875 59.4801 1.875 55C1.875 54.6547 2.15487 54.375 2.5 54.375H62.5C62.8452 54.375 63.125 54.6547 63.125 55C63.125 59.4801 59.4801 63.125 55 63.125ZM3.15312 55.625C3.46975 59.1242 6.41962 61.875 10 61.875H55C58.5804 61.875 61.5301 59.1242 61.8467 55.625H3.15312Z" fill="white"/>
<path d="M47.5 12.5695C47.3787 12.5695 47.2579 12.5343 47.1534 12.4645L42.1534 9.13113C41.9795 9.01525 41.875 8.82013 41.875 8.61112V2.5C41.875 2.15488 42.1547 1.875 42.5 1.875H47.5C47.8452 1.875 48.125 2.15488 48.125 2.5V11.9445C48.125 12.175 47.9981 12.3867 47.7949 12.4955C47.7025 12.545 47.6012 12.5695 47.5 12.5695ZM43.125 8.27662L46.875 10.7766V3.125H43.125V8.27662Z" fill="white"/>
<path d="M52.5 15.6251H12.5C12.2213 15.6251 11.9761 15.4403 11.8993 15.1723C11.8224 14.9043 11.9324 14.6178 12.1688 14.47L32.1688 1.96997C32.3716 1.84334 32.6285 1.84334 32.8314 1.96997L52.8314 14.47C53.0678 14.6178 53.1778 14.9043 53.1009 15.1723C53.0239 15.4403 52.7788 15.6251 52.5 15.6251ZM14.6793 14.3751H50.3208L32.5 3.23709L14.6793 14.3751Z" fill="white"/>
<path d="M60 55.625H5C4.65487 55.625 4.375 55.3453 4.375 55V20C4.375 19.6549 4.65487 19.375 5 19.375H16.25C16.5951 19.375 16.875 19.6549 16.875 20V41.875H48.125V20C48.125 19.6549 48.4047 19.375 48.75 19.375H60C60.3452 19.375 60.625 19.6549 60.625 20V55C60.625 55.3453 60.3452 55.625 60 55.625ZM5.625 54.375H59.375V20.625H49.375V42.5C49.375 42.8453 49.0952 43.125 48.75 43.125H16.25C15.9049 43.125 15.625 42.8453 15.625 42.5V20.625H5.625V54.375Z" fill="white"/>
<path d="M48.75 43.125H16.25C15.9049 43.125 15.625 42.8453 15.625 42.5V15C15.625 14.6549 15.9049 14.375 16.25 14.375H48.75C49.0952 14.375 49.375 14.6549 49.375 15V42.5C49.375 42.8453 49.0952 43.125 48.75 43.125ZM16.875 41.875H48.125V15.625H16.875V41.875Z" fill="white"/>
<path d="M37.5 43.125H27.5C27.1549 43.125 26.875 42.8453 26.875 42.5V27.5C26.875 27.1549 27.1549 26.875 27.5 26.875H37.5C37.8452 26.875 38.125 27.1549 38.125 27.5V42.5C38.125 42.8453 37.8452 43.125 37.5 43.125ZM28.125 41.875H36.875V28.125H28.125V41.875Z" fill="white"/>
<path d="M55 43.125H10C9.65488 43.125 9.375 42.8452 9.375 42.5C9.375 42.1547 9.65488 41.875 10 41.875H55C55.3453 41.875 55.625 42.1547 55.625 42.5C55.625 42.8452 55.3453 43.125 55 43.125Z" fill="white"/>
</svg>
