<svg width="40" height="40" viewBox="0 0 40 40" fill="none" xmlns="http://www.w3.org/2000/svg">
<path d="M33.0742 36.1541H28.4588C28.2464 36.1541 28.0742 35.982 28.0742 35.7695V31.1541C28.0742 30.9417 28.2464 30.7695 28.4588 30.7695H33.0742C33.2867 30.7695 33.4588 30.9417 33.4588 31.1541V35.7695C33.4588 35.982 33.2867 36.1541 33.0742 36.1541ZM28.8434 35.3849H32.6896V31.5388H28.8434V35.3849Z" fill="white"/>
<path d="M11.5391 36.1541H6.92368C6.71129 36.1541 6.53906 35.982 6.53906 35.7695V31.1541C6.53906 30.9417 6.71129 30.7695 6.92368 30.7695H11.5391C11.7514 30.7695 11.9237 30.9417 11.9237 31.1541V35.7695C11.9237 35.982 11.7514 36.1541 11.5391 36.1541ZM7.30829 35.3849H11.1544V31.5388H7.30829V35.3849Z" fill="white"/>
<path d="M6.92308 23.8462C5.86269 23.8462 5 22.9835 5 21.9231C5 20.8627 5.86269 20 6.92308 20C7.13546 20 7.30769 20.1722 7.30769 20.3846C7.30769 20.5971 7.13546 20.7692 6.92308 20.7692C6.28685 20.7692 5.76923 21.2868 5.76923 21.9231C5.76923 22.5593 6.28685 23.0769 6.92308 23.0769C7.13546 23.0769 7.30769 23.2491 7.30769 23.4615C7.30769 23.674 7.13546 23.8462 6.92308 23.8462Z" fill="white"/>
<path d="M33.076 23.8462C32.8636 23.8462 32.6914 23.674 32.6914 23.4615C32.6914 23.2491 32.8636 23.0769 33.076 23.0769C33.7123 23.0769 34.2299 22.5593 34.2299 21.9231C34.2299 21.2868 33.7123 20.7692 33.076 20.7692C32.8636 20.7692 32.6914 20.5971 32.6914 20.3846C32.6914 20.1722 32.8636 20 33.076 20C34.1364 20 34.9991 20.8627 34.9991 21.9231C34.9991 22.9835 34.1364 23.8462 33.076 23.8462Z" fill="white"/>
<path d="M28.4588 24.6149C28.3955 24.6149 28.3321 24.5993 28.2746 24.568C25.7431 23.1871 22.8808 22.4572 19.9973 22.4572C17.1137 22.4572 14.2514 23.1871 11.72 24.5679C11.6008 24.6329 11.4562 24.6303 11.3394 24.561C11.2227 24.4917 11.1511 24.366 11.1511 24.2302V21.9914C11.1511 20.1749 10.0168 18.5459 8.32853 17.9377C8.17599 17.8828 8.07422 17.738 8.07422 17.5759V8.8457C8.07422 6.0887 10.3172 3.8457 13.0742 3.8457H26.9204C29.6774 3.8457 31.9204 6.0887 31.9204 8.8457V17.5759C31.9204 17.7381 31.8187 17.8829 31.6661 17.9378C29.8987 18.5744 28.8434 20.0898 28.8434 21.9915V24.2303C28.8434 24.3661 28.7718 24.4917 28.6552 24.5611C28.5948 24.5969 28.5268 24.6149 28.4588 24.6149ZM19.9973 21.688C22.7952 21.688 25.5738 22.3459 28.0742 23.5955V21.9914C28.0742 19.8438 29.2187 18.1137 31.1511 17.3124V8.8457C31.1511 6.51286 29.2532 4.61493 26.9204 4.61493H13.0742C10.7414 4.61493 8.84345 6.51286 8.84345 8.8457V17.3136C10.6948 18.0979 11.9204 19.9439 11.9204 21.9915V23.5956C14.4208 22.3459 17.1993 21.688 19.9973 21.688Z" fill="white"/>
<path d="M33.0757 31.5374H6.92188C6.70949 31.5374 6.53726 31.3652 6.53726 31.1528V26.9074C3.95926 26.7103 1.92188 24.5497 1.92188 21.922C1.92188 19.1429 4.20003 16.8824 6.98811 16.9224C7.53518 16.9296 8.07434 17.0275 8.59064 17.2134C10.5831 17.9311 11.9219 19.8509 11.9219 21.9908V23.5949C14.4223 22.3452 17.2008 21.6874 19.9988 21.6874C22.7967 21.6874 25.5753 22.3452 28.0757 23.5949V21.9908C28.0757 19.7506 29.321 17.9647 31.407 17.2134C31.9233 17.0275 32.4624 16.9296 33.0094 16.9224C33.0317 16.9221 33.0535 16.9219 33.0757 16.9219C35.8327 16.9219 38.0757 19.1649 38.0757 21.9219C38.0757 24.5496 36.0383 26.7102 33.4603 26.9073V31.1528C33.4603 31.3652 33.2882 31.5374 33.0757 31.5374ZM7.30649 30.7682H32.6911V26.5374C32.6911 26.3249 32.8633 26.1528 33.0757 26.1528C35.4086 26.1528 37.3065 24.2549 37.3065 21.922C37.3065 19.5892 35.4086 17.6912 33.0757 17.6912L33.0194 17.6916C32.5582 17.6976 32.1033 17.7802 31.6676 17.9372C29.9002 18.5738 28.845 20.0892 28.845 21.9909V24.2297C28.845 24.3655 28.7733 24.4911 28.6567 24.5605C28.54 24.6297 28.3954 24.6324 28.2762 24.5674C25.7446 23.1865 22.8823 22.4566 19.9988 22.4566C17.1152 22.4566 14.253 23.1865 11.7214 24.5673C11.6024 24.6323 11.4577 24.6297 11.341 24.5604C11.2242 24.4911 11.1526 24.3654 11.1526 24.2296V21.9908C11.1526 20.1742 10.0183 18.5452 8.33003 17.9371C7.89434 17.7802 7.43949 17.6976 6.97811 17.6916L6.92188 17.6912C4.58903 17.6912 2.69111 19.5892 2.69111 21.922C2.69111 24.2549 4.58903 26.1528 6.92188 26.1528C7.13426 26.1528 7.30649 26.3249 7.30649 26.5374V30.7682Z" fill="white"/>
<path d="M12.3083 8.07752C12.7331 8.07752 13.0775 7.73313 13.0775 7.30829C13.0775 6.88346 12.7331 6.53906 12.3083 6.53906C11.8835 6.53906 11.5391 6.88346 11.5391 7.30829C11.5391 7.73313 11.8835 8.07752 12.3083 8.07752Z" fill="white"/>
<path d="M15.3825 8.07752C15.8073 8.07752 16.1517 7.73313 16.1517 7.30829C16.1517 6.88346 15.8073 6.53906 15.3825 6.53906C14.9577 6.53906 14.6133 6.88346 14.6133 7.30829C14.6133 7.73313 14.9577 8.07752 15.3825 8.07752Z" fill="white"/>
<path d="M18.4606 8.07752C18.8855 8.07752 19.2299 7.73313 19.2299 7.30829C19.2299 6.88346 18.8855 6.53906 18.4606 6.53906C18.0358 6.53906 17.6914 6.88346 17.6914 7.30829C17.6914 7.73313 18.0358 8.07752 18.4606 8.07752Z" fill="white"/>
<path d="M21.5388 8.07752C21.9636 8.07752 22.308 7.73313 22.308 7.30829C22.308 6.88346 21.9636 6.53906 21.5388 6.53906C21.1139 6.53906 20.7695 6.88346 20.7695 7.30829C20.7695 7.73313 21.1139 8.07752 21.5388 8.07752Z" fill="white"/>
<path d="M24.613 8.07752C25.0378 8.07752 25.3822 7.73313 25.3822 7.30829C25.3822 6.88346 25.0378 6.53906 24.613 6.53906C24.1881 6.53906 23.8438 6.88346 23.8438 7.30829C23.8438 7.73313 24.1881 8.07752 24.613 8.07752Z" fill="white"/>
<path d="M27.6911 8.07557C28.1159 8.07557 28.4603 7.73117 28.4603 7.30634C28.4603 6.88151 28.1159 6.53711 27.6911 6.53711C27.2663 6.53711 26.9219 6.88151 26.9219 7.30634C26.9219 7.73117 27.2663 8.07557 27.6911 8.07557Z" fill="white"/>
<path d="M13.8434 11.1537C14.2683 11.1537 14.6127 10.8093 14.6127 10.3845C14.6127 9.95963 14.2683 9.61523 13.8434 9.61523C13.4186 9.61523 13.0742 9.95963 13.0742 10.3845C13.0742 10.8093 13.4186 11.1537 13.8434 11.1537Z" fill="white"/>
<path d="M16.9216 11.1537C17.3464 11.1537 17.6908 10.8093 17.6908 10.3845C17.6908 9.95963 17.3464 9.61523 16.9216 9.61523C16.4967 9.61523 16.1523 9.95963 16.1523 10.3845C16.1523 10.8093 16.4967 11.1537 16.9216 11.1537Z" fill="white"/>
<path d="M19.9997 11.1537C20.4245 11.1537 20.7689 10.8093 20.7689 10.3845C20.7689 9.95963 20.4245 9.61523 19.9997 9.61523C19.5749 9.61523 19.2305 9.95963 19.2305 10.3845C19.2305 10.8093 19.5749 11.1537 19.9997 11.1537Z" fill="white"/>
<path d="M23.0739 11.1537C23.4988 11.1537 23.8431 10.8093 23.8431 10.3845C23.8431 9.95963 23.4988 9.61523 23.0739 9.61523C22.6491 9.61523 22.3047 9.95963 22.3047 10.3845C22.3047 10.8093 22.6491 11.1537 23.0739 11.1537Z" fill="white"/>
<path d="M26.152 11.1537C26.5769 11.1537 26.9213 10.8093 26.9213 10.3845C26.9213 9.95963 26.5769 9.61523 26.152 9.61523C25.7272 9.61523 25.3828 9.95963 25.3828 10.3845C25.3828 10.8093 25.7272 11.1537 26.152 11.1537Z" fill="white"/>
<path d="M12.3083 14.2299C12.7331 14.2299 13.0775 13.8855 13.0775 13.4606C13.0775 13.0358 12.7331 12.6914 12.3083 12.6914C11.8835 12.6914 11.5391 13.0358 11.5391 13.4606C11.5391 13.8855 11.8835 14.2299 12.3083 14.2299Z" fill="white"/>
<path d="M15.3825 14.2299C15.8073 14.2299 16.1517 13.8855 16.1517 13.4606C16.1517 13.0358 15.8073 12.6914 15.3825 12.6914C14.9577 12.6914 14.6133 13.0358 14.6133 13.4606C14.6133 13.8855 14.9577 14.2299 15.3825 14.2299Z" fill="white"/>
<path d="M18.4606 14.2299C18.8855 14.2299 19.2299 13.8855 19.2299 13.4606C19.2299 13.0358 18.8855 12.6914 18.4606 12.6914C18.0358 12.6914 17.6914 13.0358 17.6914 13.4606C17.6914 13.8855 18.0358 14.2299 18.4606 14.2299Z" fill="white"/>
<path d="M21.5388 14.2299C21.9636 14.2299 22.308 13.8855 22.308 13.4606C22.308 13.0358 21.9636 12.6914 21.5388 12.6914C21.1139 12.6914 20.7695 13.0358 20.7695 13.4606C20.7695 13.8855 21.1139 14.2299 21.5388 14.2299Z" fill="white"/>
<path d="M24.613 14.2299C25.0378 14.2299 25.3822 13.8855 25.3822 13.4606C25.3822 13.0358 25.0378 12.6914 24.613 12.6914C24.1881 12.6914 23.8438 13.0358 23.8438 13.4606C23.8438 13.8855 24.1881 14.2299 24.613 14.2299Z" fill="white"/>
<path d="M27.6911 14.2299C28.1159 14.2299 28.4603 13.8855 28.4603 13.4606C28.4603 13.0358 28.1159 12.6914 27.6911 12.6914C27.2663 12.6914 26.9219 13.0358 26.9219 13.4606C26.9219 13.8855 27.2663 14.2299 27.6911 14.2299Z" fill="white"/>
<path d="M13.8434 17.308C14.2683 17.308 14.6127 16.9636 14.6127 16.5388C14.6127 16.1139 14.2683 15.7695 13.8434 15.7695C13.4186 15.7695 13.0742 16.1139 13.0742 16.5388C13.0742 16.9636 13.4186 17.308 13.8434 17.308Z" fill="white"/>
<path d="M16.9216 17.308C17.3464 17.308 17.6908 16.9636 17.6908 16.5388C17.6908 16.1139 17.3464 15.7695 16.9216 15.7695C16.4967 15.7695 16.1523 16.1139 16.1523 16.5388C16.1523 16.9636 16.4967 17.308 16.9216 17.308Z" fill="white"/>
<path d="M19.9997 17.308C20.4245 17.308 20.7689 16.9636 20.7689 16.5388C20.7689 16.1139 20.4245 15.7695 19.9997 15.7695C19.5749 15.7695 19.2305 16.1139 19.2305 16.5388C19.2305 16.9636 19.5749 17.308 19.9997 17.308Z" fill="white"/>
<path d="M23.0739 17.308C23.4988 17.308 23.8431 16.9636 23.8431 16.5388C23.8431 16.1139 23.4988 15.7695 23.0739 15.7695C22.6491 15.7695 22.3047 16.1139 22.3047 16.5388C22.3047 16.9636 22.6491 17.308 23.0739 17.308Z" fill="white"/>
<path d="M26.152 17.308C26.5769 17.308 26.9213 16.9636 26.9213 16.5388C26.9213 16.1139 26.5769 15.7695 26.152 15.7695C25.7272 15.7695 25.3828 16.1139 25.3828 16.5388C25.3828 16.9636 25.7272 17.308 26.152 17.308Z" fill="white"/>
<path d="M15.3825 19.6146C15.8073 19.6146 16.1517 19.2702 16.1517 18.8454C16.1517 18.4206 15.8073 18.0762 15.3825 18.0762C14.9577 18.0762 14.6133 18.4206 14.6133 18.8454C14.6133 19.2702 14.9577 19.6146 15.3825 19.6146Z" fill="white"/>
<path d="M18.4606 19.6146C18.8855 19.6146 19.2299 19.2702 19.2299 18.8454C19.2299 18.4206 18.8855 18.0762 18.4606 18.0762C18.0358 18.0762 17.6914 18.4206 17.6914 18.8454C17.6914 19.2702 18.0358 19.6146 18.4606 19.6146Z" fill="white"/>
<path d="M21.5388 19.6146C21.9636 19.6146 22.308 19.2702 22.308 18.8454C22.308 18.4206 21.9636 18.0762 21.5388 18.0762C21.1139 18.0762 20.7695 18.4206 20.7695 18.8454C20.7695 19.2702 21.1139 19.6146 21.5388 19.6146Z" fill="white"/>
<path d="M24.613 19.6146C25.0378 19.6146 25.3822 19.2702 25.3822 18.8454C25.3822 18.4206 25.0378 18.0762 24.613 18.0762C24.1881 18.0762 23.8438 18.4206 23.8438 18.8454C23.8438 19.2702 24.1881 19.6146 24.613 19.6146Z" fill="white"/>
</svg>
