<svg width="52" height="52" viewBox="0 0 52 52" fill="none" xmlns="http://www.w3.org/2000/svg">
<path d="M43 47H37C36.7238 47 36.5 46.7762 36.5 46.5V40.5C36.5 40.2238 36.7238 40 37 40H43C43.2762 40 43.5 40.2238 43.5 40.5V46.5C43.5 46.7762 43.2762 47 43 47ZM37.5 46H42.5V41H37.5V46Z" fill="#181616"/>
<path d="M14.998 47H8.99805C8.72195 47 8.49805 46.7762 8.49805 46.5V40.5C8.49805 40.2238 8.72195 40 8.99805 40H14.998C15.2741 40 15.498 40.2238 15.498 40.5V46.5C15.498 46.7762 15.2741 47 14.998 47ZM9.49805 46H14.498V41H9.49805V46Z" fill="#181616"/>
<path d="M9 31C7.6215 31 6.5 29.8785 6.5 28.5C6.5 27.1215 7.6215 26 9 26C9.2761 26 9.5 26.2238 9.5 26.5C9.5 26.7762 9.2761 27 9 27C8.1729 27 7.5 27.6729 7.5 28.5C7.5 29.3271 8.1729 30 9 30C9.2761 30 9.5 30.2238 9.5 30.5C9.5 30.7762 9.2761 31 9 31Z" fill="#181616"/>
<path d="M43 31C42.7238 31 42.5 30.7762 42.5 30.5C42.5 30.2238 42.7238 30 43 30C43.8271 30 44.5 29.3271 44.5 28.5C44.5 27.6729 43.8271 27 43 27C42.7238 27 42.5 26.7762 42.5 26.5C42.5 26.2238 42.7238 26 43 26C44.3785 26 45.5 27.1215 45.5 28.5C45.5 29.8785 44.3785 31 43 31Z" fill="#181616"/>
<path d="M37 32C36.9177 32 36.8353 31.9797 36.7605 31.939C33.4696 30.1438 29.7486 29.195 26 29.195C22.2513 29.195 18.5304 30.1438 15.2395 31.9389C15.0846 32.0234 14.8966 32.02 14.7448 31.9299C14.593 31.8398 14.5 31.6764 14.5 31.4999V28.5894C14.5 26.2279 13.0254 24.1102 10.8306 23.3196C10.6323 23.2482 10.5 23.06 10.5 22.8492V11.5C10.5 7.9159 13.4159 5 17 5H35C38.5841 5 41.5 7.9159 41.5 11.5V22.8493C41.5 23.0601 41.3678 23.2483 41.1694 23.3197C38.8718 24.1473 37.5 26.1173 37.5 28.5895V31.5C37.5 31.6765 37.4069 31.8398 37.2553 31.93C37.1767 31.9766 37.0884 32 37 32ZM26 28.195C29.6373 28.195 33.2495 29.0502 36.5 30.6748V28.5894C36.5 25.7975 37.9878 23.5484 40.5 22.5067V11.5C40.5 8.4673 38.0327 6 35 6H17C13.9673 6 11.5 8.4673 11.5 11.5V22.5083C13.9067 23.5278 15.5 25.9277 15.5 28.5895V30.6749C18.7505 29.0502 22.3626 28.195 26 28.195Z" fill="#181616"/>
<path d="M43 40.9992H9C8.7239 40.9992 8.5 40.7754 8.5 40.4992V34.9802C5.1486 34.724 2.5 31.9152 2.5 28.4992C2.5 24.8864 5.4616 21.9477 9.0861 21.9997C9.7973 22.009 10.4982 22.1363 11.1694 22.378C13.7596 23.311 15.5 25.8068 15.5 28.5886V30.674C18.7505 29.0494 22.3626 28.1942 26 28.1942C29.6373 28.1942 33.2495 29.0494 36.5 30.674V28.5886C36.5 25.6764 38.1189 23.3547 40.8306 22.378C41.5018 22.1363 42.2027 22.009 42.9138 21.9997C42.9428 21.9993 42.9711 21.9991 43 21.9991C46.5841 21.9991 49.5 24.915 49.5 28.4991C49.5 31.915 46.8514 34.7239 43.5 34.9801V40.4992C43.5 40.7754 43.2762 40.9992 43 40.9992ZM9.5 39.9992H42.5V34.4992C42.5 34.223 42.7238 33.9992 43 33.9992C46.0327 33.9992 48.5 31.5319 48.5 28.4992C48.5 25.4665 46.0327 22.9992 43 22.9992L42.9268 22.9997C42.3272 23.0075 41.7359 23.1149 41.1695 23.3189C38.8718 24.1465 37.5 26.1165 37.5 28.5887V31.4992C37.5 31.6757 37.4069 31.839 37.2553 31.9292C37.1035 32.0192 36.9156 32.0227 36.7606 31.9382C33.4696 30.143 29.7486 29.1942 26 29.1942C22.2513 29.1942 18.5304 30.143 15.2394 31.9381C15.0847 32.0226 14.8966 32.0192 14.7448 31.9291C14.593 31.839 14.5 31.6756 14.5 31.4991V28.5886C14.5 26.2271 13.0253 24.1094 10.8306 23.3188C10.2642 23.1148 9.6729 23.0074 9.0731 22.9996L9 22.9992C5.9673 22.9992 3.5 25.4665 3.5 28.4992C3.5 31.5319 5.9673 33.9992 9 33.9992C9.2761 33.9992 9.5 34.223 9.5 34.4992V39.9992Z" fill="#181616"/>
<path d="M15.998 10.501C16.5503 10.501 16.998 10.0533 16.998 9.50098C16.998 8.94869 16.5503 8.50098 15.998 8.50098C15.4458 8.50098 14.998 8.94869 14.998 9.50098C14.998 10.0533 15.4458 10.501 15.998 10.501Z" fill="#181616"/>
<path d="M20 10.501C20.5523 10.501 21 10.0533 21 9.50098C21 8.94869 20.5523 8.50098 20 8.50098C19.4477 8.50098 19 8.94869 19 9.50098C19 10.0533 19.4477 10.501 20 10.501Z" fill="#181616"/>
<path d="M24 10.501C24.5523 10.501 25 10.0533 25 9.50098C25 8.94869 24.5523 8.50098 24 8.50098C23.4477 8.50098 23 8.94869 23 9.50098C23 10.0533 23.4477 10.501 24 10.501Z" fill="#181616"/>
<path d="M28 10.501C28.5523 10.501 29 10.0533 29 9.50098C29 8.94869 28.5523 8.50098 28 8.50098C27.4477 8.50098 27 8.94869 27 9.50098C27 10.0533 27.4477 10.501 28 10.501Z" fill="#181616"/>
<path d="M32 10.501C32.5523 10.501 33 10.0533 33 9.50098C33 8.94869 32.5523 8.50098 32 8.50098C31.4477 8.50098 31 8.94869 31 9.50098C31 10.0533 31.4477 10.501 32 10.501Z" fill="#181616"/>
<path d="M36 10.501C36.5523 10.501 37 10.0533 37 9.50098C37 8.94869 36.5523 8.50098 36 8.50098C35.4477 8.50098 35 8.94869 35 9.50098C35 10.0533 35.4477 10.501 36 10.501Z" fill="#181616"/>
<path d="M18 14.5C18.5523 14.5 19 14.0523 19 13.5C19 12.9477 18.5523 12.5 18 12.5C17.4477 12.5 17 12.9477 17 13.5C17 14.0523 17.4477 14.5 18 14.5Z" fill="#181616"/>
<path d="M22 14.5C22.5523 14.5 23 14.0523 23 13.5C23 12.9477 22.5523 12.5 22 12.5C21.4477 12.5 21 12.9477 21 13.5C21 14.0523 21.4477 14.5 22 14.5Z" fill="#181616"/>
<path d="M26 14.5C26.5523 14.5 27 14.0523 27 13.5C27 12.9477 26.5523 12.5 26 12.5C25.4477 12.5 25 12.9477 25 13.5C25 14.0523 25.4477 14.5 26 14.5Z" fill="#181616"/>
<path d="M30.002 14.5C30.5542 14.5 31.002 14.0523 31.002 13.5C31.002 12.9477 30.5542 12.5 30.002 12.5C29.4497 12.5 29.002 12.9477 29.002 13.5C29.002 14.0523 29.4497 14.5 30.002 14.5Z" fill="#181616"/>
<path d="M34 14.5C34.5523 14.5 35 14.0523 35 13.5C35 12.9477 34.5523 12.5 34 12.5C33.4477 12.5 33 12.9477 33 13.5C33 14.0523 33.4477 14.5 34 14.5Z" fill="#181616"/>
<path d="M15.998 18.5C16.5503 18.5 16.998 18.0523 16.998 17.5C16.998 16.9477 16.5503 16.5 15.998 16.5C15.4458 16.5 14.998 16.9477 14.998 17.5C14.998 18.0523 15.4458 18.5 15.998 18.5Z" fill="#181616"/>
<path d="M20 18.5C20.5523 18.5 21 18.0523 21 17.5C21 16.9477 20.5523 16.5 20 16.5C19.4477 16.5 19 16.9477 19 17.5C19 18.0523 19.4477 18.5 20 18.5Z" fill="#181616"/>
<path d="M24 18.5C24.5523 18.5 25 18.0523 25 17.5C25 16.9477 24.5523 16.5 24 16.5C23.4477 16.5 23 16.9477 23 17.5C23 18.0523 23.4477 18.5 24 18.5Z" fill="#181616"/>
<path d="M28 18.5C28.5523 18.5 29 18.0523 29 17.5C29 16.9477 28.5523 16.5 28 16.5C27.4477 16.5 27 16.9477 27 17.5C27 18.0523 27.4477 18.5 28 18.5Z" fill="#181616"/>
<path d="M32 18.5C32.5523 18.5 33 18.0523 33 17.5C33 16.9477 32.5523 16.5 32 16.5C31.4477 16.5 31 16.9477 31 17.5C31 18.0523 31.4477 18.5 32 18.5Z" fill="#181616"/>
<path d="M36 18.5C36.5523 18.5 37 18.0523 37 17.5C37 16.9477 36.5523 16.5 36 16.5C35.4477 16.5 35 16.9477 35 17.5C35 18.0523 35.4477 18.5 36 18.5Z" fill="#181616"/>
<path d="M18 22.5C18.5523 22.5 19 22.0523 19 21.5C19 20.9477 18.5523 20.5 18 20.5C17.4477 20.5 17 20.9477 17 21.5C17 22.0523 17.4477 22.5 18 22.5Z" fill="#181616"/>
<path d="M22 22.5C22.5523 22.5 23 22.0523 23 21.5C23 20.9477 22.5523 20.5 22 20.5C21.4477 20.5 21 20.9477 21 21.5C21 22.0523 21.4477 22.5 22 22.5Z" fill="#181616"/>
<path d="M26 22.5C26.5523 22.5 27 22.0523 27 21.5C27 20.9477 26.5523 20.5 26 20.5C25.4477 20.5 25 20.9477 25 21.5C25 22.0523 25.4477 22.5 26 22.5Z" fill="#181616"/>
<path d="M30.002 22.5C30.5542 22.5 31.002 22.0523 31.002 21.5C31.002 20.9477 30.5542 20.5 30.002 20.5C29.4497 20.5 29.002 20.9477 29.002 21.5C29.002 22.0523 29.4497 22.5 30.002 22.5Z" fill="#181616"/>
<path d="M34 22.5C34.5523 22.5 35 22.0523 35 21.5C35 20.9477 34.5523 20.5 34 20.5C33.4477 20.5 33 20.9477 33 21.5C33 22.0523 33.4477 22.5 34 22.5Z" fill="#181616"/>
<path d="M20 25.5C20.5523 25.5 21 25.0523 21 24.5C21 23.9477 20.5523 23.5 20 23.5C19.4477 23.5 19 23.9477 19 24.5C19 25.0523 19.4477 25.5 20 25.5Z" fill="#181616"/>
<path d="M24 25.5C24.5523 25.5 25 25.0523 25 24.5C25 23.9477 24.5523 23.5 24 23.5C23.4477 23.5 23 23.9477 23 24.5C23 25.0523 23.4477 25.5 24 25.5Z" fill="#181616"/>
<path d="M28 25.5C28.5523 25.5 29 25.0523 29 24.5C29 23.9477 28.5523 23.5 28 23.5C27.4477 23.5 27 23.9477 27 24.5C27 25.0523 27.4477 25.5 28 25.5Z" fill="#181616"/>
<path d="M32 25.5C32.5523 25.5 33 25.0523 33 24.5C33 23.9477 32.5523 23.5 32 23.5C31.4477 23.5 31 23.9477 31 24.5C31 25.0523 31.4477 25.5 32 25.5Z" fill="#181616"/>
</svg>
