<svg width="52" height="52" viewBox="0 0 52 52" fill="none" xmlns="http://www.w3.org/2000/svg">
<path d="M44 50.501H8C4.4159 50.501 1.5 47.5851 1.5 44.001C1.5 43.7248 1.7239 43.501 2 43.501H50C50.2762 43.501 50.5 43.7248 50.5 44.001C50.5 47.5851 47.5841 50.501 44 50.501ZM2.5225 44.501C2.7758 47.3004 5.1357 49.501 8 49.501H44C46.8643 49.501 49.2241 47.3004 49.4774 44.501H2.5225Z" fill="#181616"/>
<path d="M38 10.0556C37.903 10.0556 37.8063 10.0274 37.7227 9.9716L33.7227 7.3049C33.5836 7.2122 33.5 7.0561 33.5 6.8889V2C33.5 1.7239 33.7238 1.5 34 1.5H38C38.2762 1.5 38.5 1.7239 38.5 2V9.5556C38.5 9.74 38.3985 9.9094 38.2359 9.9964C38.162 10.036 38.081 10.0556 38 10.0556ZM34.5 6.6213L37.5 8.6213V2.5H34.5V6.6213Z" fill="#181616"/>
<path d="M41.9981 12.5001H9.99807C9.77507 12.5001 9.57897 12.3523 9.51747 12.1379C9.45597 11.9235 9.54396 11.6943 9.73306 11.576L25.7331 1.57598C25.8954 1.47467 26.1009 1.47467 26.2632 1.57598L42.2632 11.576C42.4523 11.6943 42.5403 11.9235 42.4788 12.1379C42.4172 12.3523 42.2211 12.5001 41.9981 12.5001ZM11.7415 11.5001H40.2547L25.9981 2.58968L11.7415 11.5001Z" fill="#181616"/>
<path d="M48 44.501H4C3.7239 44.501 3.5 44.2772 3.5 44.001V16.001C3.5 15.7249 3.7239 15.501 4 15.501H13C13.2761 15.501 13.5 15.7249 13.5 16.001V33.501H38.5V16.001C38.5 15.7249 38.7238 15.501 39 15.501H48C48.2762 15.501 48.5 15.7249 48.5 16.001V44.001C48.5 44.2772 48.2762 44.501 48 44.501ZM4.5 43.501H47.5V16.501H39.5V34.001C39.5 34.2772 39.2762 34.501 39 34.501H13C12.7239 34.501 12.5 34.2772 12.5 34.001V16.501H4.5V43.501Z" fill="#181616"/>
<path d="M39 34.501H13C12.7239 34.501 12.5 34.2772 12.5 34.001V12.001C12.5 11.7249 12.7239 11.501 13 11.501H39C39.2762 11.501 39.5 11.7249 39.5 12.001V34.001C39.5 34.2772 39.2762 34.501 39 34.501ZM13.5 33.501H38.5V12.501H13.5V33.501Z" fill="#181616"/>
<path d="M30.002 34.5H22.002C21.7259 34.5 21.502 34.2762 21.502 34V22C21.502 21.7239 21.7259 21.5 22.002 21.5H30.002C30.2782 21.5 30.502 21.7239 30.502 22V34C30.502 34.2762 30.2782 34.5 30.002 34.5ZM22.502 33.5H29.502V22.5H22.502V33.5Z" fill="#181616"/>
<path d="M43.9981 34.5H7.99805C7.72195 34.5 7.49805 34.2762 7.49805 34C7.49805 33.7238 7.72195 33.5 7.99805 33.5H43.9981C44.2743 33.5 44.4981 33.7238 44.4981 34C44.4981 34.2762 44.2743 34.5 43.9981 34.5Z" fill="#181616"/>
</svg>
