<svg width="40" height="40" viewBox="0 0 40 40" fill="none" xmlns="http://www.w3.org/2000/svg">
<path d="M20.0003 38.8466C19.9359 38.8466 19.8716 38.8304 19.8135 38.7982L13.0892 35.0625C8.5743 32.5542 5.76953 27.7875 5.76953 22.6226V7.69276C5.76953 7.48037 5.94176 7.30814 6.15415 7.30814H6.43868C11.5244 7.30814 16.3619 5.11299 19.7109 1.28568C19.7839 1.20222 19.8895 1.1543 20.0003 1.1543C20.1111 1.1543 20.2167 1.20222 20.2898 1.28568C23.6388 5.11299 28.4763 7.30814 33.562 7.30814H33.8465C34.0589 7.30814 34.2311 7.48037 34.2311 7.69276V22.6226C34.2311 27.7875 31.4263 32.5542 26.9114 35.0625L20.1871 38.7982C20.129 38.8304 20.0647 38.8466 20.0003 38.8466ZM6.53876 8.07714V22.6226C6.53876 27.5084 9.19192 32.0174 13.4628 34.3901L20.0003 38.022L26.5378 34.39C30.8088 32.0174 33.4618 27.5084 33.4618 22.6226V8.07714C28.3357 8.0493 23.4591 5.88522 20.0003 2.1153C16.5416 5.88522 11.6649 8.0493 6.53876 8.07714Z" fill="white"/>
<path d="M26.9265 14.9423C26.8432 14.9423 26.7605 14.9153 26.6918 14.8626L23.6149 12.4957C23.5203 12.4229 23.4648 12.3102 23.4648 12.1908V9.23227C23.4648 9.01989 23.637 8.84766 23.8495 8.84766H26.9264C27.1388 8.84766 27.311 9.01989 27.311 9.23227V14.5577C27.311 14.7043 27.2278 14.838 27.0963 14.9028C27.0425 14.9293 26.9843 14.9423 26.9265 14.9423ZM24.2341 12.0015L26.5418 13.7767V9.61689H24.2341V12.0015Z" fill="white"/>
<path d="M30.0018 17.3092H10.0018C9.83715 17.3092 9.69076 17.2043 9.63768 17.0484C9.58468 16.8925 9.63676 16.7201 9.76738 16.6197L19.7674 8.92739C19.9055 8.82108 20.0981 8.82108 20.2364 8.92739L30.2364 16.6197C30.3668 16.7202 30.419 16.8925 30.366 17.0484C30.313 17.2043 30.1665 17.3092 30.0018 17.3092ZM11.1327 16.5399H28.8711L20.0018 9.71746L11.1327 16.5399Z" fill="white"/>
<path d="M27.695 30.3852H12.3104C12.098 30.3852 11.9258 30.2131 11.9258 30.0006V16.9237C11.9258 16.7113 12.098 16.5391 12.3104 16.5391H27.695C27.9075 16.5391 28.0796 16.7113 28.0796 16.9237V30.0006C28.0796 30.2131 27.9075 30.3852 27.695 30.3852ZM12.695 29.616H27.3104V17.3083H12.695V29.616Z" fill="white"/>
<path d="M22.3086 30.3873H17.6932C17.4808 30.3873 17.3086 30.2152 17.3086 30.0027V22.3104C17.3086 22.0979 17.4808 21.9258 17.6932 21.9258H22.3086C22.5211 21.9258 22.6932 22.0979 22.6932 22.3104V30.0027C22.6932 30.2152 22.5211 30.3873 22.3086 30.3873ZM18.0778 29.6181H21.924V22.695H18.0778V29.6181Z" fill="white"/>
</svg>
