<svg width="55" height="55" viewBox="0 0 55 55" fill="none" xmlns="http://www.w3.org/2000/svg">
<g clip-path="url(#clip0_4146_60)">
<path d="M44.6349 47.9034L42.5812 41.7416C41.8636 39.5904 40.0326 38.0025 37.8007 37.5962L31.8722 36.5175V36.0579C32.9039 35.4592 33.8016 34.6581 34.5166 33.7098H36.3077C37.7749 33.7098 38.969 32.5158 38.969 31.0485V20.4034C38.969 14.0446 33.7954 8.87109 27.4367 8.87109C21.078 8.87109 15.9045 14.0446 15.9045 20.4034V26.613C15.9045 28.3234 17.1207 29.7542 18.7334 30.0878C19.2311 32.6373 20.8243 34.7947 23.0012 36.0579V36.5175L17.0719 37.5962C14.8408 38.0025 13.009 39.5904 12.2922 41.7416L11.9374 42.807L8.9159 39.7855C8.56994 39.4396 8.56994 38.8763 8.9159 38.5303L12.4199 35.0271L5.843 28.4502L1.883 32.4102C0.710259 33.5829 0.0644531 35.1425 0.0644531 36.8013C0.0644531 38.4602 0.710259 40.0188 1.883 41.1916L13.8721 53.1807C15.0449 54.3534 16.6044 55.0001 18.2632 55.0001C19.9221 55.0001 21.4807 54.3534 22.626 53.2073L26.947 49.2482L25.5995 47.9034H44.6349ZM37.1948 31.0485C37.1948 31.5382 36.7965 31.9356 36.3077 31.9356H35.5616C35.8189 31.3492 36.014 30.7309 36.14 30.0878C36.5197 30.0088 36.8692 29.858 37.1948 29.6682V31.0485ZM36.3077 28.1406V25.0854C36.8355 25.3933 37.1948 25.9592 37.1948 26.613C37.1948 27.2668 36.8355 27.8328 36.3077 28.1406ZM18.5657 28.1406C18.0379 27.8328 17.6786 27.2668 17.6786 26.613C17.6786 25.9592 18.0379 25.3933 18.5657 25.0854V28.1406ZM18.5657 22.1775V23.1906C18.2499 23.2731 17.9536 23.3973 17.6786 23.5579V20.4034C17.6786 15.0231 22.0565 10.6453 27.4367 10.6453C32.817 10.6453 37.1948 15.0231 37.1948 20.4034V23.5579C36.9198 23.3973 36.6235 23.2722 36.3077 23.1906V22.1775H35.4206C32.7974 22.1775 30.3313 21.1556 28.4755 19.3007L27.4367 18.2619L26.3979 19.3007C24.5421 21.1556 22.076 22.1775 19.4528 22.1775H18.5657ZM20.3399 28.3872V23.918C23.0039 23.7175 25.4878 22.6184 27.4367 20.7653C29.3857 22.6184 31.8695 23.7184 34.5335 23.918V28.3872C34.5335 29.6806 34.1804 30.8906 33.5736 31.9356H27.4367V33.7098H32.1153C30.8645 34.8107 29.2295 35.484 27.4367 35.484C23.5237 35.484 20.3399 32.3002 20.3399 28.3872ZM30.098 36.8492V36.8909L27.4367 39.5522L24.7754 36.8909V36.8492C25.6164 37.1136 26.5097 37.2582 27.4367 37.2582C28.3637 37.2582 29.257 37.1136 30.098 36.8492ZM13.9741 42.3022C14.486 40.7658 15.7945 39.6312 17.3886 39.3402L23.5894 38.2136L27.4367 42.0609L31.2832 38.2145L37.4831 39.3411C39.0772 39.6321 40.3857 40.7658 40.8975 42.3031L42.174 46.1292H23.8253L20.3701 42.6739L16.5307 46.1469C16.1963 46.4831 15.6117 46.4831 15.2764 46.1469L13.339 44.2095L13.9741 42.3022ZM5.84211 30.9589L9.91034 35.0271L8.94695 35.9905L4.87873 31.9223L5.84211 30.9589ZM21.3974 51.9281C20.5599 52.7638 19.4457 53.2259 18.2615 53.2259C17.0772 53.2259 15.963 52.7638 15.1247 51.9263L3.13558 39.9381C2.29816 39.1007 1.83687 37.9865 1.83687 36.8022C1.83687 35.6171 2.29816 34.5029 3.13558 33.6654L3.62349 33.1775L7.69171 37.2458L7.65977 37.2777C6.62276 38.3156 6.62276 40.0038 7.65977 41.0417L14.0211 47.403C14.5241 47.9051 15.1921 48.1828 15.9036 48.1828C16.615 48.1828 17.283 47.906 17.7532 47.4341L17.8197 47.3746L21.9065 51.4615L21.3974 51.9281ZM23.2159 50.2604L19.1379 46.1824L20.3098 45.1232L24.3807 49.1941L23.2159 50.2604Z" fill="#1F242C"/>
<path d="M52.276 0H39.8566C38.3893 0 37.1953 1.19403 37.1953 2.66129V9.75806C37.1953 11.2253 38.3893 12.4194 39.8566 12.4194H42.226L41.3088 17.7694L49.8693 12.4194H52.276C53.7432 12.4194 54.9372 11.2253 54.9372 9.75806V2.66129C54.9372 1.19403 53.7432 0 52.276 0ZM53.1631 9.75806C53.1631 10.2469 52.7647 10.6452 52.276 10.6452H49.3601L43.7261 14.166L44.3302 10.6452H39.8566C39.3678 10.6452 38.9695 10.2469 38.9695 9.75806V2.66129C38.9695 2.1725 39.3678 1.77419 39.8566 1.77419H52.276C52.7647 1.77419 53.1631 2.1725 53.1631 2.66129V9.75806Z" fill="#1F242C"/>
<path d="M51.3873 3.54883H40.7422V5.32302H51.3873V3.54883Z" fill="#1F242C"/>
<path d="M47.839 7.09668H40.7422V8.87087H47.839V7.09668Z" fill="#1F242C"/>
<path d="M51.3875 7.09668H49.6133V8.87087H51.3875V7.09668Z" fill="#1F242C"/>
<path d="M27.4356 2.66113C15.8448 2.66113 5.86056 10.6787 3.26492 21.8623L1.58387 19.06L0.0625 19.9728L3.18065 25.1686L8.37637 22.0504L7.46355 20.529L5.05952 21.9715C7.57355 11.7406 16.7736 4.43533 27.4356 4.43533C29.766 4.43533 32.0654 4.78129 34.2698 5.46436L34.795 3.77C32.4202 3.03371 29.9444 2.66113 27.4356 2.66113Z" fill="#1F242C"/>
<path d="M54.5061 19.6426L49.3103 16.5244L46.1931 21.721L47.7144 22.6338L49.2669 20.0462C50.0839 22.4369 50.5017 24.9376 50.5017 27.5005C50.5017 32.776 48.6743 37.9336 45.3574 42.0222L46.7351 43.14C50.3083 38.7364 52.2759 33.1814 52.2759 27.5005C52.2759 24.7868 51.8385 22.1371 50.986 19.6L53.5932 21.1639L54.5061 19.6426Z" fill="#1F242C"/>
</g>
<defs>
<clipPath id="clip0_4146_60">
<rect width="55" height="55" fill="white"/>
</clipPath>
</defs>
</svg>
