<svg width="120" height="121" viewBox="0 0 120 121" fill="none" xmlns="http://www.w3.org/2000/svg">
<g clip-path="url(#clip0_3917_2265)">
<path d="M119.976 46.8082C119.963 46.6704 119.936 46.5344 119.894 46.4026C119.866 46.2848 119.828 46.1697 119.78 46.0588C119.724 45.9503 119.657 45.8478 119.58 45.7529C119.503 45.6403 119.414 45.5364 119.314 45.443C119.282 45.4152 119.268 45.377 119.234 45.3491L99.9991 30.4218V14.9509C99.9991 11.6397 97.3125 8.95516 93.9988 8.95516H72.3236L63.645 2.22189C62.6029 1.4098 61.3193 0.96875 59.9978 0.96875C58.6763 0.96875 57.3926 1.4098 56.3506 2.22189L47.6701 8.95516H25.9949C22.6812 8.95516 19.9946 11.6394 19.9946 14.9509V30.422L0.765742 45.3493C0.731756 45.3775 0.717693 45.4154 0.685816 45.4433C0.586116 45.5366 0.496911 45.6405 0.419787 45.7531C0.342842 45.848 0.275846 45.9505 0.219855 46.059C0.17141 46.1699 0.133279 46.285 0.105943 46.4028C0.0642674 46.5327 0.0367626 46.6668 0.0239075 46.8026C0.0239075 46.8445 0 46.8806 0 46.9225V114.88C0.00277164 116.151 0.414361 117.388 1.17404 118.407C1.186 118.425 1.18811 118.447 1.20194 118.463C1.216 118.479 1.246 118.497 1.26592 118.519C1.8203 119.248 2.53511 119.84 3.35503 120.248C4.17495 120.657 5.07798 120.872 5.99421 120.876H114C114.919 120.873 115.826 120.658 116.649 120.247C117.472 119.837 118.189 119.242 118.744 118.509C118.76 118.49 118.784 118.483 118.798 118.464C118.812 118.444 118.814 118.426 118.826 118.408C119.586 117.388 119.997 116.151 120 114.88V46.9282C120 46.8862 119.978 46.8502 119.976 46.8082ZM58.7967 5.37551C59.1359 5.10617 59.5564 4.95956 59.9897 4.95956C60.423 4.95956 60.8435 5.10617 61.1827 5.37551L65.7969 8.95492H54.1963L58.7967 5.37551ZM6.49814 116.879L58.7969 76.2853C59.1363 76.0164 59.5568 75.8701 59.9899 75.8701C60.4231 75.8701 60.8435 76.0164 61.1829 76.2853L113.496 116.879H6.49814ZM116 113.763L63.645 73.1314C62.6026 72.32 61.3191 71.8794 59.9978 71.8794C58.6765 71.8794 57.3929 72.32 56.3506 73.1314L3.99395 113.763V49.9719L36.7697 75.404C36.9773 75.5649 37.2146 75.6833 37.4681 75.7526C37.7215 75.8218 37.9862 75.8405 38.2469 75.8076C38.5075 75.7746 38.7592 75.6907 38.9874 75.5605C39.2156 75.4304 39.4159 75.2566 39.5769 75.0491C39.738 74.8417 39.8565 74.6045 39.9258 74.3513C39.9951 74.098 40.0138 73.8336 39.9808 73.5731C39.9479 73.3126 39.8639 73.0612 39.7336 72.8331C39.6034 72.6051 39.4295 72.4049 39.2218 72.244L5.92413 46.4084L19.9948 35.4821V50.9252C19.9948 51.4552 20.2056 51.9635 20.5806 52.3383C20.9557 52.7131 21.4644 52.9237 21.9949 52.9237C22.5253 52.9237 23.034 52.7131 23.4091 52.3383C23.7842 51.9635 23.9949 51.4552 23.9949 50.9252V14.9507C23.9949 14.4206 24.2056 13.9123 24.5807 13.5375C24.9558 13.1627 25.4645 12.9522 25.9949 12.9522H93.9983C94.5287 12.9522 95.0374 13.1627 95.4125 13.5375C95.7876 13.9123 95.9983 14.4206 95.9983 14.9507V50.9252C95.9983 51.4552 96.209 51.9635 96.5841 52.3383C96.9592 52.7131 97.4679 52.9237 97.9983 52.9237C98.5288 52.9237 99.0375 52.7131 99.4126 52.3383C99.7876 51.9635 99.9984 51.4552 99.9984 50.9252V35.4821L114.069 46.4084L80.7135 72.2902C80.503 72.45 80.3262 72.6499 80.1935 72.8784C80.0608 73.1069 79.9748 73.3594 79.9404 73.6213C79.9059 73.8832 79.9238 74.1494 79.993 74.4043C80.0621 74.6593 80.1812 74.898 80.3433 75.1067C80.5053 75.3154 80.7072 75.49 80.9372 75.6202C81.1672 75.7505 81.4208 75.8339 81.6833 75.8656C81.9457 75.8973 82.2119 75.8767 82.4663 75.805C82.7207 75.7333 82.9584 75.6119 83.1656 75.4478L115.999 49.9719V113.763H116Z" fill="url(#paint0_linear_3917_2265)"/>
<path d="M83.9985 48.9265V40.9322C83.9985 27.6868 73.2528 16.9492 59.9973 16.9492C46.7418 16.9492 35.9961 27.6868 35.9961 40.9322C35.9961 54.1777 46.7418 64.9152 59.9973 64.9152C61.102 64.9152 61.9973 64.0205 61.9973 62.9167C61.9973 61.8129 61.102 60.9182 59.9973 60.9182C48.9511 60.9182 39.9964 51.9702 39.9964 40.9324C39.9964 29.8946 48.9511 20.9467 59.9973 20.9467C71.0435 20.9467 79.9983 29.8946 79.9983 40.9324V48.9267C79.9983 51.1343 78.2073 52.9239 75.998 52.9239C73.7886 52.9239 71.9977 51.1343 71.9977 48.9267V40.9324C71.9977 39.8286 71.1023 38.9339 69.9977 38.9339C68.893 38.9339 67.9976 39.8286 67.9976 40.9324C67.9976 45.3475 64.4157 48.9267 59.9973 48.9267C55.5789 48.9267 51.997 45.3475 51.997 40.9324C51.997 36.5174 55.5789 32.9382 59.9973 32.9382C61.102 32.9382 61.9973 32.0435 61.9973 30.9397C61.9973 29.8359 61.102 28.9412 59.9973 28.9412C54.6263 28.9292 49.9013 32.4848 48.4294 37.6463C46.9574 42.8078 49.0967 48.318 53.6672 51.1369C58.2378 53.9559 64.126 53.397 68.0837 49.7684C68.5191 53.995 72.1955 57.1376 76.4417 56.913C80.688 56.6881 84.0119 53.1755 83.9985 48.9265Z" fill="url(#paint1_linear_3917_2265)"/>
</g>
<defs>
<linearGradient id="paint0_linear_3917_2265" x1="0.0497826" y1="60.9244" x2="120.049" y2="60.9244" gradientUnits="userSpaceOnUse">
<stop stop-color="#F69220"/>
<stop offset="0.2863" stop-color="#F68E20"/>
<stop offset="0.5401" stop-color="#F48421"/>
<stop offset="0.7807" stop-color="#F37221"/>
<stop offset="1" stop-color="#F05A22"/>
</linearGradient>
<linearGradient id="paint1_linear_3917_2265" x1="36.016" y1="40.9331" x2="84.0181" y2="40.9331" gradientUnits="userSpaceOnUse">
<stop stop-color="#F69220"/>
<stop offset="0.2863" stop-color="#F68E20"/>
<stop offset="0.5401" stop-color="#F48421"/>
<stop offset="0.7807" stop-color="#F37221"/>
<stop offset="1" stop-color="#F05A22"/>
</linearGradient>
<clipPath id="clip0_3917_2265">
<rect width="120" height="119.909" fill="white" transform="translate(0 0.96875)"/>
</clipPath>
</defs>
</svg>
