<svg width="20" height="20" viewBox="0 0 20 20" fill="none" xmlns="http://www.w3.org/2000/svg">
<path fill-rule="evenodd" clip-rule="evenodd" d="M1.66536 5.83342H11.807C11.9792 6.32137 12.2985 6.74389 12.7209 7.04276C13.1432 7.34163 13.6479 7.50213 14.1654 7.50213C14.6828 7.50213 15.1875 7.34163 15.6099 7.04276C16.0322 6.74389 16.3515 6.32137 16.5237 5.83342H18.332C18.553 5.83342 18.765 5.74562 18.9213 5.58934C19.0776 5.43306 19.1654 5.2211 19.1654 5.00009C19.1654 4.77908 19.0776 4.56711 18.9213 4.41083C18.765 4.25455 18.553 4.16676 18.332 4.16676H16.5237C16.3515 3.67881 16.0322 3.25628 15.6099 2.95741C15.1875 2.65854 14.6828 2.49805 14.1654 2.49805C13.6479 2.49805 13.1432 2.65854 12.7209 2.95741C12.2985 3.25628 11.9792 3.67881 11.807 4.16676H1.66536C1.44435 4.16676 1.23239 4.25455 1.07611 4.41083C0.919829 4.56711 0.832031 4.77908 0.832031 5.00009C0.832031 5.2211 0.919829 5.43306 1.07611 5.58934C1.23239 5.74562 1.44435 5.83342 1.66536 5.83342ZM14.1654 4.16676C13.9444 4.16676 13.7324 4.25455 13.5761 4.41083C13.4198 4.56711 13.332 4.77908 13.332 5.00009C13.332 5.2211 13.4198 5.43306 13.5761 5.58934C13.7324 5.74562 13.9444 5.83342 14.1654 5.83342C14.3864 5.83342 14.5983 5.74562 14.7546 5.58934C14.9109 5.43306 14.9987 5.2211 14.9987 5.00009C14.9987 4.77908 14.9109 4.56711 14.7546 4.41083C14.5983 4.25455 14.3864 4.16676 14.1654 4.16676ZM3.4737 10.8334H1.66536C1.44435 10.8334 1.23239 10.7456 1.07611 10.5893C0.919829 10.4331 0.832031 10.2211 0.832031 10.0001C0.832031 9.77908 0.919829 9.56711 1.07611 9.41083C1.23239 9.25455 1.44435 9.16676 1.66536 9.16676H3.4737C3.64587 8.67881 3.96515 8.25628 4.38753 7.95741C4.80991 7.65854 5.3146 7.49805 5.83203 7.49805C6.34946 7.49805 6.85415 7.65854 7.27653 7.95741C7.69892 8.25628 8.0182 8.67881 8.19036 9.16676H18.332C18.553 9.16676 18.765 9.25455 18.9213 9.41083C19.0776 9.56711 19.1654 9.77908 19.1654 10.0001C19.1654 10.2211 19.0776 10.4331 18.9213 10.5893C18.765 10.7456 18.553 10.8334 18.332 10.8334H8.19036C8.0182 11.3214 7.69892 11.7439 7.27653 12.0428C6.85415 12.3416 6.34946 12.5021 5.83203 12.5021C5.3146 12.5021 4.80991 12.3416 4.38753 12.0428C3.96515 11.7439 3.64587 11.3214 3.4737 10.8334ZM4.9987 10.0001C4.9987 9.77908 5.0865 9.56711 5.24278 9.41083C5.39906 9.25455 5.61102 9.16676 5.83203 9.16676C6.05305 9.16676 6.26501 9.25455 6.42129 9.41083C6.57757 9.56711 6.66536 9.77908 6.66536 10.0001C6.66536 10.2211 6.57757 10.4331 6.42129 10.5893C6.26501 10.7456 6.05305 10.8334 5.83203 10.8334C5.61102 10.8334 5.39906 10.7456 5.24278 10.5893C5.0865 10.4331 4.9987 10.2211 4.9987 10.0001ZM11.807 15.8334H1.66536C1.44435 15.8334 1.23239 15.7456 1.07611 15.5893C0.919829 15.4331 0.832031 15.2211 0.832031 15.0001C0.832031 14.7791 0.919829 14.5671 1.07611 14.4108C1.23239 14.2546 1.44435 14.1668 1.66536 14.1668H11.807C11.9792 13.6788 12.2985 13.2563 12.7209 12.9574C13.1432 12.6585 13.6479 12.498 14.1654 12.498C14.6828 12.498 15.1875 12.6585 15.6099 12.9574C16.0322 13.2563 16.3515 13.6788 16.5237 14.1668H18.332C18.553 14.1668 18.765 14.2546 18.9213 14.4108C19.0776 14.5671 19.1654 14.7791 19.1654 15.0001C19.1654 15.2211 19.0776 15.4331 18.9213 15.5893C18.765 15.7456 18.553 15.8334 18.332 15.8334H16.5237C16.3515 16.3214 16.0322 16.7439 15.6099 17.0428C15.1875 17.3416 14.6828 17.5021 14.1654 17.5021C13.6479 17.5021 13.1432 17.3416 12.7209 17.0428C12.2985 16.7439 11.9792 16.3214 11.807 15.8334ZM13.332 15.0001C13.332 14.7791 13.4198 14.5671 13.5761 14.4108C13.7324 14.2546 13.9444 14.1668 14.1654 14.1668C14.3864 14.1668 14.5983 14.2546 14.7546 14.4108C14.9109 14.5671 14.9987 14.7791 14.9987 15.0001C14.9987 15.2211 14.9109 15.4331 14.7546 15.5893C14.5983 15.7456 14.3864 15.8334 14.1654 15.8334C13.9444 15.8334 13.7324 15.7456 13.5761 15.5893C13.4198 15.4331 13.332 15.2211 13.332 15.0001Z" fill="#777777"/>
</svg>
