<svg width="55" height="55" viewBox="0 0 55 55" fill="none" xmlns="http://www.w3.org/2000/svg">
<g clip-path="url(#clip0_4187_32)">
<path d="M38.2816 38.3121C37.3354 36.6735 35.8084 35.5016 33.981 35.0119C32.1532 34.5222 30.2447 34.7739 28.6066 35.7198L25.475 37.5275C24.313 38.1984 22.854 37.8774 22.0811 36.7801C19.0414 32.464 16.3756 27.8461 14.1571 23.0553C13.5935 21.8376 14.0446 20.4134 15.2069 19.7425L17.3155 18.5251C17.3155 18.5247 17.3155 18.5247 17.3155 18.5247L18.3381 17.9347C19.9767 16.9889 21.1487 15.4615 21.6384 13.6341C22.1277 11.8067 21.8767 9.89783 20.9305 8.25965L18.245 3.60737C16.2921 0.22526 11.952 -0.937916 8.56946 1.01498C5.06944 3.03543 2.38683 6.24214 1.01553 10.0439C-0.35578 13.8456 -0.337736 18.0262 1.0663 21.8158C4.70144 31.626 9.93069 40.6834 16.6089 48.7367C19.1887 51.8473 22.8003 53.9533 26.7783 54.6667C27.7799 54.8463 28.7899 54.9348 29.7974 54.9348C32.791 54.9348 35.756 54.151 38.3748 52.6391C40.013 51.6933 41.1854 50.1659 41.6747 48.3385C42.1644 46.511 41.913 44.6022 40.9672 42.964L38.2816 38.3121ZM18.2588 47.3683C11.735 39.5018 6.62705 30.6542 3.07626 21.071C0.527932 14.193 3.28859 6.53881 9.64116 2.87094C10.417 2.42321 11.2651 2.21046 12.1026 2.21046C13.8109 2.21046 15.4747 3.09627 16.3886 4.67907L19.0741 9.33093C20.4362 11.6896 19.6251 14.7163 17.2664 16.0784L17.172 16.1329L13.0442 8.98349C12.7484 8.47114 12.093 8.29532 11.5802 8.59115C11.0674 8.8874 10.892 9.54284 11.1879 10.0552L15.3156 17.2046L14.1348 17.8861C12.0057 19.1151 11.1791 21.7247 12.2121 23.9558C14.4844 28.8628 17.2152 33.5927 20.3288 38.0142C21.7442 40.0238 24.4171 40.6129 26.5467 39.3839L27.7275 38.702L35.268 51.7638C29.317 54.1044 22.4533 52.4259 18.2588 47.3683ZM37.3031 50.7827C37.2716 50.8012 37.2397 50.8184 37.2078 50.8364L29.5834 37.6303L29.6783 37.5757C30.8209 36.9161 32.1519 36.7407 33.4263 37.0823C34.7006 37.4238 35.7656 38.2412 36.4253 39.3839L39.1112 44.0357C40.4729 46.3944 39.6618 49.4211 37.3031 50.7827Z" fill="white"/>
<path d="M11.3582 6.351C11.3582 6.06943 11.2437 5.79291 11.0444 5.59359C10.8451 5.39385 10.5694 5.2793 10.2865 5.2793C10.005 5.2793 9.72845 5.39385 9.52914 5.59359C9.32982 5.79291 9.21484 6.06943 9.21484 6.351C9.21484 6.63298 9.3294 6.90951 9.52914 7.10882C9.72845 7.30814 10.005 7.4227 10.2865 7.4227C10.5698 7.4227 10.8451 7.30814 11.0444 7.10882C11.2437 6.90951 11.3582 6.63298 11.3582 6.351Z" fill="white"/>
<path d="M24.6518 28.5729H29.1685C29.7602 28.5729 30.2402 28.0929 30.2402 27.5008C30.2402 26.9091 29.7602 26.4291 29.1685 26.4291H25.7235V25.4476C25.7235 24.9067 26.1637 24.4666 26.7045 24.4666H27.1153C28.8383 24.4666 30.2402 23.0646 30.2402 21.3417C30.2402 19.6183 28.8383 18.2168 27.1153 18.2168H24.6518C24.0597 18.2168 23.5801 18.6964 23.5801 19.2885C23.5801 19.8802 24.0597 20.3602 24.6518 20.3602H27.1153C27.6567 20.3602 28.0968 20.8004 28.0968 21.3417C28.0968 21.883 27.6567 22.3232 27.1153 22.3232H26.7045C24.9816 22.3232 23.5801 23.7247 23.5801 25.4476V27.5008C23.5801 28.0929 24.0597 28.5729 24.6518 28.5729Z" fill="white"/>
<path d="M32.8061 17.8555C32.214 17.8555 31.7344 18.3355 31.7344 18.9272V22.0231C31.7344 23.3978 32.8527 24.516 34.2273 24.516H36.2511V27.5012C36.2511 28.0928 36.7312 28.5729 37.3228 28.5729C37.9145 28.5729 38.3945 28.0928 38.3945 27.5012V18.9272C38.3945 18.3355 37.9145 17.8555 37.3228 17.8555C36.7312 17.8555 36.2511 18.3355 36.2511 18.9272V22.3722H34.2273C34.0343 22.3722 33.8778 22.2157 33.8778 22.0231V18.9272C33.8778 18.3355 33.3977 17.8555 32.8061 17.8555Z" fill="white"/>
<path d="M46.4863 27.5008V25.2424C46.4863 23.4062 44.9925 21.9123 43.1562 21.9123C42.7383 21.9123 42.3384 21.9904 41.9696 22.1318V18.9276C41.9696 18.3355 41.4895 17.8555 40.8979 17.8555C40.3062 17.8555 39.8262 18.3355 39.8262 18.9276V27.5012C39.8262 28.0928 40.3062 28.5729 40.8979 28.5729C41.4895 28.5729 41.9696 28.0928 41.9696 27.5012V25.2424C41.9696 24.5882 42.5021 24.0557 43.1562 24.0557C43.8104 24.0557 44.3429 24.5882 44.3429 25.2424V27.5008C44.3429 28.0928 44.823 28.5729 45.4146 28.5729C46.0067 28.5729 46.4863 28.0928 46.4863 27.5008Z" fill="white"/>
<path d="M27.5639 2.20883L27.6931 2.20925H27.6982C28.2877 2.20925 28.7673 1.73257 28.7699 1.14258C28.7728 0.550506 28.2949 0.068367 27.7032 0.0658493L27.5639 0.0654297C26.9722 0.0654297 26.4922 0.545051 26.4922 1.13713C26.4922 1.72879 26.9718 2.20883 27.5639 2.20883Z" fill="white"/>
<path d="M48.3999 9.65176C44.1903 4.74225 38.3761 1.46631 32.0282 0.427338C31.4428 0.331666 30.8927 0.727784 30.7975 1.31147C30.7018 1.89558 31.0979 2.44695 31.682 2.5422C43.9512 4.55091 52.8563 15.0476 52.8563 27.5014C52.8563 34.2572 50.2253 40.609 45.4484 45.3859C45.0296 45.8042 45.0296 46.4827 45.4484 46.9015C45.6577 47.1109 45.9318 47.2154 46.2062 47.2154C46.4802 47.2154 46.7546 47.1109 46.964 46.9015C52.1459 41.7197 54.9997 34.83 54.9997 27.5014C54.9997 20.9545 52.6557 14.6154 48.3999 9.65176Z" fill="white"/>
</g>
<defs>
<clipPath id="clip0_4187_32">
<rect width="55" height="55" fill="white"/>
</clipPath>
</defs>
</svg>
