<svg width="55" height="55" viewBox="0 0 55 55" fill="none" xmlns="http://www.w3.org/2000/svg">
<path d="M45.4805 14.6318C45.3779 14.6318 45.2756 14.6019 45.1872 14.5429L38.841 10.3121C38.6939 10.2141 38.6055 10.049 38.6055 9.87214V2.11576C38.6055 1.82373 38.8422 1.58691 39.1343 1.58691H45.4805C45.7726 1.58691 46.0093 1.82373 46.0093 2.11576V14.1029C46.0093 14.2979 45.902 14.4771 45.73 14.5691C45.6518 14.6111 45.5661 14.6318 45.4805 14.6318ZM39.6632 9.5892L44.9516 13.1148V2.64461H39.6632V9.5892Z" fill="#181616"/>
<path d="M52.8841 19.5677H2.11486C1.88185 19.5677 1.67623 19.4152 1.60864 19.1921C1.54116 18.9691 1.62758 18.7281 1.82145 18.5988L27.2061 1.67576C27.3838 1.5573 27.6151 1.5573 27.7928 1.67576L53.1774 18.5988C53.3713 18.7281 53.4577 18.969 53.3902 19.1921C53.3227 19.4152 53.1171 19.5677 52.8841 19.5677ZM3.86153 18.51H51.1374L27.4995 2.75133L3.86153 18.51Z" fill="#181616"/>
<path d="M48.6529 53.4136H6.34525C6.05322 53.4136 5.81641 53.1769 5.81641 52.8848V19.0386C5.81641 18.7466 6.05322 18.5098 6.34525 18.5098H48.6529C48.9451 18.5098 49.1818 18.7466 49.1818 19.0386V52.8848C49.1818 53.1769 48.9451 53.4136 48.6529 53.4136ZM6.8741 52.3559H48.1241V19.5675H6.8741V52.3559Z" fill="#181616"/>
<path d="M27.4988 15.3365C25.4576 15.3365 23.7969 13.6758 23.7969 11.6345C23.7969 9.5933 25.4576 7.93262 27.4988 7.93262C29.54 7.93262 31.2007 9.5933 31.2007 11.6345C31.2007 13.6758 29.54 15.3365 27.4988 15.3365ZM27.4988 8.99031C26.0408 8.99031 24.8546 10.1765 24.8546 11.6345C24.8546 13.0926 26.0408 14.2788 27.4988 14.2788C28.9568 14.2788 30.143 13.0926 30.143 11.6345C30.143 10.1765 28.9568 8.99031 27.4988 8.99031Z" fill="#181616"/>
<path d="M16.9217 38.6061C14.2973 38.6061 12.1621 36.471 12.1621 33.8465C12.1621 31.2221 14.2973 29.0869 16.9217 29.0869C19.5462 29.0869 21.6813 31.2221 21.6813 33.8465C21.6813 36.471 19.5462 38.6061 16.9217 38.6061ZM16.9217 30.1446C14.8805 30.1446 13.2198 31.8053 13.2198 33.8465C13.2198 35.8878 14.8805 37.5485 16.9217 37.5485C18.963 37.5485 20.6236 35.8878 20.6236 33.8465C20.6236 31.8053 18.963 30.1446 16.9217 30.1446Z" fill="#181616"/>
<path d="M37.0194 38.6061C34.3949 38.6061 32.2598 36.471 32.2598 33.8465C32.2598 31.2221 34.3949 29.0869 37.0194 29.0869C39.6438 29.0869 41.779 31.2221 41.779 33.8465C41.779 36.471 39.6438 38.6061 37.0194 38.6061ZM37.0194 30.1446C34.9781 30.1446 33.3175 31.8053 33.3175 33.8465C33.3175 35.8878 34.9781 37.5485 37.0194 37.5485C39.0606 37.5485 40.7213 35.8878 40.7213 33.8465C40.7213 31.8053 39.0606 30.1446 37.0194 30.1446Z" fill="#181616"/>
<path d="M43.3657 49.1834H30.6734C30.3812 49.1834 30.1445 48.9467 30.1445 48.6546V44.4238C30.1445 40.633 33.2287 37.5488 37.0195 37.5488C40.8104 37.5488 43.8945 40.633 43.8945 44.4238V48.6546C43.8945 48.9467 43.6578 49.1834 43.3657 49.1834ZM31.2022 48.1258H42.8368V44.4238C42.8368 41.2162 40.2272 38.6065 37.0195 38.6065C33.8119 38.6065 31.2022 41.2162 31.2022 44.4238V48.1258Z" fill="#181616"/>
<path d="M23.268 49.1834H10.5757C10.2837 49.1834 10.0469 48.9467 10.0469 48.6546V44.4238C10.0469 40.633 13.131 37.5488 16.9219 37.5488C20.7128 37.5488 23.7969 40.633 23.7969 44.4238V48.6546C23.7969 48.9467 23.5601 49.1834 23.268 49.1834ZM11.1046 48.1258H22.7392V44.4238C22.7392 41.2162 20.1295 38.6065 16.9219 38.6065C13.7142 38.6065 11.1046 41.2162 11.1046 44.4238V48.1258Z" fill="#181616"/>
</svg>
