<svg width="55" height="55" viewBox="0 0 55 55" fill="none" xmlns="http://www.w3.org/2000/svg">
<path d="M27.4994 53.4138C24.1729 53.4138 21.0804 50.6638 18.7917 45.6704C16.5633 40.8082 15.3359 34.3553 15.3359 27.5004C15.3359 20.6455 16.5633 14.1926 18.7917 9.33039C21.0804 4.33691 24.1729 1.58691 27.4994 1.58691C30.8259 1.58691 33.9183 4.33691 36.2071 9.33039C38.4355 14.1926 39.6629 20.6455 39.6629 27.5004C39.6629 34.3553 38.4355 40.8082 36.2071 45.6704C33.9183 50.6638 30.8259 53.4138 27.4994 53.4138ZM27.4994 2.64461C24.6105 2.64461 21.8596 5.17556 19.7533 9.77102C17.5867 14.498 16.3936 20.7943 16.3936 27.5004C16.3936 34.2064 17.5867 40.5028 19.7533 45.2296C21.8596 49.8252 24.6105 52.3561 27.4994 52.3561C30.3883 52.3561 33.1392 49.8252 35.2455 45.2296C37.4121 40.5028 38.6052 34.2064 38.6052 27.5004C38.6052 20.7944 37.4121 14.498 35.2455 9.77102C33.1392 5.17556 30.3883 2.64461 27.4994 2.64461Z" fill="#181616"/>
<path d="M46.4179 44.9525C46.3299 44.9525 46.2413 44.9306 46.1602 44.8853C41.4232 42.2393 34.6216 40.7217 27.4994 40.7217C20.3772 40.7217 13.5756 42.2393 8.83853 44.8853C8.62245 45.0061 8.35157 44.9608 8.18657 44.7763C3.9301 40.0211 1.58594 33.8857 1.58594 27.5005C1.58594 21.3418 3.7852 15.3723 7.77862 10.6916C7.94965 10.491 8.24199 10.447 8.46443 10.5883C13.2176 13.6063 20.1556 15.3371 27.4994 15.3371C34.8432 15.3371 41.7811 13.6063 46.5345 10.5883C46.7568 10.4471 47.0494 10.4912 47.2202 10.6916C51.2136 15.3723 53.4129 21.3418 53.4129 27.5005C53.4129 33.8858 51.0687 40.0212 46.8122 44.7763C46.709 44.8915 46.5645 44.9525 46.4179 44.9525ZM27.4994 39.664C34.6116 39.664 41.4321 41.1523 46.3006 43.7566C50.2081 39.2413 52.3552 33.4853 52.3552 27.5005C52.3552 21.7448 50.3526 16.1614 46.707 11.726C41.8053 14.6972 34.8393 16.3948 27.4994 16.3948C20.1594 16.3948 13.1934 14.6972 8.29192 11.726C4.64605 16.1614 2.64363 21.7448 2.64363 27.5005C2.64363 33.4853 4.79074 39.2413 8.69807 43.7566C13.5667 41.1523 20.3871 39.664 27.4994 39.664Z" fill="#181616"/>
<path d="M27.4977 16.3946C19.9586 16.3946 12.8139 14.6037 7.89572 11.4811C7.76636 11.399 7.679 11.2648 7.65626 11.1133C7.63352 10.9619 7.67752 10.8079 7.77694 10.6914C12.7133 4.90542 19.9013 1.58691 27.4977 1.58691C35.0942 1.58691 42.282 4.90542 47.2185 10.6914C47.3179 10.808 47.3619 10.9619 47.3392 11.1133C47.3164 11.2648 47.229 11.399 47.0996 11.4811C42.1814 14.6037 35.0367 16.3946 27.4977 16.3946ZM8.98916 10.912C13.7204 13.7295 20.4206 15.3369 27.4977 15.3369C34.5747 15.3369 41.275 13.7295 46.0063 10.912C41.2878 5.64983 34.5777 2.64461 27.4977 2.64461C20.4177 2.64461 13.7076 5.64993 8.98916 10.912Z" fill="#181616"/>
<path d="M27.4984 53.4141C20.1386 53.4141 13.0993 50.2657 8.18561 44.7764C8.07847 44.6567 8.0315 44.4949 8.05805 44.3365C8.08449 44.1781 8.18159 44.0403 8.32174 43.962C13.2117 41.2306 20.2013 39.6641 27.4984 39.6641C34.7956 39.6641 41.7852 41.2306 46.6751 43.962C46.8153 44.0403 46.9124 44.1781 46.9388 44.3365C46.9653 44.4949 46.9184 44.6567 46.8113 44.7764C41.8975 50.2657 34.8583 53.4141 27.4984 53.4141ZM9.42935 44.5663C14.1165 49.5252 20.6634 52.3564 27.4984 52.3564C34.3333 52.3564 40.8804 49.5252 45.5675 44.5663C40.865 42.1176 34.3293 40.7218 27.4984 40.7218C20.6675 40.7218 14.1319 42.1176 9.42935 44.5663Z" fill="#181616"/>
<path d="M27.4995 53.4138C27.2074 53.4138 26.9707 53.1771 26.9707 52.885V2.11576C26.9707 1.82373 27.2074 1.58691 27.4995 1.58691C27.7917 1.58691 28.0284 1.82373 28.0284 2.11576V52.885C28.0284 53.1771 27.7917 53.4138 27.4995 53.4138Z" fill="#181616"/>
<path d="M52.884 28.0294H2.11478C1.82275 28.0294 1.58594 27.7927 1.58594 27.5005C1.58594 27.2084 1.82275 26.9717 2.11478 26.9717H52.884C53.1762 26.9717 53.4129 27.2084 53.4129 27.5005C53.4129 27.7927 53.1762 28.0294 52.884 28.0294Z" fill="#181616"/>
</svg>
