<svg width="55" height="55" viewBox="0 0 55 55" fill="none" xmlns="http://www.w3.org/2000/svg">
<path d="M52.884 53.4141H2.11478C1.82275 53.4141 1.58594 53.1774 1.58594 52.8853C1.58594 52.5932 1.82275 52.3564 2.11478 52.3564H52.884C53.1762 52.3564 53.4129 52.5932 53.4129 52.8853C53.4129 53.1774 53.1762 53.4141 52.884 53.4141Z" fill="#181616"/>
<path d="M49.7117 53.4135H5.28861C4.99658 53.4135 4.75977 53.1768 4.75977 52.8846V48.6538C4.75977 48.3617 4.99658 48.125 5.28861 48.125H49.7117C50.0038 48.125 50.2405 48.3617 50.2405 48.6538V52.8846C50.2405 53.1768 50.0038 53.4135 49.7117 53.4135ZM5.81746 52.3558H49.1828V49.1827H5.81746V52.3558Z" fill="#181616"/>
<path d="M46.5374 49.183H8.46049C8.16846 49.183 7.93164 48.9463 7.93164 48.6541V44.4234C7.93164 44.1312 8.16846 43.8945 8.46049 43.8945H46.5374C46.8295 43.8945 47.0663 44.1312 47.0663 44.4234V48.6541C47.0663 48.9463 46.8295 49.183 46.5374 49.183ZM8.98933 48.1253H46.0086V44.9522H8.98933V48.1253Z" fill="#181616"/>
<path d="M16.9217 40.722H12.691C12.3989 40.722 12.1621 40.4853 12.1621 40.1931V23.2701C12.1621 22.978 12.3989 22.7412 12.691 22.7412H16.9217C17.2138 22.7412 17.4506 22.978 17.4506 23.2701V40.1931C17.4506 40.4853 17.2138 40.722 16.9217 40.722ZM13.2198 39.6643H16.3929V23.7989H13.2198V39.6643Z" fill="#181616"/>
<path d="M29.6151 40.722H25.3843C25.0923 40.722 24.8555 40.4853 24.8555 40.1931V23.2701C24.8555 22.978 25.0923 22.7412 25.3843 22.7412H29.6151C29.9072 22.7412 30.1439 22.978 30.1439 23.2701V40.1931C30.1439 40.4853 29.9072 40.722 29.6151 40.722ZM25.9132 39.6643H29.0862V23.7989H25.9132V39.6643Z" fill="#181616"/>
<path d="M42.3065 40.722H38.0757C37.7836 40.722 37.5469 40.4853 37.5469 40.1931V23.2701C37.5469 22.978 37.7836 22.7412 38.0757 22.7412H42.3065C42.5986 22.7412 42.8353 22.978 42.8353 23.2701V40.1931C42.8353 40.4853 42.5986 40.722 42.3065 40.722ZM38.6046 39.6643H41.7776V23.7989H38.6046V39.6643Z" fill="#181616"/>
<path d="M47.5953 19.5678H6.34525C6.05322 19.5678 5.81641 19.3309 5.81641 19.0389V14.8081C5.81641 14.5161 6.05322 14.2793 6.34525 14.2793H47.5953C47.8874 14.2793 48.1241 14.5161 48.1241 14.8081V19.0389C48.1241 19.3309 47.8874 19.5678 47.5953 19.5678ZM6.8741 18.5101H47.0664V15.337H6.8741V18.5101Z" fill="#181616"/>
<path d="M44.424 15.3369C44.4234 15.3368 44.4225 15.3369 44.4219 15.3369H10.5757C10.2837 15.3369 10.0469 15.1001 10.0469 14.8081C10.0469 7.51792 15.9779 1.58691 23.268 1.58691H31.7296C39.0036 1.58691 44.9247 7.49127 44.9506 14.7595C44.9521 14.7755 44.9528 14.7918 44.9528 14.8081C44.9528 15.1001 44.716 15.3369 44.424 15.3369ZM11.1159 14.2792H43.8816C43.6037 7.81672 38.2592 2.64461 31.7296 2.64461H23.268C16.7384 2.64461 11.3938 7.81672 11.1159 14.2792Z" fill="#181616"/>
<path d="M19.0373 23.7982H10.5757C10.2837 23.7982 10.0469 23.5614 10.0469 23.2694V19.0386C10.0469 18.7466 10.2837 18.5098 10.5757 18.5098H19.0373C19.3293 18.5098 19.5661 18.7466 19.5661 19.0386V23.2694C19.5661 23.5614 19.3293 23.7982 19.0373 23.7982ZM11.1046 22.7405H18.5084V19.5675H11.1046V22.7405Z" fill="#181616"/>
<path d="M31.7306 23.7982H23.2691C22.9771 23.7982 22.7402 23.5614 22.7402 23.2694V19.0386C22.7402 18.7466 22.9771 18.5098 23.2691 18.5098H31.7306C32.0228 18.5098 32.2595 18.7466 32.2595 19.0386V23.2694C32.2595 23.5614 32.0228 23.7982 31.7306 23.7982ZM23.7979 22.7405H31.2018V19.5675H23.7979V22.7405Z" fill="#181616"/>
<path d="M44.422 23.7982H35.9605C35.6684 23.7982 35.4316 23.5614 35.4316 23.2694V19.0386C35.4316 18.7466 35.6684 18.5098 35.9605 18.5098H44.422C44.7142 18.5098 44.9509 18.7466 44.9509 19.0386V23.2694C44.9509 23.5614 44.7142 23.7982 44.422 23.7982ZM36.4893 22.7405H43.8932V19.5675H36.4893V22.7405Z" fill="#181616"/>
<path d="M19.0373 44.9525H10.5757C10.2837 44.9525 10.0469 44.7158 10.0469 44.4237V40.1929C10.0469 39.9008 10.2837 39.6641 10.5757 39.6641H19.0373C19.3293 39.6641 19.5661 39.9008 19.5661 40.1929V44.4237C19.5661 44.7158 19.3293 44.9525 19.0373 44.9525ZM11.1046 43.8948H18.5084V40.7218H11.1046V43.8948Z" fill="#181616"/>
<path d="M31.7306 44.9525H23.2691C22.9771 44.9525 22.7402 44.7158 22.7402 44.4237V40.1929C22.7402 39.9008 22.9771 39.6641 23.2691 39.6641H31.7306C32.0228 39.6641 32.2595 39.9008 32.2595 40.1929V44.4237C32.2595 44.7158 32.0228 44.9525 31.7306 44.9525ZM23.7979 43.8948H31.2018V40.7218H23.7979V43.8948Z" fill="#181616"/>
<path d="M44.422 44.9525H35.9605C35.6684 44.9525 35.4316 44.7158 35.4316 44.4237V40.1929C35.4316 39.9008 35.6684 39.6641 35.9605 39.6641H44.422C44.7142 39.6641 44.9509 39.9008 44.9509 40.1929V44.4237C44.9509 44.7158 44.7142 44.9525 44.422 44.9525ZM36.4893 43.8948H43.8932V40.7218H36.4893V43.8948Z" fill="#181616"/>
</svg>
