<svg width="55" height="55" viewBox="0 0 55 55" fill="none" xmlns="http://www.w3.org/2000/svg">
<path d="M37.0195 22.6595C36.9049 22.6595 36.7912 22.6223 36.6969 22.5498L32.4661 19.2953C32.336 19.1952 32.2598 19.0403 32.2598 18.8761V14.8081C32.2598 14.5161 32.4965 14.2793 32.7886 14.2793H37.0194C37.3115 14.2793 37.5482 14.5161 37.5482 14.8081V22.1307C37.5482 22.3321 37.4338 22.5161 37.253 22.6051C37.179 22.6416 37.099 22.6595 37.0195 22.6595ZM33.3175 18.6158L36.4905 21.0567V15.337H33.3175V18.6158Z" fill="#181616"/>
<path d="M41.2496 25.9139H13.7496C13.5231 25.9139 13.3219 25.7697 13.2489 25.5553C13.176 25.3409 13.2476 25.1039 13.4272 24.9658L27.1772 14.3889C27.3672 14.2428 27.632 14.2428 27.8221 14.3889L41.5721 24.9658C41.7515 25.104 41.8232 25.3409 41.7503 25.5553C41.6774 25.7697 41.476 25.9139 41.2496 25.9139ZM15.3045 24.8562H39.6948L27.4996 15.4753L15.3045 24.8562Z" fill="#181616"/>
<path d="M38.0772 38.6064H16.9234C16.6313 38.6064 16.3945 38.3697 16.3945 38.0776V25.3853C16.3945 25.0933 16.6313 24.8564 16.9234 24.8564H38.0772C38.3694 24.8564 38.6061 25.0933 38.6061 25.3853V38.0776C38.6061 38.3697 38.3694 38.6064 38.0772 38.6064ZM17.4522 37.5488H37.5484V25.9141H17.4522V37.5488Z" fill="#181616"/>
<path d="M30.6719 38.6061H24.3257C24.0337 38.6061 23.7969 38.3694 23.7969 38.0773V29.6158C23.7969 29.3236 24.0337 29.0869 24.3257 29.0869H30.6719C30.964 29.0869 31.2007 29.3236 31.2007 29.6158V38.0773C31.2007 38.3694 30.964 38.6061 30.6719 38.6061ZM24.8546 37.5485H30.143V30.1446H24.8546V37.5485Z" fill="#181616"/>
<path d="M52.8847 28.0292H48.6539C48.3618 28.0292 48.1251 27.7925 48.1251 27.5004C48.1251 16.1277 38.8727 6.87538 27.5001 6.87538C22.1675 6.87538 17.144 8.8852 13.2946 12.547L15.1818 14.4342C15.3183 14.5707 15.3695 14.7707 15.3156 14.956C15.2616 15.1413 15.1109 15.2825 14.9225 15.3244L5.40328 17.4398C5.22686 17.4792 5.04251 17.4253 4.91463 17.2976C4.78686 17.1697 4.73313 16.9853 4.77237 16.8089L6.88776 7.28967C6.92964 7.10119 7.07084 6.95058 7.25615 6.89663C7.44156 6.8428 7.64157 6.89389 7.77802 7.03043L9.5542 8.80651C14.4031 4.14664 20.7548 1.58691 27.5001 1.58691C34.4217 1.58691 40.9293 4.28234 45.8236 9.17681C50.718 14.0713 53.4135 20.5786 53.4135 27.5004C53.4135 27.7925 53.1768 28.0292 52.8847 28.0292ZM49.1763 26.9715H52.3502C52.0681 13.5089 41.0291 2.64461 27.5001 2.64461C20.8608 2.64461 14.619 5.23003 9.92439 9.9247C9.82518 10.0239 9.69075 10.0795 9.55039 10.0795C9.41003 10.0795 9.2756 10.0238 9.17639 9.9247L7.71117 8.45937L5.98502 16.2269L13.7525 14.5007L12.168 12.9163C11.9614 12.7097 11.9614 12.3748 12.168 12.1684C16.2634 8.07311 21.7085 5.81768 27.5001 5.81768C39.2794 5.81768 48.8949 15.2587 49.1763 26.9715Z" fill="#181616"/>
<path d="M27.4994 53.414C20.5777 53.414 14.0702 50.7186 9.17583 45.8241C4.28147 40.9296 1.58594 34.4222 1.58594 27.5005C1.58594 27.2084 1.82275 26.9717 2.11478 26.9717H6.34555C6.63758 26.9717 6.8744 27.2084 6.8744 27.5005C6.8744 38.8732 16.1268 48.1255 27.4994 48.1255C32.5521 48.1255 37.3786 46.2946 41.1518 42.9585L39.8178 41.6244C39.6907 41.4973 39.6368 41.3142 39.6748 41.1385C39.7129 40.9628 39.8376 40.8185 40.006 40.7553L48.4675 37.5822C48.6491 37.5139 48.8536 37.5508 49.0001 37.6782C49.1466 37.8054 49.2116 38.0027 49.1695 38.1921L47.0541 47.7113C47.0122 47.8997 46.8711 48.0503 46.6857 48.1044C46.5008 48.1582 46.3005 48.107 46.164 47.9705L44.8972 46.7038C40.121 51.0352 33.9636 53.414 27.4994 53.414ZM2.64913 28.0294C2.93122 41.492 13.9704 52.3563 27.4994 52.3563C33.8641 52.3563 39.9189 49.9518 44.5487 45.5856C44.7568 45.3895 45.0832 45.3939 45.2854 45.5965L46.2306 46.5415L47.9253 38.9152L41.1464 41.4573L42.2921 42.6031C42.3936 42.7045 42.4495 42.8429 42.4469 42.9863C42.4445 43.1297 42.3837 43.2661 42.2787 43.3638C38.2526 47.1166 33.0038 49.1832 27.4994 49.1832C15.7201 49.1832 6.10451 39.7422 5.82305 28.0294H2.64913Z" fill="#181616"/>
</svg>
