<svg width="55" height="55" viewBox="0 0 55 55" fill="none" xmlns="http://www.w3.org/2000/svg">
<path d="M37.0195 14.1976C36.9049 14.1976 36.7912 14.1604 36.6969 14.0879L32.4661 10.8334C32.336 10.7333 32.2598 10.5784 32.2598 10.4142V6.34623C32.2598 6.0542 32.4965 5.81738 32.7886 5.81738H37.0194C37.3115 5.81738 37.5482 6.0542 37.5482 6.34623V13.6687C37.5482 13.8702 37.4338 14.0542 37.253 14.1432C37.179 14.1797 37.099 14.1976 37.0195 14.1976ZM33.3175 10.1539L36.4905 12.5948V6.87508H33.3175V10.1539Z" fill="#181616"/>
<path d="M41.2496 17.4519H13.7496C13.5231 17.4519 13.3219 17.3078 13.2489 17.0934C13.176 16.879 13.2476 16.642 13.4272 16.5039L27.1772 5.92701C27.3672 5.78084 27.632 5.78084 27.8221 5.92701L41.5721 16.5039C41.7515 16.6421 41.8232 16.879 41.7503 17.0934C41.6774 17.3078 41.476 17.4519 41.2496 17.4519ZM15.3045 16.3943H39.6948L27.4996 7.01337L15.3045 16.3943Z" fill="#181616"/>
<path d="M38.0772 32.2599H16.9234C16.6313 32.2599 16.3945 32.0232 16.3945 31.7311V16.9234C16.3945 16.6313 16.6313 16.3945 16.9234 16.3945H38.0772C38.3694 16.3945 38.6061 16.6313 38.6061 16.9234V31.7311C38.6061 32.0232 38.3694 32.2599 38.0772 32.2599ZM17.4522 31.2022H37.5484V17.4522H17.4522V31.2022Z" fill="#181616"/>
<path d="M30.6719 32.2596H24.3257C24.0337 32.2596 23.7969 32.0229 23.7969 31.7308V21.1538C23.7969 20.8618 24.0337 20.625 24.3257 20.625H30.6719C30.964 20.625 31.2007 20.8618 31.2007 21.1538V31.7308C31.2007 32.0229 30.964 32.2596 30.6719 32.2596ZM24.8546 31.2019H30.143V21.6827H24.8546V31.2019Z" fill="#181616"/>
<path d="M41.2495 32.2598H13.7495C13.4575 32.2598 13.2207 32.0231 13.2207 31.731C13.2207 31.4389 13.4575 31.2021 13.7495 31.2021H41.2495C41.5417 31.2021 41.7784 31.4389 41.7784 31.731C41.7784 32.0231 41.5417 32.2598 41.2495 32.2598Z" fill="#181616"/>
<path d="M52.884 44.9523H2.11478C1.82275 44.9523 1.58594 44.7156 1.58594 44.4235V2.11576C1.58594 1.82373 1.82275 1.58691 2.11478 1.58691H52.884C53.1762 1.58691 53.4129 1.82373 53.4129 2.11576V44.4235C53.4129 44.7156 53.1762 44.9523 52.884 44.9523ZM2.64363 43.8946H52.3552V2.64461H2.64363V43.8946Z" fill="#181616"/>
<path d="M34.9029 49.183H20.0953C19.8032 49.183 19.5664 48.9463 19.5664 48.6541V44.4234C19.5664 44.1312 19.8032 43.8945 20.0953 43.8945H34.9029C35.1951 43.8945 35.4318 44.1312 35.4318 44.4234V48.6541C35.4318 48.9463 35.1951 49.183 34.9029 49.183ZM20.6241 48.1253H34.3741V44.9522H20.6241V48.1253Z" fill="#181616"/>
<path d="M41.2495 53.4135H13.7495C13.4575 53.4135 13.2207 53.1768 13.2207 52.8846V48.6538C13.2207 48.3617 13.4575 48.125 13.7495 48.125H41.2495C41.5417 48.125 41.7784 48.3617 41.7784 48.6538V52.8846C41.7784 53.1768 41.5417 53.4135 41.2495 53.4135ZM14.2784 52.3558H40.7207V49.1827H14.2784V52.3558Z" fill="#181616"/>
<path d="M27.4991 41.2502C28.0832 41.2502 28.5568 40.7766 28.5568 40.1925C28.5568 39.6083 28.0832 39.1348 27.4991 39.1348C26.915 39.1348 26.4414 39.6083 26.4414 40.1925C26.4414 40.7766 26.915 41.2502 27.4991 41.2502Z" fill="#181616"/>
<path d="M52.884 44.9518H2.11478C1.82275 44.9518 1.58594 44.7151 1.58594 44.423V35.9615C1.58594 35.6693 1.82275 35.4326 2.11478 35.4326H52.884C53.1762 35.4326 53.4129 35.6693 53.4129 35.9615V44.423C53.4129 44.7151 53.1762 44.9518 52.884 44.9518ZM2.64363 43.8942H52.3552V36.4903H2.64363V43.8942Z" fill="#181616"/>
</svg>
