<svg width="55" height="55" viewBox="0 0 55 55" fill="none" xmlns="http://www.w3.org/2000/svg">
<path d="M14.8068 6.87538H6.34525C6.05312 6.87538 5.81641 6.63856 5.81641 6.34653V2.11576C5.81641 1.82373 6.05312 1.58691 6.34525 1.58691H14.8068C15.0988 1.58691 15.3356 1.82373 15.3356 2.11576V6.34653C15.3356 6.63856 15.0988 6.87538 14.8068 6.87538ZM6.8741 5.81768H14.2779V2.64461H6.8741V5.81768Z" fill="#181616"/>
<path d="M14.8068 53.4136H6.34525C6.05312 53.4136 5.81641 53.1769 5.81641 52.8848V19.0386C5.81641 18.7466 6.05312 18.5098 6.34525 18.5098H14.8068C15.0988 18.5098 15.3356 18.7466 15.3356 19.0386V52.8848C15.3356 53.1769 15.0988 53.4136 14.8068 53.4136ZM6.8741 52.3559H14.2779V19.5675H6.8741V52.3559Z" fill="#181616"/>
<path d="M52.8848 13.2212H19.0386C18.7465 13.2212 18.5098 12.9844 18.5098 12.6924V6.34623C18.5098 6.0542 18.7465 5.81738 19.0386 5.81738H52.8848C53.1769 5.81738 53.4136 6.0542 53.4136 6.34623V12.6924C53.4136 12.9844 53.1769 13.2212 52.8848 13.2212ZM19.5675 12.1635H52.3559V6.87508H19.5675V12.1635Z" fill="#181616"/>
<path d="M51.8261 13.2211C51.6909 13.2211 51.5554 13.1695 51.4523 13.0663L45.1061 6.72012C44.8995 6.51356 44.8995 6.17869 45.1061 5.97223C45.3125 5.76577 45.6475 5.76577 45.8539 5.97223L52.2 12.3184C52.4066 12.525 52.4066 12.8598 52.2 13.0663C52.0969 13.1695 51.9614 13.2211 51.8261 13.2211Z" fill="#181616"/>
<path d="M45.4804 13.2211C45.3452 13.2211 45.2097 13.1695 45.1065 13.0663L38.7604 6.72012C38.5538 6.51356 38.5538 6.17869 38.7604 5.97223C38.9668 5.76577 39.3018 5.76577 39.5082 5.97223L45.8543 12.3184C46.0609 12.525 46.0609 12.8598 45.8543 13.0663C45.7512 13.1695 45.6157 13.2211 45.4804 13.2211Z" fill="#181616"/>
<path d="M39.1347 13.2211C38.9995 13.2211 38.864 13.1695 38.7608 13.0663L32.4147 6.72012C32.2081 6.51356 32.2081 6.17869 32.4147 5.97223C32.621 5.76577 32.9561 5.76577 33.1625 5.97223L39.5086 12.3184C39.7152 12.525 39.7152 12.8598 39.5086 13.0663C39.4055 13.1695 39.27 13.2211 39.1347 13.2211Z" fill="#181616"/>
<path d="M32.7871 13.2211C32.6518 13.2211 32.5163 13.1695 32.4132 13.0663L26.067 6.72012C25.8605 6.51356 25.8605 6.17869 26.067 5.97223C26.2735 5.76577 26.6083 5.76577 26.8148 5.97223L33.161 12.3184C33.3676 12.525 33.3676 12.8598 33.161 13.0663C33.0579 13.1695 32.9224 13.2211 32.7871 13.2211Z" fill="#181616"/>
<path d="M26.4414 13.2211C26.306 13.2211 26.1706 13.1695 26.0674 13.0663L19.7213 6.72012C19.5148 6.51356 19.5148 6.17869 19.7213 5.97223C19.9278 5.76577 20.2626 5.76577 20.4691 5.97223L26.8153 12.3184C27.0219 12.525 27.0219 12.8598 26.8153 13.0663C26.7121 13.1695 26.5767 13.2211 26.4414 13.2211Z" fill="#181616"/>
<path d="M6.34555 13.2212H2.11478C1.82265 13.2212 1.58594 12.9844 1.58594 12.6924V6.34623C1.58594 6.0542 1.82265 5.81738 2.11478 5.81738H6.34555C6.63758 5.81738 6.8744 6.0542 6.8744 6.34623V12.6924C6.8744 12.9844 6.63758 13.2212 6.34555 13.2212ZM2.64363 12.1635H5.81671V6.87508H2.64363V12.1635Z" fill="#181616"/>
<path d="M19.0376 19.5674H6.34525C6.05312 19.5674 5.81641 19.3306 5.81641 19.0385V6.34623C5.81641 6.0542 6.05312 5.81738 6.34525 5.81738H19.0376C19.3296 5.81738 19.5664 6.0542 19.5664 6.34623V19.0385C19.5664 19.3306 19.3296 19.5674 19.0376 19.5674ZM6.8741 18.5097H18.5087V6.87508H6.8741V18.5097Z" fill="#181616"/>
<path d="M14.8068 53.4137C14.6714 53.4137 14.536 53.3621 14.4328 53.2588L5.97125 44.7972C5.76479 44.5908 5.76479 44.2559 5.97125 44.0495C6.17782 43.8429 6.51258 43.8429 6.71915 44.0495L15.1807 52.511C15.3873 52.7175 15.3873 53.0523 15.1807 53.2588C15.0775 53.3621 14.9421 53.4137 14.8068 53.4137Z" fill="#181616"/>
<path d="M14.8068 44.9518C14.6714 44.9518 14.536 44.9002 14.4328 44.7969L5.97125 36.3353C5.76479 36.1289 5.76479 35.794 5.97125 35.5875C6.17782 35.381 6.51258 35.381 6.71915 35.5875L15.1807 44.0491C15.3873 44.2555 15.3873 44.5904 15.1807 44.7969C15.0775 44.9002 14.9421 44.9518 14.8068 44.9518Z" fill="#181616"/>
<path d="M14.8068 36.4909C14.6714 36.4909 14.536 36.4393 14.4328 36.336L5.97125 27.8744C5.76479 27.668 5.76479 27.3331 5.97125 27.1265C6.17782 26.9201 6.51258 26.9201 6.71915 27.1265L15.1807 35.5881C15.3873 35.7945 15.3873 36.1294 15.1807 36.3359C15.0775 36.4393 14.9421 36.4909 14.8068 36.4909Z" fill="#181616"/>
<path d="M14.8068 28.029C14.6714 28.029 14.536 27.9774 14.4328 27.874L5.97125 19.4125C5.76479 19.2059 5.76479 18.8711 5.97125 18.6646C6.17782 18.4582 6.51258 18.4582 6.71915 18.6646L15.1807 27.1261C15.3873 27.3327 15.3873 27.6676 15.1807 27.874C15.0775 27.9774 14.9421 28.029 14.8068 28.029Z" fill="#181616"/>
<path d="M14.8065 15.3373H10.5757C10.2836 15.3373 10.0469 15.1005 10.0469 14.8084V10.5777C10.0469 10.2856 10.2836 10.0488 10.5757 10.0488H14.8065C15.0985 10.0488 15.3353 10.2856 15.3353 10.5777V14.8084C15.3353 15.1005 15.0985 15.3373 14.8065 15.3373ZM11.1046 14.2796H14.2776V11.1065H11.1046V14.2796Z" fill="#181616"/>
<path d="M48.6541 27.559C48.5516 27.559 48.4493 27.5291 48.3608 27.4701L44.1301 24.6496C43.983 24.5515 43.8945 24.3864 43.8945 24.2096V19.0386C43.8945 18.7466 44.1312 18.5098 44.4234 18.5098H48.6541C48.9463 18.5098 49.183 18.7466 49.183 19.0386V27.0301C49.183 27.2252 49.0756 27.4043 48.9037 27.4963C48.8255 27.5381 48.7398 27.559 48.6541 27.559ZM44.9522 23.9265L48.1253 26.0419V19.5675H44.9522V23.9265Z" fill="#181616"/>
<path d="M52.8849 30.1444H19.0387C18.8029 30.1444 18.5955 29.988 18.5303 29.7614C18.4653 29.5345 18.5583 29.2921 18.7583 29.167L35.6814 18.5901C35.8531 18.483 36.0704 18.483 36.2421 18.5901L53.1652 29.167C53.3652 29.2922 53.4583 29.5346 53.3932 29.7614C53.3282 29.988 53.1208 30.1444 52.8849 30.1444ZM20.8827 29.0867H51.041L35.9618 19.6622L20.8827 29.0867Z" fill="#181616"/>
<path d="M49.7124 53.4138H22.2124C21.9203 53.4138 21.6836 53.1771 21.6836 52.885V29.6158C21.6836 29.3236 21.9203 29.0869 22.2124 29.0869H49.7124C50.0046 29.0869 50.2413 29.3236 50.2413 29.6158V52.885C50.2413 53.1771 50.0046 53.4138 49.7124 53.4138ZM22.7413 52.3561H49.1836V30.1446H22.7413V52.3561Z" fill="#181616"/>
<path d="M40.1935 53.4141H31.732C31.4398 53.4141 31.2031 53.1774 31.2031 52.8852V40.1929C31.2031 39.9008 31.4398 39.6641 31.732 39.6641H40.1935C40.4856 39.6641 40.7224 39.9008 40.7224 40.1929V52.8852C40.7224 53.1774 40.4856 53.4141 40.1935 53.4141ZM32.2608 52.3564H39.6647V40.7218H32.2608V52.3564Z" fill="#181616"/>
<path d="M52.8848 53.4132H19.0386C18.7465 53.4132 18.5098 53.1764 18.5098 52.8843C18.5098 52.5922 18.7465 52.3555 19.0386 52.3555H52.8848C53.1769 52.3555 53.4136 52.5922 53.4136 52.8843C53.4136 53.1764 53.1769 53.4132 52.8848 53.4132Z" fill="#181616"/>
</svg>
