<svg width="45" height="45" viewBox="0 0 45 45" fill="none" xmlns="http://www.w3.org/2000/svg">
<path d="M37.2109 11.9699C37.127 11.9699 37.0433 11.9455 36.971 11.8972L31.7787 8.43569C31.6583 8.35547 31.5859 8.22038 31.5859 8.07569V1.72957C31.5859 1.49063 31.7796 1.29688 32.0186 1.29688H37.2109C37.45 1.29688 37.6436 1.49063 37.6436 1.72957V11.5372C37.6436 11.6968 37.5558 11.8434 37.4151 11.9187C37.3511 11.953 37.281 11.9699 37.2109 11.9699ZM32.4513 7.8442L36.7782 10.7288V2.16226H32.4513V7.8442Z" fill="white"/>
<path d="M22.4976 12.546C20.8275 12.546 19.4688 11.1872 19.4688 9.51713C19.4688 7.84702 20.8275 6.48828 22.4976 6.48828C24.1677 6.48828 25.5264 7.84702 25.5264 9.51713C25.5264 11.1872 24.1677 12.546 22.4976 12.546ZM22.4976 7.35367C21.3047 7.35367 20.3341 8.32419 20.3341 9.51713C20.3341 10.7101 21.3047 11.6806 22.4976 11.6806C23.6905 11.6806 24.6611 10.7101 24.6611 9.51713C24.6611 8.32419 23.6905 7.35367 22.4976 7.35367Z" fill="white"/>
<path d="M17.3053 43.6995H8.65144C8.41251 43.6995 8.21875 43.5058 8.21875 43.2668V31.1514C8.21875 30.9124 8.41251 30.7188 8.65144 30.7188H17.3053C17.5442 30.7188 17.738 30.9124 17.738 31.1514V43.2668C17.738 43.5058 17.5442 43.6995 17.3053 43.6995ZM9.08413 42.8341H16.8726V31.5841H9.08413V42.8341Z" fill="white"/>
<path d="M22.4988 28.1247C16.9183 28.1247 12.5469 26.034 12.5469 23.3651C12.5469 20.6962 16.9183 18.6055 22.4988 18.6055C28.0793 18.6055 32.4507 20.6962 32.4507 23.3651C32.4507 26.034 28.0793 28.1247 22.4988 28.1247ZM22.4988 19.4709C17.5734 19.4709 13.4123 21.2542 13.4123 23.3651C13.4123 25.476 17.5734 27.2593 22.4988 27.2593C27.4242 27.2593 31.5853 25.476 31.5853 23.3651C31.5853 21.2542 27.4242 19.4709 22.4988 19.4709Z" fill="white"/>
<path d="M4.62321 16.0068H1.72963C1.53898 16.0068 1.37075 15.882 1.31545 15.6995C1.26024 15.5171 1.33094 15.3199 1.48957 15.2141L3.22501 14.0571C3.41081 13.9332 3.66039 13.971 3.80118 14.1447C4.12605 14.5454 4.49418 14.9132 4.89529 15.2378C5.03782 15.3531 5.09216 15.5457 5.03098 15.7185C4.96989 15.8913 4.8065 16.0068 4.62321 16.0068ZM3.15872 15.1414H3.52331C3.47658 15.0917 3.43054 15.0414 3.38511 14.9905L3.15872 15.1414Z" fill="white"/>
<path d="M43.2683 16.0084H14.4132C14.2298 16.0084 14.0664 15.8929 14.0053 15.7201C13.9441 15.5473 13.9985 15.3546 14.141 15.2393C15.8779 13.8341 16.8741 11.7487 16.8741 9.51803C16.8741 8.29689 16.5687 7.08751 15.991 6.02066C15.8846 5.82405 15.9454 5.57862 16.1315 5.45462L22.2591 1.36957C22.4045 1.27264 22.5937 1.27264 22.7391 1.36957L43.5083 15.2157C43.667 15.3215 43.7377 15.5186 43.6825 15.7011C43.6271 15.8836 43.4589 16.0084 43.2683 16.0084ZM15.5144 15.143H41.8393L22.4991 2.24958L16.9318 5.96104C17.4611 7.06466 17.7394 8.28615 17.7394 9.51803C17.7394 11.6311 16.9397 13.6274 15.5144 15.143Z" fill="white"/>
<path d="M39.8059 43.6983H5.1905C4.95157 43.6983 4.75781 43.5047 4.75781 43.2656V15.9922C4.75781 15.8324 4.84582 15.6857 4.98671 15.6104C5.12768 15.5352 5.29859 15.5437 5.43117 15.6326C6.64184 16.443 8.05484 16.8714 9.51743 16.8714C11.1957 16.8714 12.8374 16.2909 14.1401 15.2369C14.2172 15.1746 14.3132 15.1406 14.4123 15.1406H39.8059C40.0449 15.1406 40.2386 15.3344 40.2386 15.5733V43.2656C40.2386 43.5047 40.0449 43.6983 39.8059 43.6983ZM5.6232 42.8329H39.3732V16.006H14.5631C13.1269 17.1232 11.3414 17.7368 9.51743 17.7368C8.147 17.7368 6.81544 17.4002 5.6232 16.7574V42.8329Z" fill="white"/>
<path d="M9.51803 17.7392C4.98488 17.7392 1.29688 14.0512 1.29688 9.51803C1.29688 4.98488 4.98488 1.29688 9.51803 1.29688C14.0512 1.29688 17.7392 4.98488 17.7392 9.51803C17.7392 14.0512 14.0512 17.7392 9.51803 17.7392ZM9.51803 2.16226C5.46206 2.16226 2.16226 5.46206 2.16226 9.51803C2.16226 13.574 5.46206 16.8738 9.51803 16.8738C13.574 16.8738 16.8738 13.574 16.8738 9.51803C16.8738 5.46206 13.574 2.16226 9.51803 2.16226Z" fill="white"/>
<path d="M6.92314 12.5459C6.81237 12.5459 6.70169 12.5037 6.61714 12.4192L5.75176 11.5538C5.58275 11.3848 5.58275 11.1108 5.75176 10.9419C5.92077 10.773 6.19466 10.773 6.36367 10.9419L6.92314 11.5013L11.8094 6.61497C11.9785 6.44605 12.2524 6.44605 12.4214 6.61497C12.5904 6.78398 12.5904 7.05796 12.4214 7.22689L7.22906 12.4192C7.14459 12.5037 7.03391 12.5459 6.92314 12.5459Z" fill="white"/>
</svg>
