<svg width="45" height="45" viewBox="0 0 45 45" fill="none" xmlns="http://www.w3.org/2000/svg">
<path d="M37.2109 40.6749H32.0186C31.7796 40.6749 31.5859 40.4812 31.5859 40.2422V35.0499C31.5859 34.8109 31.7796 34.6172 32.0186 34.6172H37.2109C37.45 34.6172 37.6436 34.8109 37.6436 35.0499V40.2422C37.6436 40.4812 37.45 40.6749 37.2109 40.6749ZM32.4513 39.8095H36.7782V35.4826H32.4513V39.8095Z" fill="white"/>
<path d="M12.9805 40.6749H7.78816C7.54923 40.6749 7.35547 40.4812 7.35547 40.2422V35.0499C7.35547 34.8109 7.54923 34.6172 7.78816 34.6172H12.9805C13.2194 34.6172 13.4132 34.8109 13.4132 35.0499V40.2422C13.4132 40.4812 13.2194 40.6749 12.9805 40.6749ZM8.22085 39.8095H12.5478V35.4826H8.22085V39.8095Z" fill="white"/>
<path d="M7.78846 26.8269C6.59553 26.8269 5.625 25.8564 5.625 24.6635C5.625 23.4705 6.59553 22.5 7.78846 22.5C8.02739 22.5 8.22115 22.6937 8.22115 22.9327C8.22115 23.1717 8.02739 23.3654 7.78846 23.3654C7.0727 23.3654 6.49038 23.9477 6.49038 24.6635C6.49038 25.3792 7.0727 25.9615 7.78846 25.9615C8.02739 25.9615 8.22115 26.1552 8.22115 26.3942C8.22115 26.6332 8.02739 26.8269 7.78846 26.8269Z" fill="white"/>
<path d="M37.2139 26.8269C36.9749 26.8269 36.7812 26.6332 36.7812 26.3942C36.7812 26.1552 36.9749 25.9615 37.2139 25.9615C37.9297 25.9615 38.512 25.3792 38.512 24.6635C38.512 23.9477 37.9297 23.3654 37.2139 23.3654C36.9749 23.3654 36.7812 23.1717 36.7812 22.9327C36.7812 22.6937 36.9749 22.5 37.2139 22.5C38.4069 22.5 39.3774 23.4705 39.3774 24.6635C39.3774 25.8564 38.4069 26.8269 37.2139 26.8269Z" fill="white"/>
<path d="M32.0186 27.6935C31.9474 27.6935 31.8761 27.6759 31.8114 27.6407C28.9635 26.0872 25.7434 25.2661 22.4994 25.2661C19.2553 25.2661 16.0353 26.0872 13.1874 27.6406C13.0534 27.7138 12.8907 27.7108 12.7593 27.6328C12.628 27.5549 12.5475 27.4135 12.5475 27.2607V24.742C12.5475 22.6984 11.2714 20.8658 9.37203 20.1816C9.20043 20.1198 9.08594 19.957 9.08594 19.7745V9.95312C9.08594 6.8515 11.6093 4.32812 14.7109 4.32812H30.2879C33.3895 4.32812 35.9129 6.8515 35.9129 9.95312V19.7746C35.9129 19.9571 35.7985 20.1199 35.6268 20.1817C33.6385 20.8979 32.4513 22.6027 32.4513 24.7421V27.2608C32.4513 27.4136 32.3708 27.5549 32.2396 27.6329C32.1715 27.6733 32.0951 27.6935 32.0186 27.6935ZM22.4994 24.4007C25.6471 24.4007 28.773 25.1408 31.5859 26.5467V24.742C31.5859 22.326 32.8735 20.3796 35.0475 19.4782V9.95312C35.0475 7.32867 32.9123 5.19351 30.2879 5.19351H14.7109C12.0865 5.19351 9.95132 7.32867 9.95132 9.95312V19.4795C12.034 20.3618 13.4129 22.4386 13.4129 24.7421V26.5468C16.2258 25.1408 19.3516 24.4007 22.4994 24.4007Z" fill="white"/>
<path d="M37.2121 35.4815H7.78906C7.55013 35.4815 7.35637 35.2879 7.35637 35.0488V30.2728C4.45612 30.0511 2.16406 27.6204 2.16406 24.6642C2.16406 21.5378 4.72699 18.9947 7.86357 19.0397C8.47903 19.0477 9.08558 19.1579 9.66643 19.367C11.9079 20.1744 13.4141 22.3343 13.4141 24.7416V26.5463C16.227 25.1404 19.3529 24.4003 22.5006 24.4003C25.6483 24.4003 28.7742 25.1404 31.5871 26.5463V24.7416C31.5871 22.2214 32.9881 20.2122 35.3348 19.367C35.9156 19.1579 36.5222 19.0477 37.1375 19.0397C37.1626 19.0393 37.1871 19.0391 37.2121 19.0391C40.3138 19.0391 42.8371 21.5625 42.8371 24.6641C42.8371 27.6202 40.5451 30.051 37.6448 30.2727V35.0488C37.6448 35.2879 37.4512 35.4815 37.2121 35.4815ZM8.22176 34.6161H36.7794V29.8565C36.7794 29.6175 36.9731 29.4238 37.2121 29.4238C39.8366 29.4238 41.9718 27.2887 41.9718 24.6642C41.9718 22.0398 39.8366 19.9046 37.2121 19.9046L37.1488 19.905C36.6299 19.9118 36.1182 20.0047 35.6281 20.1813C33.6397 20.8975 32.4525 22.6023 32.4525 24.7417V27.2604C32.4525 27.4131 32.372 27.5544 32.2408 27.6325C32.1094 27.7104 31.9468 27.7134 31.8127 27.6403C28.9647 26.0867 25.7446 25.2657 22.5006 25.2657C19.2565 25.2657 16.0365 26.0867 13.1885 27.6402C13.0547 27.7133 12.8919 27.7104 12.7605 27.6324C12.6292 27.5544 12.5487 27.413 12.5487 27.2603V24.7416C12.5487 22.698 11.2725 20.8654 9.37324 20.1812C8.88308 20.0046 8.37138 19.9117 7.85232 19.9049L7.78906 19.9046C5.16461 19.9046 3.02945 22.0398 3.02945 24.6642C3.02945 27.2887 5.16461 29.4238 7.78906 29.4238C8.028 29.4238 8.22176 29.6175 8.22176 29.8565V34.6161Z" fill="white"/>
<path d="M13.8459 9.09014C14.3238 9.09014 14.7112 8.7027 14.7112 8.22476C14.7112 7.74682 14.3238 7.35938 13.8459 7.35938C13.3679 7.35938 12.9805 7.74682 12.9805 8.22476C12.9805 8.7027 13.3679 9.09014 13.8459 9.09014Z" fill="white"/>
<path d="M17.3107 9.09014C17.7886 9.09014 18.1761 8.7027 18.1761 8.22476C18.1761 7.74682 17.7886 7.35938 17.3107 7.35938C16.8328 7.35938 16.4453 7.74682 16.4453 8.22476C16.4453 8.7027 16.8328 9.09014 17.3107 9.09014Z" fill="white"/>
<path d="M20.7716 9.09014C21.2496 9.09014 21.637 8.7027 21.637 8.22476C21.637 7.74682 21.2496 7.35938 20.7716 7.35938C20.2937 7.35938 19.9062 7.74682 19.9062 8.22476C19.9062 8.7027 20.2937 9.09014 20.7716 9.09014Z" fill="white"/>
<path d="M24.2326 9.09014C24.7105 9.09014 25.098 8.7027 25.098 8.22476C25.098 7.74682 24.7105 7.35938 24.2326 7.35938C23.7546 7.35938 23.3672 7.74682 23.3672 8.22476C23.3672 8.7027 23.7546 9.09014 24.2326 9.09014Z" fill="white"/>
<path d="M27.6935 9.09014C28.1714 9.09014 28.5589 8.7027 28.5589 8.22476C28.5589 7.74682 28.1714 7.35938 27.6935 7.35938C27.2156 7.35938 26.8281 7.74682 26.8281 8.22476C26.8281 8.7027 27.2156 9.09014 27.6935 9.09014Z" fill="white"/>
<path d="M31.1544 9.09014C31.6324 9.09014 32.0198 8.7027 32.0198 8.22476C32.0198 7.74682 31.6324 7.35938 31.1544 7.35938C30.6765 7.35938 30.2891 7.74682 30.2891 8.22476C30.2891 8.7027 30.6765 9.09014 31.1544 9.09014Z" fill="white"/>
<path d="M15.5763 12.5511C16.0543 12.5511 16.4417 12.1636 16.4417 11.6857C16.4417 11.2078 16.0543 10.8203 15.5763 10.8203C15.0984 10.8203 14.7109 11.2078 14.7109 11.6857C14.7109 12.1636 15.0984 12.5511 15.5763 12.5511Z" fill="white"/>
<path d="M19.0373 12.5511C19.5152 12.5511 19.9026 12.1636 19.9026 11.6857C19.9026 11.2078 19.5152 10.8203 19.0373 10.8203C18.5593 10.8203 18.1719 11.2078 18.1719 11.6857C18.1719 12.1636 18.5593 12.5511 19.0373 12.5511Z" fill="white"/>
<path d="M22.4982 12.5511C22.9761 12.5511 23.3636 12.1636 23.3636 11.6857C23.3636 11.2078 22.9761 10.8203 22.4982 10.8203C22.0203 10.8203 21.6328 11.2078 21.6328 11.6857C21.6328 12.1636 22.0203 12.5511 22.4982 12.5511Z" fill="white"/>
<path d="M25.963 12.5511C26.441 12.5511 26.8284 12.1636 26.8284 11.6857C26.8284 11.2078 26.441 10.8203 25.963 10.8203C25.4851 10.8203 25.0977 11.2078 25.0977 11.6857C25.0977 12.1636 25.4851 12.5511 25.963 12.5511Z" fill="white"/>
<path d="M29.424 12.5511C29.9019 12.5511 30.2894 12.1636 30.2894 11.6857C30.2894 11.2078 29.9019 10.8203 29.424 10.8203C28.946 10.8203 28.5586 11.2078 28.5586 11.6857C28.5586 12.1636 28.946 12.5511 29.424 12.5511Z" fill="white"/>
<path d="M13.8459 16.012C14.3238 16.012 14.7112 15.6246 14.7112 15.1466C14.7112 14.6687 14.3238 14.2812 13.8459 14.2812C13.3679 14.2812 12.9805 14.6687 12.9805 15.1466C12.9805 15.6246 13.3679 16.012 13.8459 16.012Z" fill="white"/>
<path d="M17.3107 16.012C17.7886 16.012 18.1761 15.6246 18.1761 15.1466C18.1761 14.6687 17.7886 14.2812 17.3107 14.2812C16.8328 14.2812 16.4453 14.6687 16.4453 15.1466C16.4453 15.6246 16.8328 16.012 17.3107 16.012Z" fill="white"/>
<path d="M20.7716 16.012C21.2496 16.012 21.637 15.6246 21.637 15.1466C21.637 14.6687 21.2496 14.2812 20.7716 14.2812C20.2937 14.2812 19.9062 14.6687 19.9062 15.1466C19.9062 15.6246 20.2937 16.012 20.7716 16.012Z" fill="white"/>
<path d="M24.2326 16.012C24.7105 16.012 25.098 15.6246 25.098 15.1466C25.098 14.6687 24.7105 14.2812 24.2326 14.2812C23.7546 14.2812 23.3672 14.6687 23.3672 15.1466C23.3672 15.6246 23.7546 16.012 24.2326 16.012Z" fill="white"/>
<path d="M27.6935 16.012C28.1714 16.012 28.5589 15.6246 28.5589 15.1466C28.5589 14.6687 28.1714 14.2812 27.6935 14.2812C27.2156 14.2812 26.8281 14.6687 26.8281 15.1466C26.8281 15.6246 27.2156 16.012 27.6935 16.012Z" fill="white"/>
<path d="M31.1544 16.012C31.6324 16.012 32.0198 15.6246 32.0198 15.1466C32.0198 14.6687 31.6324 14.2812 31.1544 14.2812C30.6765 14.2812 30.2891 14.6687 30.2891 15.1466C30.2891 15.6246 30.6765 16.012 31.1544 16.012Z" fill="white"/>
<path d="M15.5763 19.473C16.0543 19.473 16.4417 19.0855 16.4417 18.6076C16.4417 18.1296 16.0543 17.7422 15.5763 17.7422C15.0984 17.7422 14.7109 18.1296 14.7109 18.6076C14.7109 19.0855 15.0984 19.473 15.5763 19.473Z" fill="white"/>
<path d="M19.0373 19.473C19.5152 19.473 19.9026 19.0855 19.9026 18.6076C19.9026 18.1296 19.5152 17.7422 19.0373 17.7422C18.5593 17.7422 18.1719 18.1296 18.1719 18.6076C18.1719 19.0855 18.5593 19.473 19.0373 19.473Z" fill="white"/>
<path d="M22.4982 19.473C22.9761 19.473 23.3636 19.0855 23.3636 18.6076C23.3636 18.1296 22.9761 17.7422 22.4982 17.7422C22.0203 17.7422 21.6328 18.1296 21.6328 18.6076C21.6328 19.0855 22.0203 19.473 22.4982 19.473Z" fill="white"/>
<path d="M25.963 19.473C26.441 19.473 26.8284 19.0855 26.8284 18.6076C26.8284 18.1296 26.441 17.7422 25.963 17.7422C25.4851 17.7422 25.0977 18.1296 25.0977 18.6076C25.0977 19.0855 25.4851 19.473 25.963 19.473Z" fill="white"/>
<path d="M29.424 19.473C29.9019 19.473 30.2894 19.0855 30.2894 18.6076C30.2894 18.1296 29.9019 17.7422 29.424 17.7422C28.946 17.7422 28.5586 18.1296 28.5586 18.6076C28.5586 19.0855 28.946 19.473 29.424 19.473Z" fill="white"/>
<path d="M17.3107 22.0667C17.7886 22.0667 18.1761 21.6793 18.1761 21.2013C18.1761 20.7234 17.7886 20.3359 17.3107 20.3359C16.8328 20.3359 16.4453 20.7234 16.4453 21.2013C16.4453 21.6793 16.8328 22.0667 17.3107 22.0667Z" fill="white"/>
<path d="M20.7716 22.0667C21.2496 22.0667 21.637 21.6793 21.637 21.2013C21.637 20.7234 21.2496 20.3359 20.7716 20.3359C20.2937 20.3359 19.9062 20.7234 19.9062 21.2013C19.9062 21.6793 20.2937 22.0667 20.7716 22.0667Z" fill="white"/>
<path d="M24.2326 22.0667C24.7105 22.0667 25.098 21.6793 25.098 21.2013C25.098 20.7234 24.7105 20.3359 24.2326 20.3359C23.7546 20.3359 23.3672 20.7234 23.3672 21.2013C23.3672 21.6793 23.7546 22.0667 24.2326 22.0667Z" fill="white"/>
<path d="M27.6935 22.0667C28.1714 22.0667 28.5589 21.6793 28.5589 21.2013C28.5589 20.7234 28.1714 20.3359 27.6935 20.3359C27.2156 20.3359 26.8281 20.7234 26.8281 21.2013C26.8281 21.6793 27.2156 22.0667 27.6935 22.0667Z" fill="white"/>
</svg>
