<svg width="45" height="45" viewBox="0 0 45 45" fill="none" xmlns="http://www.w3.org/2000/svg">
<path d="M32.8825 19.0836C32.7986 19.0836 32.7149 19.0592 32.6425 19.0109L29.181 16.7032C29.0606 16.6229 28.9883 16.4879 28.9883 16.3432V12.1124C28.9883 11.8734 29.182 11.6797 29.421 11.6797H32.8825C33.1215 11.6797 33.3152 11.8734 33.3152 12.1124V18.6509C33.3152 18.8105 33.2274 18.9571 33.0867 19.0323C33.0227 19.0666 32.9526 19.0836 32.8825 19.0836ZM29.8537 16.1116L32.4498 17.8424V12.5451H29.8537V16.1116Z" fill="white"/>
<path d="M36.3438 21.199H8.65146C8.45848 21.199 8.28878 21.0711 8.23555 20.8855C8.18233 20.7 8.25849 20.5017 8.42213 20.3993L22.2683 11.7454C22.4087 11.6578 22.5866 11.6578 22.727 11.7454L36.5732 20.3993C36.7368 20.5017 36.813 20.7 36.7598 20.8855C36.7064 21.0711 36.5367 21.199 36.3438 21.199ZM10.1602 20.3336H34.8351L22.4976 12.6227L10.1602 20.3336Z" fill="white"/>
<path d="M33.7452 40.2398H11.2452C11.0063 40.2398 10.8125 40.0461 10.8125 39.8071V20.7686C10.8125 20.5297 11.0063 20.3359 11.2452 20.3359H33.7452C33.9842 20.3359 34.1779 20.5297 34.1779 20.7686V39.8071C34.1779 40.0461 33.9842 40.2398 33.7452 40.2398ZM11.6779 39.3744H33.3125V21.2013H11.6779V39.3744Z" fill="white"/>
<path d="M25.9573 40.2383H19.0343C18.7953 40.2383 18.6016 40.0446 18.6016 39.8056V29.421C18.6016 29.182 18.7953 28.9883 19.0343 28.9883H25.9573C26.1964 28.9883 26.39 29.182 26.39 29.421V39.8056C26.39 40.0446 26.1964 40.2383 25.9573 40.2383ZM19.4669 39.3729H25.5246V29.8537H19.4669V39.3729Z" fill="white"/>
<path d="M36.3438 40.2365H8.65144C8.41251 40.2365 8.21875 40.0428 8.21875 39.8038C8.21875 39.5648 8.41251 39.3711 8.65144 39.3711H36.3438C36.5828 39.3711 36.7764 39.5648 36.7764 39.8038C36.7764 40.0428 36.5828 40.2365 36.3438 40.2365Z" fill="white"/>
<path d="M39.8059 43.7007H5.1905C4.95157 43.7007 4.75781 43.507 4.75781 43.268V1.72957C4.75781 1.49063 4.95157 1.29688 5.1905 1.29688H32.8828C33.1218 1.29688 33.3155 1.49063 33.3155 1.72957V8.21995H39.8059C40.0449 8.21995 40.2386 8.41371 40.2386 8.65264V43.268C40.2386 43.507 40.0449 43.7007 39.8059 43.7007ZM5.6232 42.8353H39.3732V9.08534H32.8828C32.6438 9.08534 32.4501 8.89158 32.4501 8.65264V2.16226H5.6232V42.8353Z" fill="white"/>
<path d="M39.805 9.08534H32.8819C32.6429 9.08534 32.4492 8.89158 32.4492 8.65265V1.72957C32.4492 1.55459 32.5546 1.39675 32.7164 1.32977C32.8778 1.26296 33.0642 1.29974 33.1878 1.42358L40.1109 8.34665C40.2347 8.4704 40.2717 8.65655 40.2047 8.8182C40.1378 8.97994 39.98 9.08534 39.805 9.08534ZM33.3146 8.21996H38.7604L33.3146 2.77418V8.21996Z" fill="white"/>
<path d="M29.4207 5.6232H8.65144C8.41251 5.6232 8.21875 5.42944 8.21875 5.1905C8.21875 4.95157 8.41251 4.75781 8.65144 4.75781H29.4207C29.6597 4.75781 29.8534 4.95157 29.8534 5.1905C29.8534 5.42944 29.6597 5.6232 29.4207 5.6232Z" fill="white"/>
<path d="M29.4207 9.08413H8.65144C8.41251 9.08413 8.21875 8.89037 8.21875 8.65144C8.21875 8.41251 8.41251 8.21875 8.65144 8.21875H29.4207C29.6597 8.21875 29.8534 8.41251 29.8534 8.65144C29.8534 8.89037 29.6597 9.08413 29.4207 9.08413Z" fill="white"/>
<path d="M17.3053 12.5451H8.65144C8.41251 12.5451 8.21875 12.3513 8.21875 12.1124C8.21875 11.8734 8.41251 11.6797 8.65144 11.6797H17.3053C17.5442 11.6797 17.738 11.8734 17.738 12.1124C17.738 12.3513 17.5442 12.5451 17.3053 12.5451Z" fill="white"/>
<path d="M12.113 16.006H8.65144C8.41251 16.006 8.21875 15.8122 8.21875 15.5733C8.21875 15.3344 8.41251 15.1406 8.65144 15.1406H12.113C12.3519 15.1406 12.5457 15.3344 12.5457 15.5733C12.5457 15.8122 12.3519 16.006 12.113 16.006Z" fill="white"/>
</svg>
