<svg width="39" height="29" viewBox="0 0 39 29" fill="none" xmlns="http://www.w3.org/2000/svg">
<mask id="path-1-inside-1_3635_593" fill="white">
<path d="M8.35714 0.357144C12.971 0.357144 16.7143 4.10045 16.7143 8.71429V17.0714C16.7143 23.2522 11.6652 28.2143 5.57143 28.2143C4.00446 28.2143 2.78571 26.9955 2.78571 25.4286C2.78571 23.9487 4.00446 22.6429 5.57143 22.6429C8.6183 22.6429 11.1429 20.2054 11.1429 17.0714V16.6362C10.1853 16.8973 9.31473 17.0714 8.35714 17.0714C3.65625 17.0714 0 13.4152 0 8.71429C0 4.10045 3.65625 0.357144 8.35714 0.357144ZM39 8.71429V17.0714C39 23.2522 33.9509 28.2143 27.8571 28.2143C26.2902 28.2143 25.0714 26.9955 25.0714 25.4286C25.0714 23.9487 26.2902 22.6429 27.8571 22.6429C30.904 22.6429 33.4286 20.2054 33.4286 17.0714V16.6362C32.471 16.8973 31.6004 17.0714 30.6429 17.0714C25.942 17.0714 22.2857 13.4152 22.2857 8.71429C22.2857 4.10045 25.942 0.357144 30.6429 0.357144C35.2567 0.357144 39 4.10045 39 8.71429Z"/>
</mask>
<path d="M11.1429 16.6362H13V14.2047L10.6542 14.8445L11.1429 16.6362ZM33.4286 16.6362H35.2857V14.2047L32.9399 14.8445L33.4286 16.6362ZM8.35714 2.21429C11.9453 2.21429 14.8571 5.12612 14.8571 8.71429H18.5714C18.5714 3.07478 13.9967 -1.5 8.35714 -1.5V2.21429ZM14.8571 8.71429V17.0714H18.5714V8.71429H14.8571ZM14.8571 17.0714C14.8571 22.2171 10.649 26.3571 5.57143 26.3571V30.0714C12.6814 30.0714 18.5714 24.2873 18.5714 17.0714H14.8571ZM5.57143 26.3571C5.03014 26.3571 4.64286 25.9699 4.64286 25.4286H0.928571C0.928571 28.0212 2.97879 30.0714 5.57143 30.0714V26.3571ZM4.64286 25.4286C4.64286 24.9365 5.06759 24.5 5.57143 24.5V20.7857C2.94134 20.7857 0.928571 22.9608 0.928571 25.4286H4.64286ZM5.57143 24.5C9.625 24.5 13 21.2499 13 17.0714H9.28571C9.28571 19.1608 7.61161 20.7857 5.57143 20.7857V24.5ZM13 17.0714V16.6362H9.28571V17.0714H13ZM10.6542 14.8445C9.76947 15.0857 9.07924 15.2143 8.35714 15.2143V18.9286C9.55022 18.9286 10.6011 18.7089 11.6315 18.4279L10.6542 14.8445ZM8.35714 15.2143C4.68192 15.2143 1.85714 12.3895 1.85714 8.71429H-1.85714C-1.85714 14.4409 2.63058 18.9286 8.35714 18.9286V15.2143ZM1.85714 8.71429C1.85714 5.11345 4.69454 2.21429 8.35714 2.21429V-1.5C2.61796 -1.5 -1.85714 3.08744 -1.85714 8.71429H1.85714ZM37.1429 8.71429V17.0714H40.8571V8.71429H37.1429ZM37.1429 17.0714C37.1429 22.2171 32.9347 26.3571 27.8571 26.3571V30.0714C34.9671 30.0714 40.8571 24.2873 40.8571 17.0714H37.1429ZM27.8571 26.3571C27.3158 26.3571 26.9286 25.9699 26.9286 25.4286H23.2143C23.2143 28.0212 25.2645 30.0714 27.8571 30.0714V26.3571ZM26.9286 25.4286C26.9286 24.9365 27.3533 24.5 27.8571 24.5V20.7857C25.2271 20.7857 23.2143 22.9608 23.2143 25.4286H26.9286ZM27.8571 24.5C31.9107 24.5 35.2857 21.2499 35.2857 17.0714H31.5714C31.5714 19.1608 29.8973 20.7857 27.8571 20.7857V24.5ZM35.2857 17.0714V16.6362H31.5714V17.0714H35.2857ZM32.9399 14.8445C32.0552 15.0857 31.365 15.2143 30.6429 15.2143V18.9286C31.8359 18.9286 32.8868 18.7089 33.9172 18.4279L32.9399 14.8445ZM30.6429 15.2143C26.9676 15.2143 24.1429 12.3895 24.1429 8.71429H20.4286C20.4286 14.4409 24.9163 18.9286 30.6429 18.9286V15.2143ZM24.1429 8.71429C24.1429 5.11345 26.9803 2.21429 30.6429 2.21429V-1.5C24.9037 -1.5 20.4286 3.08744 20.4286 8.71429H24.1429ZM30.6429 2.21429C34.231 2.21429 37.1429 5.12612 37.1429 8.71429H40.8571C40.8571 3.07478 36.2824 -1.5 30.6429 -1.5V2.21429Z" fill="url(#paint0_linear_3635_593)" mask="url(#path-1-inside-1_3635_593)"/>
<defs>
<linearGradient id="paint0_linear_3635_593" x1="0.0161793" y1="14.5008" x2="39.0159" y2="14.5008" gradientUnits="userSpaceOnUse">
<stop stop-color="#F69220"/>
<stop offset="0.2863" stop-color="#F68E20"/>
<stop offset="0.5401" stop-color="#F48421"/>
<stop offset="0.7807" stop-color="#F37221"/>
<stop offset="1" stop-color="#F05A22"/>
</linearGradient>
</defs>
</svg>
