<svg width="60" height="60" viewBox="0 0 60 60" fill="none" xmlns="http://www.w3.org/2000/svg">
<path d="M59.7656 19.582C59.7656 13.0078 54.4336 7.67578 47.8594 7.67578C41.2852 7.67578 35.9531 13.0078 35.9531 19.582C35.9531 26.1562 41.2852 31.4883 47.8594 31.4883C49.8281 31.4883 51.6445 30.9727 53.2852 30.1289C51.1758 39.4102 42.8672 46.3711 32.9531 46.3711C31.3125 46.3711 29.9766 47.707 29.9766 49.3477C29.9766 50.9883 31.3125 52.3242 32.9531 52.3242C47.7422 52.3242 59.7656 40.3008 59.7656 25.5117V19.582ZM30.0234 19.582C30.0234 13.0078 24.6914 7.67578 18.1172 7.67578C11.543 7.67578 6.21094 13.0078 6.21094 19.582C6.21094 26.1562 11.543 31.4883 18.1172 31.4883C20.0859 31.4883 21.9023 30.9727 23.543 30.1289C21.4336 39.4102 13.125 46.3711 3.21094 46.3711C1.57031 46.3711 0.234375 47.707 0.234375 49.3477C0.234375 50.9883 1.57031 52.3242 3.21094 52.3242C18 52.3242 30.0234 40.3008 30.0234 25.5117V19.582Z" fill="url(#paint0_linear_3906_1348)"/>
<defs>
<linearGradient id="paint0_linear_3906_1348" x1="0.259072" y1="30.0008" x2="59.7899" y2="30.0008" gradientUnits="userSpaceOnUse">
<stop stop-color="#F69220"/>
<stop offset="0.2863" stop-color="#F68E20"/>
<stop offset="0.5401" stop-color="#F48421"/>
<stop offset="0.7807" stop-color="#F37221"/>
<stop offset="1" stop-color="#F05A22"/>
</linearGradient>
</defs>
</svg>
