<svg width="55" height="55" viewBox="0 0 55 55" fill="none" xmlns="http://www.w3.org/2000/svg">
<path d="M45.4805 14.6308C45.3779 14.6308 45.2756 14.6009 45.1872 14.5419L38.841 10.3112C38.6939 10.2131 38.6055 10.048 38.6055 9.87116V2.11478C38.6055 1.82275 38.8422 1.58594 39.1343 1.58594H45.4805C45.7726 1.58594 46.0093 1.82275 46.0093 2.11478V14.1019C46.0093 14.297 45.902 14.4761 45.73 14.5682C45.6518 14.6101 45.5661 14.6308 45.4805 14.6308ZM39.6632 9.58823L44.9516 13.1138V2.64363H39.6632V9.58823Z" fill="url(#paint0_linear_3931_38)"/>
<path d="M27.4988 15.3355C25.4576 15.3355 23.7969 13.6748 23.7969 11.6336C23.7969 9.59232 25.4576 7.93164 27.4988 7.93164C29.54 7.93164 31.2007 9.59232 31.2007 11.6336C31.2007 13.6748 29.54 15.3355 27.4988 15.3355ZM27.4988 8.98933C26.0408 8.98933 24.8546 10.1755 24.8546 11.6336C24.8546 13.0916 26.0408 14.2778 27.4988 14.2778C28.9568 14.2778 30.143 13.0916 30.143 11.6336C30.143 10.1755 28.9568 8.98933 27.4988 8.98933Z" fill="url(#paint1_linear_3931_38)"/>
<path d="M21.1526 53.4123H10.5757C10.2837 53.4123 10.0469 53.1755 10.0469 52.8834V38.0757C10.0469 37.7836 10.2837 37.5469 10.5757 37.5469H21.1526C21.4447 37.5469 21.6815 37.7836 21.6815 38.0757V52.8834C21.6815 53.1755 21.4447 53.4123 21.1526 53.4123ZM11.1046 52.3546H20.6238V38.6046H11.1046V52.3546Z" fill="url(#paint2_linear_3931_38)"/>
<path d="M27.4994 34.3749C20.6788 34.3749 15.3359 31.8196 15.3359 28.5575C15.3359 25.2955 20.6788 22.7402 27.4994 22.7402C34.32 22.7402 39.6629 25.2955 39.6629 28.5575C39.6629 31.8196 34.32 34.3749 27.4994 34.3749ZM27.4994 23.7979C21.4794 23.7979 16.3936 25.9775 16.3936 28.5575C16.3936 31.1376 21.4794 33.3172 27.4994 33.3172C33.5194 33.3172 38.6052 31.1376 38.6052 28.5575C38.6052 25.9775 33.5194 23.7979 27.4994 23.7979Z" fill="url(#paint3_linear_3931_38)"/>
<path d="M5.65146 19.5656H2.11486C1.88185 19.5656 1.67623 19.4131 1.60864 19.19C1.54116 18.9671 1.62758 18.726 1.82145 18.5968L3.94255 17.1827C4.16963 17.0312 4.47467 17.0774 4.64676 17.2897C5.04382 17.7795 5.49376 18.229 5.984 18.6257C6.1582 18.7667 6.22462 19.002 6.14985 19.2132C6.07517 19.4244 5.87548 19.5656 5.65146 19.5656ZM3.86153 18.5079H4.30713C4.25002 18.4471 4.19375 18.3857 4.13822 18.3235L3.86153 18.5079Z" fill="url(#paint4_linear_3931_38)"/>
<path d="M52.8822 19.5667H17.6148C17.3907 19.5667 17.191 19.4255 17.1163 19.2143C17.0415 19.0031 17.1079 18.7676 17.2821 18.6267C19.405 16.9093 20.6225 14.3604 20.6225 11.634C20.6225 10.1415 20.2493 8.66338 19.5433 7.35946C19.4132 7.11915 19.4875 6.81919 19.7149 6.66762L27.2042 1.67478C27.3819 1.55632 27.6132 1.55632 27.7909 1.67478L53.1756 18.5979C53.3694 18.7271 53.4558 18.9681 53.3884 19.1911C53.3207 19.4142 53.1152 19.5667 52.8822 19.5667ZM18.9607 18.509H51.1356L27.4975 2.75035L20.6931 7.28658C21.3401 8.63546 21.6802 10.1284 21.6802 11.634C21.6802 14.2167 20.7028 16.6566 18.9607 18.509Z" fill="url(#paint5_linear_3931_38)"/>
<path d="M48.6529 53.4097H6.34525C6.05322 53.4097 5.81641 53.173 5.81641 52.8809V19.5466C5.81641 19.3514 5.92397 19.1721 6.09617 19.0801C6.26846 18.9882 6.47736 18.9985 6.6394 19.1072C8.11911 20.0977 9.84611 20.6212 11.6337 20.6212C13.6849 20.6212 15.6914 19.9117 17.2837 18.6236C17.3778 18.5474 17.4952 18.5059 17.6163 18.5059H48.6529C48.9451 18.5059 49.1818 18.7427 49.1818 19.0347V52.8809C49.1818 53.173 48.9451 53.4097 48.6529 53.4097ZM6.8741 52.352H48.1241V19.5636H17.8007C16.0453 20.929 13.863 21.6789 11.6337 21.6789C9.95875 21.6789 8.33128 21.2676 6.8741 20.4819V52.352Z" fill="url(#paint6_linear_3931_38)"/>
<path d="M11.634 21.6821C6.09351 21.6821 1.58594 17.1745 1.58594 11.634C1.58594 6.09351 6.09351 1.58594 11.634 1.58594C17.1745 1.58594 21.6821 6.09351 21.6821 11.634C21.6821 17.1745 17.1745 21.6821 11.634 21.6821ZM11.634 2.64363C6.67672 2.64363 2.64363 6.67672 2.64363 11.634C2.64363 16.5913 6.67672 20.6244 11.634 20.6244C16.5913 20.6244 20.6244 16.5913 20.6244 11.634C20.6244 6.67672 16.5913 2.64363 11.634 2.64363Z" fill="url(#paint7_linear_3931_38)"/>
<path d="M8.46162 15.3354C8.32623 15.3354 8.19095 15.2838 8.08762 15.1805L7.02993 14.1228C6.82336 13.9163 6.82336 13.5814 7.02993 13.3749C7.23649 13.1685 7.57125 13.1685 7.77782 13.3749L8.46162 14.0586L14.4338 8.08649C14.6403 7.88003 14.9751 7.88003 15.1817 8.08649C15.3882 8.29305 15.3882 8.62792 15.1817 8.83438L8.83551 15.1805C8.73228 15.2838 8.597 15.3354 8.46162 15.3354Z" fill="url(#paint8_linear_3931_38)"/>
<defs>
<linearGradient id="paint0_linear_3931_38" x1="38.6085" y1="8.1086" x2="46.0123" y2="8.1086" gradientUnits="userSpaceOnUse">
<stop stop-color="#F69220"/>
<stop offset="0.2863" stop-color="#F68E20"/>
<stop offset="0.5401" stop-color="#F48421"/>
<stop offset="0.7807" stop-color="#F37221"/>
<stop offset="1" stop-color="#F05A22"/>
</linearGradient>
<linearGradient id="paint1_linear_3931_38" x1="23.7999" y1="11.6337" x2="31.2037" y2="11.6337" gradientUnits="userSpaceOnUse">
<stop stop-color="#F69220"/>
<stop offset="0.2863" stop-color="#F68E20"/>
<stop offset="0.5401" stop-color="#F48421"/>
<stop offset="0.7807" stop-color="#F37221"/>
<stop offset="1" stop-color="#F05A22"/>
</linearGradient>
<linearGradient id="paint2_linear_3931_38" x1="10.0517" y1="45.4799" x2="21.6862" y2="45.4799" gradientUnits="userSpaceOnUse">
<stop stop-color="#F69220"/>
<stop offset="0.2863" stop-color="#F68E20"/>
<stop offset="0.5401" stop-color="#F48421"/>
<stop offset="0.7807" stop-color="#F37221"/>
<stop offset="1" stop-color="#F05A22"/>
</linearGradient>
<linearGradient id="paint3_linear_3931_38" x1="15.346" y1="28.5578" x2="39.6728" y2="28.5578" gradientUnits="userSpaceOnUse">
<stop stop-color="#F69220"/>
<stop offset="0.2863" stop-color="#F68E20"/>
<stop offset="0.5401" stop-color="#F48421"/>
<stop offset="0.7807" stop-color="#F37221"/>
<stop offset="1" stop-color="#F05A22"/>
</linearGradient>
<linearGradient id="paint4_linear_3931_38" x1="1.58784" y1="18.3297" x2="6.18207" y2="18.3297" gradientUnits="userSpaceOnUse">
<stop stop-color="#F69220"/>
<stop offset="0.2863" stop-color="#F68E20"/>
<stop offset="0.5401" stop-color="#F48421"/>
<stop offset="0.7807" stop-color="#F37221"/>
<stop offset="1" stop-color="#F05A22"/>
</linearGradient>
<linearGradient id="paint5_linear_3931_38" x1="17.101" y1="10.5767" x2="53.4259" y2="10.5767" gradientUnits="userSpaceOnUse">
<stop stop-color="#F69220"/>
<stop offset="0.2863" stop-color="#F68E20"/>
<stop offset="0.5401" stop-color="#F48421"/>
<stop offset="0.7807" stop-color="#F37221"/>
<stop offset="1" stop-color="#F05A22"/>
</linearGradient>
<linearGradient id="paint6_linear_3931_38" x1="5.8344" y1="35.9584" x2="49.1995" y2="35.9584" gradientUnits="userSpaceOnUse">
<stop stop-color="#F69220"/>
<stop offset="0.2863" stop-color="#F68E20"/>
<stop offset="0.5401" stop-color="#F48421"/>
<stop offset="0.7807" stop-color="#F37221"/>
<stop offset="1" stop-color="#F05A22"/>
</linearGradient>
<linearGradient id="paint7_linear_3931_38" x1="1.59427" y1="11.6344" x2="21.6903" y2="11.6344" gradientUnits="userSpaceOnUse">
<stop stop-color="#F69220"/>
<stop offset="0.2863" stop-color="#F68E20"/>
<stop offset="0.5401" stop-color="#F48421"/>
<stop offset="0.7807" stop-color="#F37221"/>
<stop offset="1" stop-color="#F05A22"/>
</linearGradient>
<linearGradient id="paint8_linear_3931_38" x1="6.87851" y1="11.6336" x2="15.34" y2="11.6336" gradientUnits="userSpaceOnUse">
<stop stop-color="#F69220"/>
<stop offset="0.2863" stop-color="#F68E20"/>
<stop offset="0.5401" stop-color="#F48421"/>
<stop offset="0.7807" stop-color="#F37221"/>
<stop offset="1" stop-color="#F05A22"/>
</linearGradient>
</defs>
</svg>
