<svg width="65" height="65" viewBox="0 0 65 65" fill="none" xmlns="http://www.w3.org/2000/svg">
<path d="M53.7461 58.75H46.2461C45.9008 58.75 45.6211 58.4703 45.6211 58.125V50.625C45.6211 50.2798 45.9008 50 46.2461 50H53.7461C54.0913 50 54.3711 50.2798 54.3711 50.625V58.125C54.3711 58.4703 54.0913 58.75 53.7461 58.75ZM46.8711 57.5H53.1211V51.25H46.8711V57.5Z" fill="url(#paint0_linear_3914_897)"/>
<path d="M18.7539 58.75H11.2539C10.9088 58.75 10.6289 58.4703 10.6289 58.125V50.625C10.6289 50.2798 10.9088 50 11.2539 50H18.7539C19.099 50 19.3789 50.2798 19.3789 50.625V58.125C19.3789 58.4703 19.099 58.75 18.7539 58.75ZM11.8789 57.5H18.1289V51.25H11.8789V57.5Z" fill="url(#paint1_linear_3914_897)"/>
<path d="M11.25 38.75C9.52688 38.75 8.125 37.3481 8.125 35.625C8.125 33.9019 9.52688 32.5 11.25 32.5C11.5951 32.5 11.875 32.7797 11.875 33.125C11.875 33.4703 11.5951 33.75 11.25 33.75C10.2161 33.75 9.375 34.5911 9.375 35.625C9.375 36.6589 10.2161 37.5 11.25 37.5C11.5951 37.5 11.875 37.7797 11.875 38.125C11.875 38.4703 11.5951 38.75 11.25 38.75Z" fill="url(#paint2_linear_3914_897)"/>
<path d="M53.75 38.75C53.4047 38.75 53.125 38.4703 53.125 38.125C53.125 37.7797 53.4047 37.5 53.75 37.5C54.7839 37.5 55.625 36.6589 55.625 35.625C55.625 34.5911 54.7839 33.75 53.75 33.75C53.4047 33.75 53.125 33.4703 53.125 33.125C53.125 32.7797 53.4047 32.5 53.75 32.5C55.4731 32.5 56.875 33.9019 56.875 35.625C56.875 37.3481 55.4731 38.75 53.75 38.75Z" fill="url(#paint3_linear_3914_897)"/>
<path d="M46.2461 40C46.1432 40 46.0402 39.9746 45.9467 39.9238C41.8331 37.6798 37.1818 36.4938 32.4961 36.4938C27.8102 36.4938 23.1591 37.6798 19.0455 39.9236C18.8518 40.0293 18.6168 40.025 18.4271 39.9124C18.2373 39.7998 18.1211 39.5955 18.1211 39.3749V35.7368C18.1211 32.7849 16.2778 30.1378 13.5343 29.1495C13.2865 29.0602 13.1211 28.825 13.1211 28.5615V14.375C13.1211 9.89488 16.766 6.25 21.2461 6.25H43.7461C48.2262 6.25 51.8711 9.89488 51.8711 14.375V28.5616C51.8711 28.8251 51.7058 29.0604 51.4578 29.1496C48.5858 30.1841 46.8711 32.6466 46.8711 35.7369V39.375C46.8711 39.5956 46.7547 39.7997 46.5652 39.9125C46.467 39.9707 46.3566 40 46.2461 40ZM32.4961 35.2438C37.0427 35.2438 41.558 36.3127 45.6211 38.3435V35.7368C45.6211 32.2469 47.4808 29.4355 50.6211 28.1334V14.375C50.6211 10.5841 47.537 7.5 43.7461 7.5H21.2461C17.4552 7.5 14.3711 10.5841 14.3711 14.375V28.1354C17.3795 29.4097 19.3711 32.4096 19.3711 35.7369V38.3436C23.4342 36.3127 27.9493 35.2438 32.4961 35.2438Z" fill="url(#paint4_linear_3914_897)"/>
<path d="M53.75 51.2502H11.25C10.9049 51.2502 10.625 50.9705 10.625 50.6252V43.7265C6.43575 43.4062 3.125 39.8952 3.125 35.6252C3.125 31.1092 6.827 27.4358 11.3576 27.5008C12.2466 27.5125 13.1228 27.6716 13.9618 27.9737C17.1995 29.14 19.375 32.2597 19.375 35.737V38.3437C23.4381 36.313 27.9533 35.244 32.5 35.244C37.0466 35.244 41.5619 36.313 45.625 38.3437V35.737C45.625 32.0967 47.6486 29.1946 51.0382 27.9737C51.8773 27.6716 52.7534 27.5125 53.6423 27.5008C53.6785 27.5003 53.7139 27.5001 53.75 27.5001C58.2301 27.5001 61.875 31.145 61.875 35.6251C61.875 39.895 58.5643 43.4061 54.375 43.7263V50.6252C54.375 50.9705 54.0952 51.2502 53.75 51.2502ZM11.875 50.0002H53.125V43.1252C53.125 42.78 53.4048 42.5002 53.75 42.5002C57.5409 42.5002 60.625 39.4161 60.625 35.6252C60.625 31.8343 57.5409 28.7502 53.75 28.7502L53.6585 28.7508C52.909 28.7606 52.1699 28.8948 51.4619 29.1498C48.5898 30.1843 46.875 32.6468 46.875 35.7371V39.3752C46.875 39.5958 46.7586 39.8 46.5691 39.9127C46.3794 40.0252 46.1445 40.0296 45.9507 39.924C41.837 37.68 37.1857 36.494 32.5 36.494C27.8141 36.494 23.163 37.68 19.0492 39.9239C18.8559 40.0295 18.6207 40.0252 18.431 39.9126C18.2413 39.8 18.125 39.5957 18.125 39.3751V35.737C18.125 32.7851 16.2816 30.138 13.5382 29.1497C12.8302 28.8947 12.0911 28.7605 11.3414 28.7507L11.25 28.7502C7.45913 28.7502 4.375 31.8343 4.375 35.6252C4.375 39.4161 7.45913 42.5002 11.25 42.5002C11.5951 42.5002 11.875 42.78 11.875 43.1252V50.0002Z" fill="url(#paint5_linear_3914_897)"/>
<path d="M20.0039 13.125C20.6943 13.125 21.2539 12.5654 21.2539 11.875C21.2539 11.1846 20.6943 10.625 20.0039 10.625C19.3136 10.625 18.7539 11.1846 18.7539 11.875C18.7539 12.5654 19.3136 13.125 20.0039 13.125Z" fill="url(#paint6_linear_3914_897)"/>
<path d="M25 13.125C25.6904 13.125 26.25 12.5654 26.25 11.875C26.25 11.1846 25.6904 10.625 25 10.625C24.3096 10.625 23.75 11.1846 23.75 11.875C23.75 12.5654 24.3096 13.125 25 13.125Z" fill="url(#paint7_linear_3914_897)"/>
<path d="M30 13.125C30.6904 13.125 31.25 12.5654 31.25 11.875C31.25 11.1846 30.6904 10.625 30 10.625C29.3096 10.625 28.75 11.1846 28.75 11.875C28.75 12.5654 29.3096 13.125 30 13.125Z" fill="url(#paint8_linear_3914_897)"/>
<path d="M35.0039 13.125C35.6943 13.125 36.2539 12.5654 36.2539 11.875C36.2539 11.1846 35.6943 10.625 35.0039 10.625C34.3136 10.625 33.7539 11.1846 33.7539 11.875C33.7539 12.5654 34.3136 13.125 35.0039 13.125Z" fill="url(#paint9_linear_3914_897)"/>
<path d="M40 13.125C40.6904 13.125 41.25 12.5654 41.25 11.875C41.25 11.1846 40.6904 10.625 40 10.625C39.3096 10.625 38.75 11.1846 38.75 11.875C38.75 12.5654 39.3096 13.125 40 13.125Z" fill="url(#paint10_linear_3914_897)"/>
<path d="M45 13.125C45.6904 13.125 46.25 12.5654 46.25 11.875C46.25 11.1846 45.6904 10.625 45 10.625C44.3096 10.625 43.75 11.1846 43.75 11.875C43.75 12.5654 44.3096 13.125 45 13.125Z" fill="url(#paint11_linear_3914_897)"/>
<path d="M22.4961 18.125C23.1864 18.125 23.7461 17.5654 23.7461 16.875C23.7461 16.1846 23.1864 15.625 22.4961 15.625C21.8057 15.625 21.2461 16.1846 21.2461 16.875C21.2461 17.5654 21.8057 18.125 22.4961 18.125Z" fill="url(#paint12_linear_3914_897)"/>
<path d="M27.5 18.125C28.1904 18.125 28.75 17.5654 28.75 16.875C28.75 16.1846 28.1904 15.625 27.5 15.625C26.8096 15.625 26.25 16.1846 26.25 16.875C26.25 17.5654 26.8096 18.125 27.5 18.125Z" fill="url(#paint13_linear_3914_897)"/>
<path d="M32.5 18.125C33.1904 18.125 33.75 17.5654 33.75 16.875C33.75 16.1846 33.1904 15.625 32.5 15.625C31.8096 15.625 31.25 16.1846 31.25 16.875C31.25 17.5654 31.8096 18.125 32.5 18.125Z" fill="url(#paint14_linear_3914_897)"/>
<path d="M37.4961 18.125C38.1864 18.125 38.7461 17.5654 38.7461 16.875C38.7461 16.1846 38.1864 15.625 37.4961 15.625C36.8057 15.625 36.2461 16.1846 36.2461 16.875C36.2461 17.5654 36.8057 18.125 37.4961 18.125Z" fill="url(#paint15_linear_3914_897)"/>
<path d="M42.5 18.125C43.1904 18.125 43.75 17.5654 43.75 16.875C43.75 16.1846 43.1904 15.625 42.5 15.625C41.8096 15.625 41.25 16.1846 41.25 16.875C41.25 17.5654 41.8096 18.125 42.5 18.125Z" fill="url(#paint16_linear_3914_897)"/>
<path d="M20.0039 23.125C20.6943 23.125 21.2539 22.5654 21.2539 21.875C21.2539 21.1846 20.6943 20.625 20.0039 20.625C19.3136 20.625 18.7539 21.1846 18.7539 21.875C18.7539 22.5654 19.3136 23.125 20.0039 23.125Z" fill="url(#paint17_linear_3914_897)"/>
<path d="M25 23.125C25.6904 23.125 26.25 22.5654 26.25 21.875C26.25 21.1846 25.6904 20.625 25 20.625C24.3096 20.625 23.75 21.1846 23.75 21.875C23.75 22.5654 24.3096 23.125 25 23.125Z" fill="url(#paint18_linear_3914_897)"/>
<path d="M30 23.125C30.6904 23.125 31.25 22.5654 31.25 21.875C31.25 21.1846 30.6904 20.625 30 20.625C29.3096 20.625 28.75 21.1846 28.75 21.875C28.75 22.5654 29.3096 23.125 30 23.125Z" fill="url(#paint19_linear_3914_897)"/>
<path d="M35.0039 23.125C35.6943 23.125 36.2539 22.5654 36.2539 21.875C36.2539 21.1846 35.6943 20.625 35.0039 20.625C34.3136 20.625 33.7539 21.1846 33.7539 21.875C33.7539 22.5654 34.3136 23.125 35.0039 23.125Z" fill="url(#paint20_linear_3914_897)"/>
<path d="M40 23.125C40.6904 23.125 41.25 22.5654 41.25 21.875C41.25 21.1846 40.6904 20.625 40 20.625C39.3096 20.625 38.75 21.1846 38.75 21.875C38.75 22.5654 39.3096 23.125 40 23.125Z" fill="url(#paint21_linear_3914_897)"/>
<path d="M45 23.125C45.6904 23.125 46.25 22.5654 46.25 21.875C46.25 21.1846 45.6904 20.625 45 20.625C44.3096 20.625 43.75 21.1846 43.75 21.875C43.75 22.5654 44.3096 23.125 45 23.125Z" fill="url(#paint22_linear_3914_897)"/>
<path d="M22.4961 28.125C23.1864 28.125 23.7461 27.5654 23.7461 26.875C23.7461 26.1846 23.1864 25.625 22.4961 25.625C21.8057 25.625 21.2461 26.1846 21.2461 26.875C21.2461 27.5654 21.8057 28.125 22.4961 28.125Z" fill="url(#paint23_linear_3914_897)"/>
<path d="M27.5 28.125C28.1904 28.125 28.75 27.5654 28.75 26.875C28.75 26.1846 28.1904 25.625 27.5 25.625C26.8096 25.625 26.25 26.1846 26.25 26.875C26.25 27.5654 26.8096 28.125 27.5 28.125Z" fill="url(#paint24_linear_3914_897)"/>
<path d="M32.5 28.125C33.1904 28.125 33.75 27.5654 33.75 26.875C33.75 26.1846 33.1904 25.625 32.5 25.625C31.8096 25.625 31.25 26.1846 31.25 26.875C31.25 27.5654 31.8096 28.125 32.5 28.125Z" fill="url(#paint25_linear_3914_897)"/>
<path d="M37.4961 28.125C38.1864 28.125 38.7461 27.5654 38.7461 26.875C38.7461 26.1846 38.1864 25.625 37.4961 25.625C36.8057 25.625 36.2461 26.1846 36.2461 26.875C36.2461 27.5654 36.8057 28.125 37.4961 28.125Z" fill="url(#paint26_linear_3914_897)"/>
<path d="M42.5 28.125C43.1904 28.125 43.75 27.5654 43.75 26.875C43.75 26.1846 43.1904 25.625 42.5 25.625C41.8096 25.625 41.25 26.1846 41.25 26.875C41.25 27.5654 41.8096 28.125 42.5 28.125Z" fill="url(#paint27_linear_3914_897)"/>
<path d="M25 31.875C25.6904 31.875 26.25 31.3154 26.25 30.625C26.25 29.9346 25.6904 29.375 25 29.375C24.3096 29.375 23.75 29.9346 23.75 30.625C23.75 31.3154 24.3096 31.875 25 31.875Z" fill="url(#paint28_linear_3914_897)"/>
<path d="M30 31.875C30.6904 31.875 31.25 31.3154 31.25 30.625C31.25 29.9346 30.6904 29.375 30 29.375C29.3096 29.375 28.75 29.9346 28.75 30.625C28.75 31.3154 29.3096 31.875 30 31.875Z" fill="url(#paint29_linear_3914_897)"/>
<path d="M35.0039 31.875C35.6943 31.875 36.2539 31.3154 36.2539 30.625C36.2539 29.9346 35.6943 29.375 35.0039 29.375C34.3136 29.375 33.7539 29.9346 33.7539 30.625C33.7539 31.3154 34.3136 31.875 35.0039 31.875Z" fill="url(#paint30_linear_3914_897)"/>
<path d="M40 31.875C40.6904 31.875 41.25 31.3154 41.25 30.625C41.25 29.9346 40.6904 29.375 40 29.375C39.3096 29.375 38.75 29.9346 38.75 30.625C38.75 31.3154 39.3096 31.875 40 31.875Z" fill="url(#paint31_linear_3914_897)"/>
<defs>
<linearGradient id="paint0_linear_3914_897" x1="45.6247" y1="54.3752" x2="54.3747" y2="54.3752" gradientUnits="userSpaceOnUse">
<stop stop-color="#F69220"/>
<stop offset="0.2863" stop-color="#F68E20"/>
<stop offset="0.5401" stop-color="#F48421"/>
<stop offset="0.7807" stop-color="#F37221"/>
<stop offset="1" stop-color="#F05A22"/>
</linearGradient>
<linearGradient id="paint1_linear_3914_897" x1="10.6325" y1="54.3752" x2="19.3825" y2="54.3752" gradientUnits="userSpaceOnUse">
<stop stop-color="#F69220"/>
<stop offset="0.2863" stop-color="#F68E20"/>
<stop offset="0.5401" stop-color="#F48421"/>
<stop offset="0.7807" stop-color="#F37221"/>
<stop offset="1" stop-color="#F05A22"/>
</linearGradient>
<linearGradient id="paint2_linear_3914_897" x1="8.12656" y1="35.6251" x2="11.8765" y2="35.6251" gradientUnits="userSpaceOnUse">
<stop stop-color="#F69220"/>
<stop offset="0.2863" stop-color="#F68E20"/>
<stop offset="0.5401" stop-color="#F48421"/>
<stop offset="0.7807" stop-color="#F37221"/>
<stop offset="1" stop-color="#F05A22"/>
</linearGradient>
<linearGradient id="paint3_linear_3914_897" x1="53.1266" y1="35.6251" x2="56.8765" y2="35.6251" gradientUnits="userSpaceOnUse">
<stop stop-color="#F69220"/>
<stop offset="0.2863" stop-color="#F68E20"/>
<stop offset="0.5401" stop-color="#F48421"/>
<stop offset="0.7807" stop-color="#F37221"/>
<stop offset="1" stop-color="#F05A22"/>
</linearGradient>
<linearGradient id="paint4_linear_3914_897" x1="13.1372" y1="23.1256" x2="51.8869" y2="23.1256" gradientUnits="userSpaceOnUse">
<stop stop-color="#F69220"/>
<stop offset="0.2863" stop-color="#F68E20"/>
<stop offset="0.5401" stop-color="#F48421"/>
<stop offset="0.7807" stop-color="#F37221"/>
<stop offset="1" stop-color="#F05A22"/>
</linearGradient>
<linearGradient id="paint5_linear_3914_897" x1="3.14937" y1="39.3756" x2="61.8989" y2="39.3756" gradientUnits="userSpaceOnUse">
<stop stop-color="#F69220"/>
<stop offset="0.2863" stop-color="#F68E20"/>
<stop offset="0.5401" stop-color="#F48421"/>
<stop offset="0.7807" stop-color="#F37221"/>
<stop offset="1" stop-color="#F05A22"/>
</linearGradient>
<linearGradient id="paint6_linear_3914_897" x1="18.7549" y1="11.875" x2="21.2549" y2="11.875" gradientUnits="userSpaceOnUse">
<stop stop-color="#F69220"/>
<stop offset="0.2863" stop-color="#F68E20"/>
<stop offset="0.5401" stop-color="#F48421"/>
<stop offset="0.7807" stop-color="#F37221"/>
<stop offset="1" stop-color="#F05A22"/>
</linearGradient>
<linearGradient id="paint7_linear_3914_897" x1="23.751" y1="11.875" x2="26.251" y2="11.875" gradientUnits="userSpaceOnUse">
<stop stop-color="#F69220"/>
<stop offset="0.2863" stop-color="#F68E20"/>
<stop offset="0.5401" stop-color="#F48421"/>
<stop offset="0.7807" stop-color="#F37221"/>
<stop offset="1" stop-color="#F05A22"/>
</linearGradient>
<linearGradient id="paint8_linear_3914_897" x1="28.751" y1="11.875" x2="31.251" y2="11.875" gradientUnits="userSpaceOnUse">
<stop stop-color="#F69220"/>
<stop offset="0.2863" stop-color="#F68E20"/>
<stop offset="0.5401" stop-color="#F48421"/>
<stop offset="0.7807" stop-color="#F37221"/>
<stop offset="1" stop-color="#F05A22"/>
</linearGradient>
<linearGradient id="paint9_linear_3914_897" x1="33.7549" y1="11.875" x2="36.2549" y2="11.875" gradientUnits="userSpaceOnUse">
<stop stop-color="#F69220"/>
<stop offset="0.2863" stop-color="#F68E20"/>
<stop offset="0.5401" stop-color="#F48421"/>
<stop offset="0.7807" stop-color="#F37221"/>
<stop offset="1" stop-color="#F05A22"/>
</linearGradient>
<linearGradient id="paint10_linear_3914_897" x1="38.751" y1="11.875" x2="41.251" y2="11.875" gradientUnits="userSpaceOnUse">
<stop stop-color="#F69220"/>
<stop offset="0.2863" stop-color="#F68E20"/>
<stop offset="0.5401" stop-color="#F48421"/>
<stop offset="0.7807" stop-color="#F37221"/>
<stop offset="1" stop-color="#F05A22"/>
</linearGradient>
<linearGradient id="paint11_linear_3914_897" x1="43.751" y1="11.875" x2="46.251" y2="11.875" gradientUnits="userSpaceOnUse">
<stop stop-color="#F69220"/>
<stop offset="0.2863" stop-color="#F68E20"/>
<stop offset="0.5401" stop-color="#F48421"/>
<stop offset="0.7807" stop-color="#F37221"/>
<stop offset="1" stop-color="#F05A22"/>
</linearGradient>
<linearGradient id="paint12_linear_3914_897" x1="21.2471" y1="16.875" x2="23.7471" y2="16.875" gradientUnits="userSpaceOnUse">
<stop stop-color="#F69220"/>
<stop offset="0.2863" stop-color="#F68E20"/>
<stop offset="0.5401" stop-color="#F48421"/>
<stop offset="0.7807" stop-color="#F37221"/>
<stop offset="1" stop-color="#F05A22"/>
</linearGradient>
<linearGradient id="paint13_linear_3914_897" x1="26.251" y1="16.875" x2="28.751" y2="16.875" gradientUnits="userSpaceOnUse">
<stop stop-color="#F69220"/>
<stop offset="0.2863" stop-color="#F68E20"/>
<stop offset="0.5401" stop-color="#F48421"/>
<stop offset="0.7807" stop-color="#F37221"/>
<stop offset="1" stop-color="#F05A22"/>
</linearGradient>
<linearGradient id="paint14_linear_3914_897" x1="31.251" y1="16.875" x2="33.751" y2="16.875" gradientUnits="userSpaceOnUse">
<stop stop-color="#F69220"/>
<stop offset="0.2863" stop-color="#F68E20"/>
<stop offset="0.5401" stop-color="#F48421"/>
<stop offset="0.7807" stop-color="#F37221"/>
<stop offset="1" stop-color="#F05A22"/>
</linearGradient>
<linearGradient id="paint15_linear_3914_897" x1="36.2471" y1="16.875" x2="38.7471" y2="16.875" gradientUnits="userSpaceOnUse">
<stop stop-color="#F69220"/>
<stop offset="0.2863" stop-color="#F68E20"/>
<stop offset="0.5401" stop-color="#F48421"/>
<stop offset="0.7807" stop-color="#F37221"/>
<stop offset="1" stop-color="#F05A22"/>
</linearGradient>
<linearGradient id="paint16_linear_3914_897" x1="41.251" y1="16.875" x2="43.751" y2="16.875" gradientUnits="userSpaceOnUse">
<stop stop-color="#F69220"/>
<stop offset="0.2863" stop-color="#F68E20"/>
<stop offset="0.5401" stop-color="#F48421"/>
<stop offset="0.7807" stop-color="#F37221"/>
<stop offset="1" stop-color="#F05A22"/>
</linearGradient>
<linearGradient id="paint17_linear_3914_897" x1="18.7549" y1="21.875" x2="21.2549" y2="21.875" gradientUnits="userSpaceOnUse">
<stop stop-color="#F69220"/>
<stop offset="0.2863" stop-color="#F68E20"/>
<stop offset="0.5401" stop-color="#F48421"/>
<stop offset="0.7807" stop-color="#F37221"/>
<stop offset="1" stop-color="#F05A22"/>
</linearGradient>
<linearGradient id="paint18_linear_3914_897" x1="23.751" y1="21.875" x2="26.251" y2="21.875" gradientUnits="userSpaceOnUse">
<stop stop-color="#F69220"/>
<stop offset="0.2863" stop-color="#F68E20"/>
<stop offset="0.5401" stop-color="#F48421"/>
<stop offset="0.7807" stop-color="#F37221"/>
<stop offset="1" stop-color="#F05A22"/>
</linearGradient>
<linearGradient id="paint19_linear_3914_897" x1="28.751" y1="21.875" x2="31.251" y2="21.875" gradientUnits="userSpaceOnUse">
<stop stop-color="#F69220"/>
<stop offset="0.2863" stop-color="#F68E20"/>
<stop offset="0.5401" stop-color="#F48421"/>
<stop offset="0.7807" stop-color="#F37221"/>
<stop offset="1" stop-color="#F05A22"/>
</linearGradient>
<linearGradient id="paint20_linear_3914_897" x1="33.7549" y1="21.875" x2="36.2549" y2="21.875" gradientUnits="userSpaceOnUse">
<stop stop-color="#F69220"/>
<stop offset="0.2863" stop-color="#F68E20"/>
<stop offset="0.5401" stop-color="#F48421"/>
<stop offset="0.7807" stop-color="#F37221"/>
<stop offset="1" stop-color="#F05A22"/>
</linearGradient>
<linearGradient id="paint21_linear_3914_897" x1="38.751" y1="21.875" x2="41.251" y2="21.875" gradientUnits="userSpaceOnUse">
<stop stop-color="#F69220"/>
<stop offset="0.2863" stop-color="#F68E20"/>
<stop offset="0.5401" stop-color="#F48421"/>
<stop offset="0.7807" stop-color="#F37221"/>
<stop offset="1" stop-color="#F05A22"/>
</linearGradient>
<linearGradient id="paint22_linear_3914_897" x1="43.751" y1="21.875" x2="46.251" y2="21.875" gradientUnits="userSpaceOnUse">
<stop stop-color="#F69220"/>
<stop offset="0.2863" stop-color="#F68E20"/>
<stop offset="0.5401" stop-color="#F48421"/>
<stop offset="0.7807" stop-color="#F37221"/>
<stop offset="1" stop-color="#F05A22"/>
</linearGradient>
<linearGradient id="paint23_linear_3914_897" x1="21.2471" y1="26.875" x2="23.7471" y2="26.875" gradientUnits="userSpaceOnUse">
<stop stop-color="#F69220"/>
<stop offset="0.2863" stop-color="#F68E20"/>
<stop offset="0.5401" stop-color="#F48421"/>
<stop offset="0.7807" stop-color="#F37221"/>
<stop offset="1" stop-color="#F05A22"/>
</linearGradient>
<linearGradient id="paint24_linear_3914_897" x1="26.251" y1="26.875" x2="28.751" y2="26.875" gradientUnits="userSpaceOnUse">
<stop stop-color="#F69220"/>
<stop offset="0.2863" stop-color="#F68E20"/>
<stop offset="0.5401" stop-color="#F48421"/>
<stop offset="0.7807" stop-color="#F37221"/>
<stop offset="1" stop-color="#F05A22"/>
</linearGradient>
<linearGradient id="paint25_linear_3914_897" x1="31.251" y1="26.875" x2="33.751" y2="26.875" gradientUnits="userSpaceOnUse">
<stop stop-color="#F69220"/>
<stop offset="0.2863" stop-color="#F68E20"/>
<stop offset="0.5401" stop-color="#F48421"/>
<stop offset="0.7807" stop-color="#F37221"/>
<stop offset="1" stop-color="#F05A22"/>
</linearGradient>
<linearGradient id="paint26_linear_3914_897" x1="36.2471" y1="26.875" x2="38.7471" y2="26.875" gradientUnits="userSpaceOnUse">
<stop stop-color="#F69220"/>
<stop offset="0.2863" stop-color="#F68E20"/>
<stop offset="0.5401" stop-color="#F48421"/>
<stop offset="0.7807" stop-color="#F37221"/>
<stop offset="1" stop-color="#F05A22"/>
</linearGradient>
<linearGradient id="paint27_linear_3914_897" x1="41.251" y1="26.875" x2="43.751" y2="26.875" gradientUnits="userSpaceOnUse">
<stop stop-color="#F69220"/>
<stop offset="0.2863" stop-color="#F68E20"/>
<stop offset="0.5401" stop-color="#F48421"/>
<stop offset="0.7807" stop-color="#F37221"/>
<stop offset="1" stop-color="#F05A22"/>
</linearGradient>
<linearGradient id="paint28_linear_3914_897" x1="23.751" y1="30.625" x2="26.251" y2="30.625" gradientUnits="userSpaceOnUse">
<stop stop-color="#F69220"/>
<stop offset="0.2863" stop-color="#F68E20"/>
<stop offset="0.5401" stop-color="#F48421"/>
<stop offset="0.7807" stop-color="#F37221"/>
<stop offset="1" stop-color="#F05A22"/>
</linearGradient>
<linearGradient id="paint29_linear_3914_897" x1="28.751" y1="30.625" x2="31.251" y2="30.625" gradientUnits="userSpaceOnUse">
<stop stop-color="#F69220"/>
<stop offset="0.2863" stop-color="#F68E20"/>
<stop offset="0.5401" stop-color="#F48421"/>
<stop offset="0.7807" stop-color="#F37221"/>
<stop offset="1" stop-color="#F05A22"/>
</linearGradient>
<linearGradient id="paint30_linear_3914_897" x1="33.7549" y1="30.625" x2="36.2549" y2="30.625" gradientUnits="userSpaceOnUse">
<stop stop-color="#F69220"/>
<stop offset="0.2863" stop-color="#F68E20"/>
<stop offset="0.5401" stop-color="#F48421"/>
<stop offset="0.7807" stop-color="#F37221"/>
<stop offset="1" stop-color="#F05A22"/>
</linearGradient>
<linearGradient id="paint31_linear_3914_897" x1="38.751" y1="30.625" x2="41.251" y2="30.625" gradientUnits="userSpaceOnUse">
<stop stop-color="#F69220"/>
<stop offset="0.2863" stop-color="#F68E20"/>
<stop offset="0.5401" stop-color="#F48421"/>
<stop offset="0.7807" stop-color="#F37221"/>
<stop offset="1" stop-color="#F05A22"/>
</linearGradient>
</defs>
</svg>
