<svg width="65" height="65" viewBox="0 0 65 65" fill="none" xmlns="http://www.w3.org/2000/svg">
<path d="M32.5 63.125C32.3954 63.125 32.2909 63.0988 32.1965 63.0464L21.2695 56.9759C13.9328 52.8999 9.375 45.1539 9.375 36.761V12.5C9.375 12.1549 9.65487 11.875 10 11.875H10.4624C18.7266 11.875 26.5876 8.30788 32.0297 2.0885C32.1484 1.95288 32.3199 1.875 32.5 1.875C32.6801 1.875 32.8516 1.95288 32.9704 2.0885C38.4125 8.30788 46.2735 11.875 54.5377 11.875H55C55.3452 11.875 55.625 12.1549 55.625 12.5V36.761C55.625 45.154 51.0672 52.8999 43.7305 56.9759L32.8035 63.0464C32.7091 63.0988 32.6046 63.125 32.5 63.125ZM10.625 13.1246V36.761C10.625 44.7004 14.9364 52.0275 21.8766 55.8831L32.5 61.785L43.1234 55.883C50.0637 52.0275 54.375 44.7004 54.375 36.761V13.1246C46.045 13.0794 38.1205 9.56275 32.5 3.43663C26.8796 9.56275 18.955 13.0794 10.625 13.1246Z" fill="url(#paint0_linear_3914_878)"/>
<path d="M43.7579 24.2789C43.6226 24.2789 43.4882 24.2349 43.3767 24.1493L38.3767 20.303C38.2229 20.1847 38.1328 20.0016 38.1328 19.8076V15C38.1328 14.6549 38.4126 14.375 38.7578 14.375H43.7578C44.1031 14.375 44.3828 14.6549 44.3828 15V23.6539C44.3828 23.892 44.2476 24.1094 44.0339 24.2146C43.9464 24.2577 43.8519 24.2789 43.7579 24.2789ZM39.3828 19.5L43.1328 22.3846V15.625H39.3828V19.5Z" fill="url(#paint1_linear_3914_878)"/>
<path d="M48.754 28.1249H16.254C15.9863 28.1249 15.7485 27.9546 15.6622 27.7012C15.5761 27.4478 15.6607 27.1677 15.873 27.0046L32.123 14.5046C32.3475 14.3318 32.6605 14.3318 32.8851 14.5046L49.1351 27.0046C49.3471 27.1678 49.4318 27.4478 49.3457 27.7012C49.2596 27.9546 49.0216 28.1249 48.754 28.1249ZM18.0916 26.8749H46.9165L32.504 15.7884L18.0916 26.8749Z" fill="url(#paint2_linear_3914_878)"/>
<path d="M45.0039 49.375H20.0039C19.6588 49.375 19.3789 49.0952 19.3789 48.75V27.5C19.3789 27.1549 19.6588 26.875 20.0039 26.875H45.0039C45.3492 26.875 45.6289 27.1549 45.6289 27.5V48.75C45.6289 49.0952 45.3492 49.375 45.0039 49.375ZM20.6289 48.125H44.3789V28.125H20.6289V48.125Z" fill="url(#paint3_linear_3914_878)"/>
<path d="M36.2539 49.375H28.7539C28.4088 49.375 28.1289 49.0953 28.1289 48.75V36.25C28.1289 35.9047 28.4088 35.625 28.7539 35.625H36.2539C36.5992 35.625 36.8789 35.9047 36.8789 36.25V48.75C36.8789 49.0953 36.5992 49.375 36.2539 49.375ZM29.3789 48.125H35.6289V36.875H29.3789V48.125Z" fill="url(#paint4_linear_3914_878)"/>
<defs>
<linearGradient id="paint0_linear_3914_878" x1="9.39419" y1="32.5011" x2="55.6438" y2="32.5011" gradientUnits="userSpaceOnUse">
<stop stop-color="#F69220"/>
<stop offset="0.2863" stop-color="#F68E20"/>
<stop offset="0.5401" stop-color="#F48421"/>
<stop offset="0.7807" stop-color="#F37221"/>
<stop offset="1" stop-color="#F05A22"/>
</linearGradient>
<linearGradient id="paint1_linear_3914_878" x1="38.1354" y1="19.3271" x2="44.3854" y2="19.3271" gradientUnits="userSpaceOnUse">
<stop stop-color="#F69220"/>
<stop offset="0.2863" stop-color="#F68E20"/>
<stop offset="0.5401" stop-color="#F48421"/>
<stop offset="0.7807" stop-color="#F37221"/>
<stop offset="1" stop-color="#F05A22"/>
</linearGradient>
<linearGradient id="paint2_linear_3914_878" x1="15.6429" y1="21.2502" x2="49.3928" y2="21.2502" gradientUnits="userSpaceOnUse">
<stop stop-color="#F69220"/>
<stop offset="0.2863" stop-color="#F68E20"/>
<stop offset="0.5401" stop-color="#F48421"/>
<stop offset="0.7807" stop-color="#F37221"/>
<stop offset="1" stop-color="#F05A22"/>
</linearGradient>
<linearGradient id="paint3_linear_3914_878" x1="19.3898" y1="38.1254" x2="45.6396" y2="38.1254" gradientUnits="userSpaceOnUse">
<stop stop-color="#F69220"/>
<stop offset="0.2863" stop-color="#F68E20"/>
<stop offset="0.5401" stop-color="#F48421"/>
<stop offset="0.7807" stop-color="#F37221"/>
<stop offset="1" stop-color="#F05A22"/>
</linearGradient>
<linearGradient id="paint4_linear_3914_878" x1="28.1325" y1="42.5003" x2="36.8825" y2="42.5003" gradientUnits="userSpaceOnUse">
<stop stop-color="#F69220"/>
<stop offset="0.2863" stop-color="#F68E20"/>
<stop offset="0.5401" stop-color="#F48421"/>
<stop offset="0.7807" stop-color="#F37221"/>
<stop offset="1" stop-color="#F05A22"/>
</linearGradient>
</defs>
</svg>
