<svg width="65" height="65" viewBox="0 0 65 65" fill="none" xmlns="http://www.w3.org/2000/svg">
<path d="M53.7422 17.2916C53.6209 17.2916 53.5001 17.2564 53.3956 17.1866L45.8956 12.1866C45.7217 12.0707 45.6172 11.8756 45.6172 11.6666V2.5C45.6172 2.15488 45.8969 1.875 46.2422 1.875H53.7422C54.0874 1.875 54.3672 2.15488 54.3672 2.5V16.6666C54.3672 16.8971 54.2403 17.1089 54.0371 17.2176C53.9447 17.2673 53.8434 17.2916 53.7422 17.2916ZM46.8672 11.3322L53.1172 15.4989V3.125H46.8672V11.3322Z" fill="url(#paint0_linear_3914_940)"/>
<path d="M62.4962 23.125H2.49618C2.2208 23.125 1.9778 22.9447 1.89793 22.6811C1.81818 22.4176 1.9203 22.1327 2.14943 21.98L32.1494 1.98C32.3594 1.84 32.6328 1.84 32.8428 1.98L62.8428 21.98C63.0719 22.1327 63.1741 22.4175 63.0943 22.6811C63.0146 22.9447 62.7716 23.125 62.4962 23.125ZM4.56043 21.875H60.4319L32.4962 3.25113L4.56043 21.875Z" fill="url(#paint1_linear_3914_940)"/>
<path d="M57.5 63.125H7.5C7.15488 63.125 6.875 62.8452 6.875 62.5V22.5C6.875 22.1549 7.15488 21.875 7.5 21.875H57.5C57.8453 21.875 58.125 22.1549 58.125 22.5V62.5C58.125 62.8452 57.8453 63.125 57.5 63.125ZM8.125 61.875H56.875V23.125H8.125V61.875Z" fill="url(#paint2_linear_3914_940)"/>
<path d="M32.4922 18.125C30.0798 18.125 28.1172 16.1624 28.1172 13.75C28.1172 11.3376 30.0798 9.375 32.4922 9.375C34.9046 9.375 36.8672 11.3376 36.8672 13.75C36.8672 16.1624 34.9046 18.125 32.4922 18.125ZM32.4922 10.625C30.7691 10.625 29.3672 12.0269 29.3672 13.75C29.3672 15.4731 30.7691 16.875 32.4922 16.875C34.2153 16.875 35.6172 15.4731 35.6172 13.75C35.6172 12.0269 34.2153 10.625 32.4922 10.625Z" fill="url(#paint3_linear_3914_940)"/>
<path d="M32.5 58.125C32.2971 58.125 32.1068 58.0265 31.9896 57.8609C31.6278 57.3489 23.125 45.2205 23.125 36.25C23.125 31.0806 27.3306 26.875 32.5 26.875C37.6694 26.875 41.875 31.0806 41.875 36.25C41.875 45.2205 33.3724 57.3489 33.0104 57.8609C32.8933 58.0265 32.7029 58.125 32.5 58.125ZM32.5 28.125C28.0199 28.125 24.375 31.7699 24.375 36.25C24.375 43.5954 30.6447 53.5904 32.4999 56.3864C34.355 53.5892 40.625 43.5911 40.625 36.25C40.625 31.7699 36.9801 28.125 32.5 28.125Z" fill="url(#paint4_linear_3914_940)"/>
<path d="M32.4922 40.625C30.0798 40.625 28.1172 38.6624 28.1172 36.25C28.1172 33.8376 30.0798 31.875 32.4922 31.875C34.9046 31.875 36.8672 33.8376 36.8672 36.25C36.8672 38.6624 34.9046 40.625 32.4922 40.625ZM32.4922 33.125C30.7691 33.125 29.3672 34.5269 29.3672 36.25C29.3672 37.9731 30.7691 39.375 32.4922 39.375C34.2153 39.375 35.6172 37.9731 35.6172 36.25C35.6172 34.5269 34.2153 33.125 32.4922 33.125Z" fill="url(#paint5_linear_3914_940)"/>
<defs>
<linearGradient id="paint0_linear_3914_940" x1="45.6208" y1="9.5836" x2="54.3708" y2="9.5836" gradientUnits="userSpaceOnUse">
<stop stop-color="#F69220"/>
<stop offset="0.2863" stop-color="#F68E20"/>
<stop offset="0.5401" stop-color="#F48421"/>
<stop offset="0.7807" stop-color="#F37221"/>
<stop offset="1" stop-color="#F05A22"/>
</linearGradient>
<linearGradient id="paint1_linear_3914_940" x1="1.8965" y1="12.5004" x2="63.1461" y2="12.5004" gradientUnits="userSpaceOnUse">
<stop stop-color="#F69220"/>
<stop offset="0.2863" stop-color="#F68E20"/>
<stop offset="0.5401" stop-color="#F48421"/>
<stop offset="0.7807" stop-color="#F37221"/>
<stop offset="1" stop-color="#F05A22"/>
</linearGradient>
<linearGradient id="paint2_linear_3914_940" x1="6.89626" y1="42.5008" x2="58.1459" y2="42.5008" gradientUnits="userSpaceOnUse">
<stop stop-color="#F69220"/>
<stop offset="0.2863" stop-color="#F68E20"/>
<stop offset="0.5401" stop-color="#F48421"/>
<stop offset="0.7807" stop-color="#F37221"/>
<stop offset="1" stop-color="#F05A22"/>
</linearGradient>
<linearGradient id="paint3_linear_3914_940" x1="28.1208" y1="13.7502" x2="36.8708" y2="13.7502" gradientUnits="userSpaceOnUse">
<stop stop-color="#F69220"/>
<stop offset="0.2863" stop-color="#F68E20"/>
<stop offset="0.5401" stop-color="#F48421"/>
<stop offset="0.7807" stop-color="#F37221"/>
<stop offset="1" stop-color="#F05A22"/>
</linearGradient>
<linearGradient id="paint4_linear_3914_940" x1="23.1328" y1="42.5006" x2="41.8826" y2="42.5006" gradientUnits="userSpaceOnUse">
<stop stop-color="#F69220"/>
<stop offset="0.2863" stop-color="#F68E20"/>
<stop offset="0.5401" stop-color="#F48421"/>
<stop offset="0.7807" stop-color="#F37221"/>
<stop offset="1" stop-color="#F05A22"/>
</linearGradient>
<linearGradient id="paint5_linear_3914_940" x1="28.1208" y1="36.2502" x2="36.8708" y2="36.2502" gradientUnits="userSpaceOnUse">
<stop stop-color="#F69220"/>
<stop offset="0.2863" stop-color="#F68E20"/>
<stop offset="0.5401" stop-color="#F48421"/>
<stop offset="0.7807" stop-color="#F37221"/>
<stop offset="1" stop-color="#F05A22"/>
</linearGradient>
</defs>
</svg>
