<svg width="20" height="20" viewBox="0 0 20 20" fill="none" xmlns="http://www.w3.org/2000/svg">
<path d="M19.227 1.32031H10.6355C10.2102 1.32031 9.86367 1.66641 9.86367 2.09219V7.67773L9.60703 7.53984C9.28984 7.36836 8.91211 7.37031 8.59609 7.54453L8.15312 7.78203V5.48594C8.15312 5.11289 7.84961 4.80938 7.47656 4.80938H0.676562C0.303516 4.80938 0 5.11289 0 5.48594V18.3625C0 18.5352 0.139844 18.6746 0.312109 18.6746H19.1738C19.6293 18.6746 20 18.3047 20 17.8496V2.09219C20 1.6668 19.6531 1.32031 19.227 1.32031ZM8.89297 8.09414C8.89414 8.09336 8.89531 8.09258 8.89687 8.09219C9.02617 8.02031 9.18086 8.01953 9.31094 8.08984L15.1004 11.1957C15.202 11.2504 15.2762 11.3414 15.3094 11.452C15.3426 11.5625 15.3305 11.6797 15.2754 11.782C15.1633 11.9914 14.9008 12.0699 14.6902 11.9574L14.1914 11.6898C14.1801 11.6828 14.168 11.6762 14.1555 11.6707L9.25391 9.03984C9.20852 9.01542 9.15779 9.00264 9.10625 9.00264C9.05471 9.00264 9.00398 9.01542 8.95859 9.03984L4.04727 11.675C4.04102 11.6781 4.03477 11.6813 4.02852 11.6852L3.52109 11.9574C3.31094 12.0699 3.04844 11.991 2.93594 11.7812C2.88125 11.6797 2.86953 11.5629 2.90273 11.4523C2.93594 11.3418 3.01055 11.2504 3.11172 11.1957L4.88789 10.243C4.89062 10.2414 4.89297 10.2402 4.8957 10.2387L6.46953 9.39453C6.47578 9.39141 6.48242 9.38789 6.48828 9.38437L8.89297 8.09414ZM16.607 18.0504H14.3297C14.3355 18.0133 14.3395 17.9754 14.3395 17.9363V14.7949H16.5695C16.5895 14.7949 16.607 14.8125 16.607 14.8324V18.0504ZM13.7148 17.9363C13.7148 17.998 13.6625 18.0504 13.6008 18.0504H10.9434V15.0133C10.9434 14.8406 10.8035 14.7012 10.6313 14.7012H7.58086C7.40859 14.7012 7.26875 14.841 7.26875 15.0133V18.0504H4.6125C4.55078 18.0504 4.49844 17.998 4.49844 17.9363V12.1422L9.10703 9.66953L13.7156 12.1426V17.9363H13.7148ZM6.01914 8.92734L5.05586 9.44414V7.8082H6.01914V8.92734ZM0.624609 5.48594C0.624609 5.45742 0.648047 5.43398 0.676562 5.43398H7.47656C7.50508 5.43398 7.52852 5.45742 7.52852 5.48594V8.11758L6.64375 8.59219V7.79805C6.64375 7.45937 6.36758 7.18359 6.02813 7.18359H5.04609C4.70742 7.18359 4.43164 7.45937 4.43164 7.79805V9.7793L2.81641 10.6457C2.56797 10.7793 2.38633 11.002 2.30469 11.2723C2.22344 11.543 2.25195 11.8289 2.38594 12.0773C2.66133 12.5895 3.30313 12.7824 3.81602 12.5078L3.87305 12.477V17.9359C3.87305 17.975 3.87695 18.0125 3.88281 18.05H0.624609V5.48594ZM7.89297 18.0504V15.3254H10.3191V18.0504H7.89297ZM19.3754 17.85C19.3754 17.9605 19.2852 18.0504 19.1738 18.0504H17.2316V14.8328C17.2316 14.4676 16.9348 14.1707 16.5695 14.1707H14.3395V12.4781L14.3957 12.5082H14.3961C14.5492 12.5904 14.7203 12.6335 14.8941 12.6336C15.1141 12.6336 15.3297 12.5645 15.509 12.4371C15.5621 12.643 15.7488 12.7957 15.9703 12.7957H17.516C17.7793 12.7957 17.9934 12.5813 17.9934 12.3172V10.7727C17.9934 10.509 17.7793 10.2941 17.516 10.2941H15.9703C15.7289 10.2941 15.5293 10.475 15.498 10.7082C15.4656 10.6855 15.4316 10.6645 15.3961 10.6457L12.5281 9.10703H13.8934C14.1566 9.10703 14.3707 8.89258 14.3707 8.62852V7.08281C14.3707 6.81953 14.1566 6.60547 13.8934 6.60547H12.3477C12.084 6.60547 11.8691 6.81953 11.8691 7.08281V8.62852C11.8691 8.67578 11.8762 8.72109 11.8891 8.76406L10.4883 8.01289V2.09219C10.4883 2.01094 10.5543 1.94492 10.6355 1.94492H19.227C19.3086 1.94492 19.3754 2.01094 19.3754 2.09219V17.85ZM16.1176 12.1707V10.9184H17.3688V12.1707H16.1176ZM12.4937 8.48242V7.23008H13.7461V8.48242H12.4937ZM13.8934 2.91719H12.3477C12.084 2.91719 11.8691 3.13125 11.8691 3.39453V4.94023C11.8691 5.20352 12.0836 5.41758 12.3477 5.41758H13.8934C14.1566 5.41758 14.3707 5.20352 14.3707 4.94023V3.39453C14.3703 3.13125 14.1563 2.91719 13.8934 2.91719ZM13.7461 4.79297H12.4937V3.5418H13.7461V4.79297ZM17.5164 2.91719H15.9707C15.7074 2.91719 15.4934 3.13125 15.4934 3.39453V4.94023C15.4934 5.20352 15.7074 5.41758 15.9707 5.41758H17.5164C17.7797 5.41758 17.9938 5.20352 17.9938 4.94023V3.39453C17.9934 3.13125 17.7793 2.91719 17.5164 2.91719ZM17.3691 4.79297H16.118V3.5418H17.3691V4.79297ZM17.5164 6.60547H15.9707C15.7074 6.60547 15.4934 6.81953 15.4934 7.08281V8.62852C15.4934 8.89219 15.7074 9.10703 15.9707 9.10703H17.5164C17.7797 9.10703 17.9938 8.89258 17.9938 8.62852V7.08281C17.9934 6.81953 17.7793 6.60547 17.5164 6.60547ZM17.3691 8.48242H16.118V7.23008H17.3691V8.48242Z" fill="#181616"/>
</svg>
