<svg width="20" height="20" viewBox="0 0 20 20" fill="none" xmlns="http://www.w3.org/2000/svg">
<g clip-path="url(#clip0_4024_292)">
<path d="M19.729 14.3968L17.8673 13.7192C17.8265 13.7044 17.7832 13.6978 17.7399 13.6998C17.6966 13.7018 17.6541 13.7123 17.6148 13.7307C17.5755 13.7491 17.5403 13.775 17.511 13.807C17.4818 13.8391 17.4592 13.8765 17.4444 13.9173L17.3314 14.2274L15.1746 13.4409C15.1204 13.4207 15.0617 13.4155 15.0048 13.4261L10.5174 14.2185C10.3168 14.2543 10.1271 14.3359 9.96317 14.4569C9.79923 14.578 9.66545 14.7353 9.57226 14.9165L7.51387 14.1656C7.35107 14.1058 7.17799 14.0789 7.00471 14.0866C6.83142 14.0942 6.66139 14.1363 6.50452 14.2103C6.30636 14.3027 6.13418 14.4428 6.00338 14.618C5.87258 14.7933 5.78723 14.9982 5.75496 15.2144C5.67274 15.8504 6.04938 16.4564 6.65608 16.6642L13.4367 19.1322C13.4728 19.1456 13.5111 19.1525 13.5497 19.1524C13.5856 19.1524 13.6213 19.1464 13.6553 19.135L15.549 18.4956L15.7505 18.5689L15.6375 18.8793C15.6077 18.9616 15.6118 19.0525 15.6489 19.1318C15.6861 19.2112 15.7532 19.2725 15.8356 19.3023L17.6977 19.9798C17.7337 19.9932 17.7718 20.0001 17.8102 20C17.878 20 17.9442 19.9792 17.9997 19.9404C18.0552 19.9015 18.0974 19.8465 18.1206 19.7828L19.9275 14.8178C19.9567 14.7357 19.9523 14.6453 19.9151 14.5664C19.8779 14.4875 19.811 14.4266 19.729 14.3968ZM15.4472 17.8338L13.5535 18.4731L6.88182 16.0445C6.73191 15.9946 6.60337 15.8953 6.51723 15.7629C6.43109 15.6304 6.39244 15.4727 6.40761 15.3154C6.43551 15.118 6.55096 14.9439 6.72188 14.8412C6.80624 14.7906 6.90086 14.7594 6.99881 14.7501C7.09676 14.7408 7.19555 14.7534 7.28797 14.7872L9.4304 15.5668C9.43151 15.6277 9.43634 15.6885 9.44526 15.7486C9.5747 16.4648 10.257 16.943 10.9743 16.8201L14.6918 16.1648L14.5769 15.5142L10.8612 16.1697C10.5034 16.2305 10.1629 15.9932 10.0961 15.6364C10.0824 15.5611 10.0829 15.4837 10.0977 15.4086C10.1001 15.3976 10.1021 15.3867 10.1033 15.3755C10.1077 15.3473 10.1153 15.3197 10.1261 15.2933C10.166 15.1844 10.2337 15.0878 10.3225 15.0133C10.4114 14.9387 10.5182 14.8887 10.6324 14.8683L15.0319 14.0924L17.1057 14.8468L15.9762 17.9507L15.6658 17.8382C15.5956 17.812 15.5185 17.8105 15.4472 17.8338ZM17.6114 19.2475L16.3703 18.7957L17.9511 14.4517L19.1924 14.9033L17.6114 19.2475ZM7.70311 5.32645C7.80965 5.71664 8.00618 6.07642 8.27692 6.37691C8.27197 6.40333 8.26838 6.42991 8.26677 6.45686V8.25506C8.26677 8.80212 8.71019 9.24566 9.25737 9.24566V12.5477C9.257 12.6093 9.2739 12.6698 9.30616 12.7224C9.33842 12.7749 9.38475 12.8173 9.43989 12.8449L10.1003 13.1751C10.1461 13.198 10.1967 13.2099 10.2479 13.2099C10.2992 13.2099 10.3497 13.198 10.3955 13.1751L11.0559 12.8449C11.1111 12.8173 11.1574 12.7749 11.1897 12.7224C11.222 12.6698 11.2389 12.6093 11.2386 12.5477V9.24566C11.7856 9.24566 12.2292 8.80212 12.2292 8.25506V6.45686C12.2274 6.42797 12.2237 6.39928 12.2183 6.37092C12.4388 6.12824 12.6107 5.8454 12.7245 5.53782C12.9628 5.57784 13.2076 5.54538 13.4272 5.44465C13.6468 5.34391 13.831 5.17955 13.9561 4.97285C14.2701 4.45352 14.1841 3.78619 13.7488 3.36344L11.0616 0.676839C10.8474 0.461608 10.5927 0.290969 10.3122 0.174793C10.0317 0.0586177 9.73096 -0.0007895 9.42734 7.92252e-06H5.95535C5.91061 -0.000120496 5.86632 0.00898478 5.82525 0.0267543L3.57782 0.990614H3.31374V0.33021C3.31374 0.242635 3.27895 0.158647 3.21702 0.0967218C3.1551 0.034797 3.07111 7.92252e-06 2.98354 7.92252e-06H0.341921C0.254346 7.92252e-06 0.170358 0.034797 0.108433 0.0967218C0.0465078 0.158647 0.0117188 0.242635 0.0117188 0.33021V5.61344C0.0117188 5.70102 0.0465078 5.785 0.108433 5.84693C0.170358 5.90885 0.254346 5.94364 0.341921 5.94364H2.98354C3.07111 5.94364 3.1551 5.90885 3.21702 5.84693C3.27895 5.785 3.31374 5.70102 3.31374 5.61344V4.95304H3.36195C3.59833 5.74552 4.66018 6.27384 5.62515 6.27384C6.0204 6.28195 6.41241 6.20101 6.77212 6.03701C7.13183 5.87301 7.45002 5.63016 7.70311 5.32645ZM2.65333 5.28324H0.672123V0.660412H2.65333V5.28324ZM10.5782 12.3436L10.248 12.5087L9.91778 12.3436V9.24566H10.5782V12.3436ZM11.5688 8.25506C11.5688 8.34263 11.534 8.42662 11.4721 8.48854C11.4101 8.55047 11.3262 8.58526 11.2386 8.58526H9.25737C9.1698 8.58526 9.08581 8.55047 9.02388 8.48854C8.96196 8.42662 8.92717 8.34263 8.92717 8.25506V6.90717C9.14921 7.03652 9.38921 7.1322 9.63933 7.1911C9.69483 7.3262 9.79328 7.43925 9.91948 7.51278C10.0457 7.5863 10.1926 7.61621 10.3375 7.59787C10.4824 7.57961 10.6173 7.51411 10.7212 7.41149C10.8252 7.30887 10.8925 7.17486 10.9126 7.03017C10.9327 6.88552 10.9047 6.73827 10.8327 6.61116C10.7608 6.48406 10.649 6.38418 10.5146 6.32696C10.3803 6.26975 10.2308 6.25838 10.0893 6.29462C9.94784 6.33085 9.82224 6.41267 9.73191 6.52744C9.54566 6.47865 9.36763 6.40265 9.20355 6.30191C9.52193 6.10888 9.87815 5.98669 10.248 5.94364C10.722 6.01028 11.1741 6.18596 11.5688 6.45686V8.25506ZM11.8147 5.83563C11.3426 5.53202 10.8061 5.34287 10.248 5.28324C9.69076 5.34264 9.15512 5.53135 8.68373 5.83435C8.48233 5.57794 8.349 5.27478 8.29615 4.95304H9.91778C10.155 4.95542 10.3883 4.89221 10.5919 4.77037C10.7954 4.64854 10.9614 4.47283 11.0714 4.26263L11.9961 5.18715C12.0329 5.22163 12.072 5.25372 12.1129 5.28324C12.0449 5.48268 11.9441 5.66937 11.8146 5.83563H11.8147ZM11.2229 3.48005C11.1921 3.20976 11.0777 2.95581 10.8958 2.75352C11.2612 2.88043 11.5815 3.11151 11.8172 3.41827C12.0528 3.72502 12.1935 4.09404 12.222 4.47982L11.2229 3.48005ZM7.2762 4.62283C7.2762 5.1228 6.45825 5.61344 5.62519 5.61344C4.79213 5.61344 3.97418 5.1228 3.97418 4.62283C3.97418 4.53526 3.93939 4.45127 3.87747 4.38935C3.81554 4.32742 3.73156 4.29263 3.64398 4.29263H3.31378V1.65102H3.64398C3.68872 1.65113 3.73301 1.64202 3.77408 1.62427L6.02131 0.660412H9.42569C9.64282 0.659613 9.85795 0.701925 10.0586 0.784893C10.2593 0.867861 10.4414 0.989836 10.5946 1.14374L13.2812 3.83035C13.3867 3.92886 13.4558 4.06016 13.4772 4.20291C13.4986 4.34565 13.4711 4.49144 13.3991 4.61656C13.3449 4.7024 13.2696 4.77292 13.1804 4.8214C13.0912 4.86989 12.9911 4.89471 12.8896 4.89352H12.874C12.884 4.80374 12.8891 4.71327 12.8896 4.62283C12.888 3.16466 11.7062 1.98287 10.248 1.98122C9.80424 1.98189 9.36793 2.09552 8.98021 2.31142H6.28556V2.97183H9.91778C10.2825 2.97183 10.5782 3.26752 10.5782 3.63223C10.5782 3.99694 10.2825 4.29263 9.91778 4.29263H7.60636C7.51879 4.29263 7.4348 4.32742 7.37288 4.38935C7.31095 4.45127 7.27616 4.53526 7.27616 4.62283H7.2762Z" fill="#181616"/>
</g>
<defs>
<clipPath id="clip0_4024_292">
<rect width="19.9772" height="20" fill="white"/>
</clipPath>
</defs>
</svg>
